<svg id="Layer_1" data-name="Layer 1" xmlns="http://www.w3.org/2000/svg" viewBox="0 0 512 409.6"><defs><style>.cls-1{fill:#080809;}.cls-2{fill:#fefefe;}.cls-3{fill:#454443;}.cls-4{fill:#981e58;}.cls-5{fill:#cf1c75;}.cls-6{fill:#cf1a74;}.cls-7{fill:#981e59;}.cls-8{fill:#1789ca;}.cls-9{fill:#981f58;}.cls-10{fill:#085c8d;}.cls-11{fill:#095d8d;}.cls-12{fill:#fffeff;}.cls-13{fill:#fffefe;}</style></defs><path class="cls-1" d="M856,452.92h-5.66q-153.69,0-307.36,0a12.14,12.14,0,0,0-7.39,2q-47.2,31.78-94.58,63.45c-.38.26-.79.5-1.7,1.08V453H344V110c1.38,0,2.79-.14,4.2-.14q219.54,0,439.08.06a12.33,12.33,0,0,1,6.08,1.67q30.69,20.28,61.06,40.78a5.26,5.26,0,0,1,1.49,2.36c.18.36,0,.8,0,1.21v297ZM848.39,448v-2.14q0-144.17-.11-288.31a5.39,5.39,0,0,0-2.44-3.86c-18.18-12.36-36.54-24.59-54.73-36.94a11.86,11.86,0,0,0-7.31-2.07q-214,.07-427.95,0h-4.29V448.17h94.93v59.26c1.56-.94,2.69-1.57,3.73-2.26q40.93-27.45,81.79-55a13.27,13.27,0,0,1,8.1-2.24q151.23.09,302.45.05Z" transform="translate(-344.03 -109.82)"/><path class="cls-2" d="M850.91,448.59H845q-152.73,0-305.45,0a13.42,13.42,0,0,0-8.18,2.25q-41.19,27.6-82.61,55c-1,.69-2.19,1.32-3.76,2.26V448.76H349.15V114.92h4.32q216.11,0,432.21,0a12.12,12.12,0,0,1,7.38,2.07c18.38,12.37,36.92,24.62,55.28,37a5.39,5.39,0,0,1,2.46,3.86q.18,144.33.11,288.66Z" transform="translate(-344.03 -109.82)"/><path class="cls-3" d="M384.47,247.89l-1.23.19.66-.8C384.08,247.49,384.27,247.69,384.47,247.89Z" transform="translate(-344.03 -109.82)"/><path class="cls-4" d="M761.11,251.82A41.86,41.86,0,0,1,785,260.39c12.26,9.17,18.45,21.55,18.68,36.83.11,6.64.16,13.29-.26,19.9-1.23,19.2-16.25,36.32-35.11,40.38a48.64,48.64,0,0,1-14.09.93,9.91,9.91,0,0,0-1.54-.89c-8.22-3-11.87-13.84-7.21-21.25a15.78,15.78,0,0,1,10.84-7.2c.17,0,.35,0,.52,0,8.92.21,14.71-5.42,14.71-14.31V295.58c0-8-4.29-13.15-12.15-14.47.78-.19,1.56-.36,2.33-.56a14.41,14.41,0,0,0,11.11-15.06,13.92,13.92,0,0,0-7.62-12A42.93,42.93,0,0,0,761.11,251.82Z" transform="translate(-344.03 -109.82)"/><path class="cls-4" d="M547.28,251.81a42,42,0,0,1,25.27,9.57c11.54,9.27,17.34,21.45,17.36,36.28,0,6.81.22,13.65-.36,20.41-1.67,19.58-17.41,36.48-36.79,39.72-3.61.61-7.34.48-11,.7a15.12,15.12,0,0,1-9.55-6.34,14.66,14.66,0,0,1,5.61-21.4,42.6,42.6,0,0,1,4.64-1.67h.86c8.53.24,14.43-5.5,14.44-14,0-6.8,0-13.6,0-20.4a13.32,13.32,0,0,0-2.48-7.93c-2.4-3.42-5.85-5-9.84-5.71a38.82,38.82,0,0,0,4.31-1.09A13.73,13.73,0,0,0,559,267.85a13.38,13.38,0,0,0-5.78-13.05A42.62,42.62,0,0,0,547.28,251.81Z" transform="translate(-344.03 -109.82)"/><path class="cls-5" d="M756.29,329.09a15.78,15.78,0,0,0-10.84,7.2c-4.66,7.41-1,18.25,7.21,21.25a9.91,9.91,0,0,1,1.54.89,45.39,45.39,0,0,1-39.94-33.66,38.15,38.15,0,0,1-1.37-8.51c-.19-10-1.16-20,1.1-29.82a45.32,45.32,0,0,1,40.76-34.65c2.11-.14,4.24,0,6.36,0a42.93,42.93,0,0,1,4.08,1.72,13.92,13.92,0,0,1,7.62,12,14.41,14.41,0,0,1-11.11,15.06c-.77.2-1.55.37-2.33.56-8.61-.51-14.93,6.24-14.58,14.88.25,6.44.05,12.9,0,19.35a13.7,13.7,0,0,0,3.68,9.6A14.89,14.89,0,0,0,756.29,329.09Z" transform="translate(-344.03 -109.82)"/><path class="cls-6" d="M542.45,329.08a42.6,42.6,0,0,0-4.64,1.67,14.66,14.66,0,0,0-5.61,21.4,15.12,15.12,0,0,0,9.55,6.34A44,44,0,0,1,513.06,346c-9.48-9.09-14-20.36-14.12-33.45,0-5.94,0-11.89.15-17.82.71-21.15,17.53-39.72,38.57-42.55,3.17-.42,6.41-.25,9.62-.36a42.62,42.62,0,0,1,5.92,3A13.38,13.38,0,0,1,559,267.85a13.73,13.73,0,0,1-9.23,12.06,38.82,38.82,0,0,1-4.31,1.09c-9.66.07-14.37,7.05-14.37,14,0,6.74,0,13.49,0,20.24,0,4.72,1.75,8.73,5.73,11.4A33.52,33.52,0,0,0,542.45,329.08Z" transform="translate(-344.03 -109.82)"/><path class="cls-6" d="M435,295.19c.38-.43.75-.87,1.14-1.28,1.8-1.88,2.48-4,1.44-6.49a5.53,5.53,0,0,0-5.23-3.63,5.66,5.66,0,0,0-5.56,3.67,15.5,15.5,0,0,1-10.14,9c-6.32,1.81-12,.33-16.43-4.49s-5.72-10.66-3.13-16.71c5.94-13.89,16.6-21.86,31.66-23.42a36,36,0,0,1,30,10.58,36.71,36.71,0,0,1,11.33,29.72A37.45,37.45,0,0,1,458.63,317a9.86,9.86,0,0,1-.79.66l-.59.48.05-.06-.4.39.05,0-.4.39h.06a15.33,15.33,0,0,0-1.91.65,15.46,15.46,0,0,1-14.09-.06,16.07,16.07,0,0,1-7.31-21.17c.33-.71.62-1.44.92-2.15v.06l.48-.61,0,0Z" transform="translate(-344.03 -109.82)"/><path class="cls-6" d="M648.15,295.12c.38-.43.74-.88,1.15-1.28a5.8,5.8,0,1,0-9.22-6.63,16.54,16.54,0,0,1-7.77,8.28,16.08,16.08,0,0,1-22.1-20.34,37.87,37.87,0,0,1,38-23.39c18.3,1.64,32.23,14.53,34.72,32.77,1.77,13-2.4,24.1-12,33.12l-.59.48,0-.06-.4.39.05,0-.4.39h.06a6.12,6.12,0,0,0-1.29.34,16.57,16.57,0,0,1-10.15,1.71,15.85,15.85,0,0,1-13-18.88,49.87,49.87,0,0,1,2-5.93l0,.06.48-.63,0,0Z" transform="translate(-344.03 -109.82)"/><path class="cls-7" d="M434.22,296.07c-.3.71-.59,1.44-.92,2.15a16.07,16.07,0,0,0,7.31,21.17,15.46,15.46,0,0,0,14.09.06,15.33,15.33,0,0,1,1.91-.65c-.33.39-.62.82-1,1.18q-16.89,16.9-33.8,33.78a15.41,15.41,0,0,1-16.06,4.14A15.17,15.17,0,0,1,394.66,346c-1.21-5.34-.08-10.36,3.78-14.28,11.69-11.89,23.55-23.63,35.34-35.42A2.38,2.38,0,0,1,434.22,296.07Z" transform="translate(-344.03 -109.82)"/><path class="cls-7" d="M647.29,296a49.87,49.87,0,0,0-2,5.93,15.85,15.85,0,0,0,13,18.88,16.57,16.57,0,0,0,10.15-1.71,6.12,6.12,0,0,1,1.29-.34c-.36.44-.7.9-1.1,1.3q-16.77,16.78-33.55,33.54c-8.49,8.46-22.36,5.74-26.61-5.31-2.36-6.13-1.38-12,3.2-16.69,11.56-11.86,23.35-23.5,35.05-35.22A4.58,4.58,0,0,1,647.29,296Z" transform="translate(-344.03 -109.82)"/><path class="cls-8" d="M519.57,234.25a19.85,19.85,0,0,1-17.91-7,19.56,19.56,0,0,1-5-13.63c.06-7.68,0-15.36,0-23.05,0-4.63,3.22-8,7.66-8.09a7.86,7.86,0,0,1,7.92,8.09c0,7.86,0,15.71,0,23.57,0,4,1.94,5.91,6,5.89.59.21,1.19.4,1.77.64a6.94,6.94,0,0,1,4.39,6.11,6.61,6.61,0,0,1-3.56,6.57C520.37,233.63,520,234,519.57,234.25Z" transform="translate(-344.03 -109.82)"/><path class="cls-9" d="M469,358.56a16,16,0,0,1-16-16.1,16.09,16.09,0,1,1,16,16.1Z" transform="translate(-344.03 -109.82)"/><path class="cls-9" d="M682.23,358.56a15.91,15.91,0,0,1-16.06-16,16.09,16.09,0,1,1,16.06,16Z" transform="translate(-344.03 -109.82)"/><path class="cls-8" d="M617.27,210.55a11.42,11.42,0,0,0-1,1.54c-2.58,6-5.07,12-7.72,17.91a7.62,7.62,0,0,1-7.91,4.43,7.42,7.42,0,0,1-6.63-5.91,9.24,9.24,0,0,1,.42-5c5-12.11,10.25-24.16,15.44-36.21a7.79,7.79,0,0,1,14.71,1c-.17,1.74,0,3.59-.58,5.19-1.23,3.45-2.88,6.75-4.26,10.15C618.84,205.91,618.09,208.24,617.27,210.55Z" transform="translate(-344.03 -109.82)"/><path class="cls-8" d="M464.13,210.5c-2.75,6.4-5.46,12.82-8.26,19.2a7.74,7.74,0,0,1-7.9,4.74,7.44,7.44,0,0,1-6.79-5.94,9.44,9.44,0,0,1,.43-5c5.05-12.12,10.26-24.18,15.46-36.23a7.78,7.78,0,0,1,14.69,1.1c-.18,1.75-.05,3.6-.6,5.22-1,2.81-2.34,5.47-3.49,8.22S465.31,207.59,464.13,210.5Z" transform="translate(-344.03 -109.82)"/><path class="cls-8" d="M402.12,234.42a7.66,7.66,0,0,1-7.91-7.87q-.15-18,0-36a7.81,7.81,0,0,1,8-8c4.4.08,7.67,3.55,7.7,8.32,0,9.12,0,18.24,0,27.36,0,.64.05,1.27.08,1.9-.09,2.18-.23,4.35-.27,6.53a7.84,7.84,0,0,1-2.11,5.31C406.14,233.6,404.18,234.08,402.12,234.42Z" transform="translate(-344.03 -109.82)"/><path class="cls-8" d="M772.59,234.42a7.67,7.67,0,0,1-7.92-7.84q-.1-18.09,0-36.17a7.71,7.71,0,0,1,8.26-7.84c5.83,1.62,7.24,3.53,7.28,9.72,0,1.54.17,3.08.26,4.62v23.18c-.09,2.12-.07,4.25-.32,6.35a13.33,13.33,0,0,1-1.18,4.22C777.69,233.21,775.25,234.07,772.59,234.42Z" transform="translate(-344.03 -109.82)"/><path class="cls-8" d="M666.48,215.1c0,3.81-.05,7.62-.12,11.42a7.57,7.57,0,0,1-4.38,7.12,7.48,7.48,0,0,1-8.16-.76,7.27,7.27,0,0,1-3.09-6.1q0-18.27,0-36.54a7.66,7.66,0,0,1,6.34-7.59,7.94,7.94,0,0,1,8.73,4.7c.12,1.72.34,3.43.35,5.15,0,6.8,0,13.61,0,20.41A16.43,16.43,0,0,0,666.48,215.1Z" transform="translate(-344.03 -109.82)"/><path class="cls-8" d="M723.37,215.1c0,3.75,0,7.5,0,11.26a7.87,7.87,0,0,1-7.72,8.11,7.74,7.74,0,0,1-7.91-7.89c-.06-11.9,0-23.79,0-35.69,0-4,2-6.92,5.4-8s6.83.16,9.19,3.44c.23.33.43.68.64,1l.14.34,0,0Z" transform="translate(-344.03 -109.82)"/><path class="cls-8" d="M569.49,215c-8.86.17-16-5.71-17.15-14.06-1.37-10.39,8.42-19.74,19.15-18.32a21.87,21.87,0,0,1,10.23,3.83,7.88,7.88,0,0,1,2.13,11c-2.46,3.6-7.15,4.4-11,2a9.71,9.71,0,0,0-3.17-1.22,1.81,1.81,0,0,0-2.33,1.71c-.1,1.33.71,2,2,2,.62,0,1.23.14,1.85.22.36.26.71.55,1.09.79A6.15,6.15,0,0,1,573.38,213C572.34,214,570.8,214.37,569.49,215Z" transform="translate(-344.03 -109.82)"/><path class="cls-10" d="M519.57,234.25c.41-.29.8-.62,1.24-.87a6.61,6.61,0,0,0,3.56-6.57A6.94,6.94,0,0,0,520,220.7c-.58-.24-1.18-.43-1.77-.64,3.15-1,4.29-2.59,4.29-6.2,0-7.84,0-15.68,0-23.53a7.7,7.7,0,0,1,6.73-7.75,7.79,7.79,0,0,1,8.47,5.36,6.44,6.44,0,0,1,.37,2c0,8.76.21,17.54-.23,26.28C537.4,225.5,528.85,233.58,519.57,234.25Z" transform="translate(-344.03 -109.82)"/><path class="cls-11" d="M569.49,215c1.31-.64,2.85-1,3.89-2A6.15,6.15,0,0,0,572.3,203c-.38-.24-.73-.53-1.09-.79A16,16,0,0,1,586,216.38a16.66,16.66,0,0,1-12.19,17.37c-6.91,1.82-13.41.33-19.22-3.73-3.15-2.2-3.79-7-1.67-10.27a8,8,0,0,1,10.36-2.68,18.06,18.06,0,0,0,5,1.66,3,3,0,0,0,2.48-1.21C571.49,216.39,570.66,215.48,569.49,215Z" transform="translate(-344.03 -109.82)"/><path class="cls-10" d="M666.48,215.1a16.43,16.43,0,0,1-.29-2.19c0-6.8,0-13.61,0-20.41,0-1.72-.23-3.43-.35-5.15q4.34,5.94,8.68,11.88c.67.92,1.38,1.8,2.08,2.7,2,2.87,4,5.73,6,8.62,3.19,4.62,6.36,9.27,9.54,13.91.23,2.39.18,4.71-1.35,6.76a7.82,7.82,0,0,1-12.81-.17c-3.51-4.84-7-9.72-10.44-14.59C667.2,216,666.83,215.55,666.48,215.1Z" transform="translate(-344.03 -109.82)"/><path class="cls-10" d="M723.37,215.1,723,187.65l8.63,11.82c.58.79,1.17,1.57,1.75,2.35,2.49,3.51,5,7,7.46,10.54,2.82,4.11,5.54,8.29,8.31,12.44,0,.24,0,.47,0,.71,0,0-.1.06-.1.08a2.12,2.12,0,0,0,.11.21A7.83,7.83,0,0,1,734.9,231c-3.57-5-7.09-9.92-10.64-14.87A11.87,11.87,0,0,0,723.37,215.1Z" transform="translate(-344.03 -109.82)"/><path class="cls-8" d="M749.19,224.8c-2.77-4.15-5.49-8.33-8.31-12.44-2.44-3.55-5-7-7.46-10.54,0-3.51.07-7,.13-10.54.06-4.38,2-7.29,5.57-8.41a7.66,7.66,0,0,1,10.08,7C749.39,201.51,749.22,213.16,749.19,224.8Z" transform="translate(-344.03 -109.82)"/><path class="cls-8" d="M692.13,224.46c-3.18-4.64-6.35-9.29-9.54-13.91-2-2.89-4-5.75-6-8.62,0-3.75,0-7.51,0-11.26a7.84,7.84,0,0,1,7.82-8.16c4.49,0,7.77,3.45,7.77,8.18q0,16.2,0,32.39C692.21,223.54,692.16,224,692.13,224.46Z" transform="translate(-344.03 -109.82)"/><path class="cls-10" d="M772.59,234.42c2.66-.35,5.1-1.21,6.38-3.76a13.33,13.33,0,0,0,1.18-4.22c.25-2.1.23-4.23.32-6.35,5.31,0,10.62,0,15.92,0a7.15,7.15,0,0,1,3.54,13.42,7.62,7.62,0,0,1-3.28.89C788.63,234.48,780.61,234.43,772.59,234.42Z" transform="translate(-344.03 -109.82)"/><path class="cls-10" d="M402.12,234.42c2.06-.34,4-.82,5.5-2.49a7.84,7.84,0,0,0,2.11-5.31c0-2.18.18-4.35.27-6.53,5.19,0,10.39,0,15.59,0,4.47,0,7.65,3.07,7.63,7.2s-3.15,7.12-7.55,7.14C417.82,234.52,410,234.44,402.12,234.42Z" transform="translate(-344.03 -109.82)"/><path class="cls-10" d="M780.47,196.91c-.09-1.54-.26-3.08-.26-4.62,0-6.19-1.45-8.1-7.28-9.72,7.91,0,15.81-.1,23.71,0a7.17,7.17,0,1,1-.24,14.33C791.09,197,785.78,196.9,780.47,196.91Z" transform="translate(-344.03 -109.82)"/><path class="cls-11" d="M464.13,210.5c1.18-2.91,2.33-5.83,3.54-8.72s2.54-5.41,3.49-8.22c.55-1.62.42-3.47.6-5.22,2.57,6,5.28,11.86,7.67,17.9,1.45,3.67-.68,7.9-4.31,9.45a7.88,7.88,0,0,1-10-3.44C464.81,211.66,464.46,211.08,464.13,210.5Z" transform="translate(-344.03 -109.82)"/><path class="cls-11" d="M617.27,210.55c.82-2.31,1.57-4.64,2.49-6.91,1.38-3.4,3-6.7,4.26-10.15.57-1.6.41-3.45.58-5.19,2.41,5.52,4.84,11,7.22,16.56,1.94,4.53.21,9.18-4,10.88C623.48,217.52,619.08,215.37,617.27,210.55Z" transform="translate(-344.03 -109.82)"/><path class="cls-11" d="M782.9,208.53a7.62,7.62,0,0,1,7.67-7.84,7.81,7.81,0,1,1,.07,15.62A7.67,7.67,0,0,1,782.9,208.53Z" transform="translate(-344.03 -109.82)"/><path class="cls-11" d="M624.87,226.57a7.59,7.59,0,0,1,7.77-7.73,7.78,7.78,0,0,1,7.83,7.77,7.87,7.87,0,0,1-8,7.85A7.66,7.66,0,0,1,624.87,226.57Z" transform="translate(-344.03 -109.82)"/><path class="cls-11" d="M472,226.64a7.72,7.72,0,0,1,7.76-7.8,7.81,7.81,0,1,1-7.76,7.8Z" transform="translate(-344.03 -109.82)"/><path class="cls-7" d="M670.38,318.13l.59-.48Z" transform="translate(-344.03 -109.82)"/><path class="cls-7" d="M457.25,318.13l.59-.48Z" transform="translate(-344.03 -109.82)"/><path class="cls-7" d="M647.8,295.47l-.48.63Z" transform="translate(-344.03 -109.82)"/><path class="cls-7" d="M434.69,295.52l-.48.61Z" transform="translate(-344.03 -109.82)"/><path class="cls-10" d="M723.08,187.68l-.14-.34Z" transform="translate(-344.03 -109.82)"/><path class="cls-7" d="M435,295.19l-.32.31Z" transform="translate(-344.03 -109.82)"/><path class="cls-7" d="M648.15,295.12l-.37.37Z" transform="translate(-344.03 -109.82)"/><path class="cls-8" d="M749.22,225.8a2.12,2.12,0,0,1-.11-.21s.07-.06.1-.08A.21.21,0,0,1,749.22,225.8Z" transform="translate(-344.03 -109.82)"/><path class="cls-7" d="M456.9,318.46l.4-.39Z" transform="translate(-344.03 -109.82)"/><path class="cls-7" d="M670,318.46l.4-.39Z" transform="translate(-344.03 -109.82)"/><path class="cls-7" d="M456.55,318.8l.4-.39Z" transform="translate(-344.03 -109.82)"/><path class="cls-7" d="M669.68,318.8l.4-.39Z" transform="translate(-344.03 -109.82)"/><path class="cls-12" d="M756.29,329.09a14.89,14.89,0,0,1-7.78-4.15,13.7,13.7,0,0,1-3.68-9.6c0-6.45.21-12.91,0-19.35-.35-8.64,6-15.39,14.58-14.88,7.86,1.32,12.15,6.43,12.15,14.47v19.19c0,8.89-5.79,14.52-14.71,14.31C756.64,329.07,756.46,329.09,756.29,329.09Z" transform="translate(-344.03 -109.82)"/><path class="cls-13" d="M542.45,329.08a33.52,33.52,0,0,1-5.64-2.46c-4-2.67-5.7-6.68-5.73-11.4-.05-6.75,0-13.5,0-20.24,0-6.93,4.71-13.91,14.37-14,4,.67,7.44,2.29,9.84,5.71a13.32,13.32,0,0,1,2.48,7.93c0,6.8,0,13.6,0,20.4,0,8.55-5.91,14.29-14.44,14Z" transform="translate(-344.03 -109.82)"/></svg>