<?xml version="1.0" encoding="UTF-8" standalone="no"?>
<!DOCTYPE svg PUBLIC "-//W3C//DTD SVG 1.1//EN" "http://www.w3.org/Graphics/SVG/1.1/DTD/svg11-flat.dtd"
[
<!ATTLIST g xmlns:fme CDATA #FIXED "http://www.safe.com/fme" >
<!ATTLIST path fme:OBJECTID CDATA #IMPLIED fme:NOM_MAJ CDATA #IMPLIED fme:SHAPE_AREA CDATA #IMPLIED fme:NOM_MIN CDATA #IMPLIED fme:SHAPE_LEN CDATA #IMPLIED fme:NO_CANTON CDATA #IMPLIED fme:NO_DIS_FED CDATA #IMPLIED fme:NO_COM_FED CDATA #IMPLIED fme:NO_COM_CAN CDATA #IMPLIED fme:NO_DIS_CAN CDATA #IMPLIED >
<!ATTLIST ellipse fme:OBJECTID CDATA #IMPLIED fme:NOM_MAJ CDATA #IMPLIED fme:SHAPE_AREA CDATA #IMPLIED fme:NOM_MIN CDATA #IMPLIED fme:SHAPE_LEN CDATA #IMPLIED fme:NO_CANTON CDATA #IMPLIED fme:NO_DIS_FED CDATA #IMPLIED fme:NO_COM_FED CDATA #IMPLIED fme:NO_COM_CAN CDATA #IMPLIED fme:NO_DIS_CAN CDATA #IMPLIED >
<!ATTLIST text fme:OBJECTID CDATA #IMPLIED fme:NOM_MAJ CDATA #IMPLIED fme:SHAPE_AREA CDATA #IMPLIED fme:NOM_MIN CDATA #IMPLIED fme:SHAPE_LEN CDATA #IMPLIED fme:NO_CANTON CDATA #IMPLIED fme:NO_DIS_FED CDATA #IMPLIED fme:NO_COM_FED CDATA #IMPLIED fme:NO_COM_CAN CDATA #IMPLIED fme:NO_DIS_CAN CDATA #IMPLIED >
<!ATTLIST use fme:OBJECTID CDATA #IMPLIED fme:NOM_MAJ CDATA #IMPLIED fme:SHAPE_AREA CDATA #IMPLIED fme:NOM_MIN CDATA #IMPLIED fme:SHAPE_LEN CDATA #IMPLIED fme:NO_CANTON CDATA #IMPLIED fme:NO_DIS_FED CDATA #IMPLIED fme:NO_COM_FED CDATA #IMPLIED fme:NO_COM_CAN CDATA #IMPLIED fme:NO_DIS_CAN CDATA #IMPLIED >
]>
<svg xmlns="http://www.w3.org/2000/svg"  viewBox="-963.149 -963.149 78978.2 91118"><g xmlns:fme="http://www.safe.com/fme" fill="none" stroke="black" stroke-width="9.631486000000034" transform="translate(0,89191.7) scale(1, -1)">
<g id="MN95_OIT_TPR_LAD_GEN_LAC" >
<path fme:OBJECTID="1" fme:SHAPE_AREA="580247573.557535" fme:SHAPE_LEN="189539.52390146698" fme:NO_CANTON="0" fme:NOM_MIN="Léman" fme:NOM_MAJ="LÉMAN" fme:NO_DIS_FED="0" fme:NO_COM_FED="0" fme:NO_COM_CAN="0" fme:NO_DIS_CAN="0" d="M 2492.37,9931.08 l 22.358,162.488 19.354,115.859 73.04,104.887 250.024,210.579 80.837,-19.803 -6.1,32.3 42.678,3.999 -67.046,-80.737 10.969,0.39 129.634,143.473 5.649,44.4 28.109,-1.221 98.955,127.565 71.316,174.355 123.263,153.774 27.41,-16.901 12.268,78.139 -26.23,46.17 37.879,6.429 27.777,148.377 183.102,191.052 151.38,278.49 -24.12,18.001 31.68,-10.24 178.84,257.683 407.621,297.693 133.49,292.344 94.474,119.943 41.056,-25.321 -24.37,51.659 170.905,413.34 16.552,148.776 56.051,65.731 18.371,72.213 19.651,-8.912 -0.47,75.914 78.113,130.283 22.562,127.785 73.692,91.762 -16.82,25.702 53.552,185.677 -44.749,190.271 45.342,101.893 -27.87,24.212 60.362,128.344 1.85,3.54 -5.869,35.742 138.913,126.64 120.574,170.122 18.854,241.817 -14.501,39.375 15.102,18.16 -12.748,7.845 -6.497,59.331 24.149,72.448 31.566,31.696 65.938,-44.723 -68.205,71.938 16.835,38.179 -21.272,26.162 -4.406,117.223 30.072,34.86 -19.154,19.154 -16.244,69.636 2.836,156.956 13.791,29.497 85.235,60.718 71.711,-40.322 -35.502,-49.833 -44.297,-18.566 5.211,-10.749 71.982,40.714 23.126,45.274 -73.46,32.333 -2.872,54.11 20.202,42.159 139.066,130.011 6.349,54.157 149.668,255.011 70.04,220.963 170.27,91.56 64.249,320.537 229.11,173.86 22.499,150.645 68.779,135.954 87.919,51.771 48.129,89.992 236.999,122.883 111.919,115.592 238.278,223.246 318.344,427.114 60.667,131.654 14.258,233.555 77.21,98.149 134.196,47.191 69.725,61.394 32.95,85.869 155.521,159.418 63.8,5.27 15.725,49.097 215.355,304.597 101.334,42.205 61.465,-105.117 -23.703,120.515 40.112,46.929 -20.471,128.184 76.154,186.79 59.502,-1.023 37.242,87.69 461.869,358.912 238.719,124.09 57.511,83.43 470.868,-36.121 216.179,-117.75 -45.13,-21.51 61.8,1.87 0.06,-42.54 215.349,7.96 260.229,-112.709 83.86,97.61 12.281,67.832 -33.351,-8.607 -3.29,-74.485 -53.899,-33.78 -139.61,73.09 -144,18.71 62.558,41.502 228.942,-14.011 44.9,35.94 44.74,1.73 4.95,-41.96 147.02,218.042 52.241,170.981 25.931,69.57 42.77,1.13 -16.13,23.391 221.359,43.761 81.231,110.197 -10.61,77.234 64.472,223.401 -99.448,362.722 4.941,244.772 41.381,96.308 342.021,364.331 275.401,442.69 48.011,176.973 -45.337,536.565 61.351,240.821 135.732,152.729 118.46,1.488 36.66,-43.011 20.24,22.33 -2.2,-22.47 57.71,4.799 112.831,90.339 25.55,20.89 -46.87,94.051 114.191,116.119 166.671,41.728 472.443,291.014 135.222,189.619 85.49,83.41 16.86,-13.31 -11.449,39.65 131.891,214.29 170.132,131.84 344.365,443.39 59.23,4.4 -37.78,20.96 -6.29,10.19 4.601,137.031 102.413,245.591 106.961,65.25 94.77,11.589 135.042,71.81 149.972,204.99 102.361,57.09 170.053,173.89 173.761,26.009 70.59,48.38 224.825,255.871 100.409,212.027 43.689,-19.06 36.57,145.398 128.198,229.708 258.048,214.687 58.06,10.649 81.5,112.569 166.54,63.768 18.6,35.23 -41.02,19.68 20.519,33.41 38.621,-18.23 109.19,35.699 117.341,-36.741 34.32,37.6 140.401,-55.341 2.777,47.799 47.343,-15.949 234.17,91.858 623.721,47.474 40.23,51.14 474.842,130.245 239.984,116.577 237.252,-18.972 258.081,-81.913 160.282,72.428 128.751,-54.501 294.43,-179.442 153.399,-201.421 24.541,32.899 100.771,7.209 -12.661,-38.85 -27.76,10.291 91.4,-120.601 -15.174,-69.356 140.484,14.945 207.501,-102.112 514.064,-10.405 451.867,215.263 29.053,177.079 34.81,40.539 319.656,179.455 287.076,246.735 290.735,175.585 390.095,118.606 234.582,8.391 508.996,100.292 372.795,101.592 156.233,89.321 532.307,173.442 49.443,192.281 52.931,58.831 50.36,-14.37 19.24,17.14 -30.84,31.371 55.39,57.971 226.212,167.695 102.231,17.33 413.867,-50.843 26.621,30.63 -62.314,274.297 56.046,404.965 129.981,202.08 281.792,230.715 205.122,230.458 198.863,39.565 296.236,-75.102 276.376,71.274 174.477,76.946 38.71,90.711 1.593,407.162 32.78,115.742 310.847,440.661 27.369,8.711 27.3,84.141 178.447,6.135 17.61,25.428 248.319,84.776 -2.603,21.772 56.419,8.004 16.809,-30.2 -12.839,47.94 113.15,24.401 208.664,198.574 -51.058,9.844 11.511,80.091 223.892,182.471 113.211,221.695 -67.155,85.044 27.335,119.609 95.614,119.235 236.769,192.562 131.961,73.206 156.812,34.363 199.432,-138.045 85.361,12.607 65.01,10.378 173.483,114.642 261.882,-61.086 332.712,-143.096 402.173,-280.384 503.173,-434.141 156.971,-54.004 96.481,11.837 -8.221,-59.901 25.09,6.969 39.84,41.009 271.961,25.908 28.79,26.989 169.659,-47.829 0.271,58.852 4.94,-28.781 44.31,15.098 267.529,-66.084 -4.37,26.081 451.12,-41.581 281.42,34.357 177.595,130.882 20.318,44.452 -34.081,48.301 246.455,243.712 456.89,134.067 138.548,-15.196 5.57,37.961 72.079,25.558 112.634,140.325 71.416,25.591 -15.399,30.741 40.5,83.66 63.56,7.068 140.187,141.722 282.136,69.34 300.428,-103.306 37.549,-19.432 92.769,42.727 131.152,99.758 122.394,-27.793 276.749,-165.681 118.263,-110.455 229.774,-252.829 67.595,-34.613 -22.483,-79.84 100.398,-40.65 2.636,-42.83 216.635,-73.7 4.252,30.519 35.126,1.04 -37.666,5.45 15.617,107.09 220.184,4.601 8.172,-98.411 42.21,33.221 47.1,-59.032 276.692,-53.484 174.332,-87.037 77.774,-66.59 -31.031,-61.261 186.578,-170.256 -47.089,71.662 87.051,95.102 206.55,-165.113 -10.273,-60.754 176.893,74.285 196.357,-179.943 -39.181,-89.592 17.309,-71.451 40.702,134.102 87.66,-70.512 -20.29,-89.059 144.122,75.419 -91.211,96.003 45.871,76.464 62.522,10.172 40.299,-30.84 197.623,66.294 699.971,-267.28 35.239,12.237 9.411,47.348 -0.91,-46.453 146.352,-21.59 4.4,27.34 209.012,78.965 244.102,-41.048 194.781,41.864 226.7,-63.556 125.773,69.88 104.611,12.252 113.751,-8.389 4.37,-61.97 198.451,-21.598 15.56,49.751 110.671,30.577 55.831,-26.125 -19,-72.661 54.56,-55.16 176.041,-65.659 46.391,56.862 87.129,-68.422 135.292,8.66 81.181,-38.476 84.675,40.173 208.156,13.236 91.17,6.51 88.628,-70.221 103.516,7.763 62.339,-83.498 268.394,-189.845 33.81,63.789 275.976,-33.713 163.678,-112.192 78.98,-17.452 53.14,-94.821 55.921,59.129 247.241,-123.966 82.257,-1.953 -9.926,29.042 61.082,-43.861 2.409,24.729 461.992,-268.21 418.281,-343.519 304.087,-322.326 90.273,-26.033 320.038,-219.521 250.286,-233.176 199.542,46.551 110.628,-43.686 92.32,27.079 256.213,-14.958 272.831,251.644 203.211,47.168 8.21,-26.789 81.85,-9.5 20.301,36.42 99.979,-19.791 8.13,-58.221 -107.16,10.661 106.679,-32.351 112.09,46.85 41.78,-18.891 57.78,49.29 158.79,-0.211 111.979,-70.411 10.58,-35.97 66.83,3.879 73.159,-77.72 244.848,-126.603 93.339,-58.701 190.678,-248.572 163.968,-89.871 181.268,-220.913 161.838,-124.271 525.556,-294.955 714.72,-319.263 49.581,-47.677 19.56,22.92 377.104,-88.649 201.132,76.352 78.071,-24.11 36.509,40.24 117.88,6.171 753.779,-263.038 149,-81.81 180.701,14.819 322.837,-127.505 134.202,12.459 -27.213,-59.691 -66.1,4.361 16.647,-70.391 55.879,-40.411 130.615,111.29 26.47,-7 -0.138,33.19 215.7,-36.542 117.739,-32.011 29.972,29.01 48.719,-22.521 112.172,20.59 138.136,-48.685 54.124,15.223 99.923,-156.105 80.46,-15.031 31.338,-46.561 223.436,51.378 174.168,-6.43 -21.154,27.128 60.752,1.449 197.355,-20.832 89.942,-95.111 58.001,-45.61 -34.901,-64.17 126.003,-187.69 -18.681,-50.83 53.472,-36.021 7.409,-302.519 41.821,-82.543 406.702,-202.27 40.99,34.229 298.922,-118.852 480.778,-93.188 19.802,-51.296 34.676,2.78 175.313,-493.735 68.702,-5.551 104.631,-69.221 60.407,-128.55 49.492,-8.021 83.026,-196.73 6.437,-122.369 43.649,-64.7 128.956,95.378 270.98,73.075 78.332,-6.821 44.369,-67.6 68.373,39.549 74.462,-11.681 58.21,-64.96 31.632,65.089 165.453,-37.522 95.792,17.59 128.211,-123.229 153.262,-61.362 41.29,-80.004 33.777,-56.778 62.344,-17.393 36.957,-123.429 -23.614,-103.049 226.01,-141.568 129.472,7.221 94.084,61.04 75.34,-30.099 4.938,-60.87 290.267,-216.735 32.091,25.72 210.652,-57.098 570.084,149.222 162.062,-73.271 410.854,-360.394 93.05,-145.483 53.447,-208.431 -66.107,-308.378 159.408,-174.392 91.739,-54.946 96.867,-3.259 229.083,123.661 178.934,-53.358 78.687,-66.887 194.66,-358.139 32.549,25.02 -0.91,-79.258 72.152,-104.227 -15.949,-350.4 178.062,-215.973 70.468,-24.658 51.657,-69.888 21.705,-389.859 -39.532,-57.198 27.188,-52.888 83.13,-16.86 132.186,-220.054 38.927,-147.191 3.697,-225.95 -34.812,-145.419 -105.636,-214.104 -150.317,-194.913 -162.876,-102.672 20.264,-233.099 -38.992,-178.368 -124.716,-170.624 -151.015,-67.987 -67.749,59.261 -116.591,13.66 64.397,-163.399 -33.945,50.418 -57.247,-17.438 -8.714,-48.885 33.62,-30.251 -78.629,-122.555 -218.065,45.425 7.516,80.856 -90.615,36.68 -170.666,24.747 -116.819,-31.75 -104.172,46.056 -80.874,83.913 -66.726,-44.11 -147.475,56.86 -122.999,-47.652 -26.524,34.661 -81.914,-8.585 -48.661,28.928 -3.519,-48.625 -64.131,0.581 -34.7,33.73 4.319,-45.819 -77.498,-20.579 -94.355,-107.546 -175.873,-68.962 -90.844,91.263 -131.775,-10.291 -23.72,-38.496 -26.056,38.454 -62.902,-31.946 -107.38,72.421 -129.04,-4.605 -63.118,148.476 -76.373,-90.263 -55.02,7.021 -28.578,-33.495 -41.074,-7.331 21.448,24.047 -33.124,22.777 -45.226,-38.217 -86.222,2.194 -13.465,66.35 -52.738,-74.449 -114.57,-63.699 -231.817,26.424 -225.39,-130.952 -112.235,25.439 -15.458,59.986 -251.516,-170.885 -108.15,5.966 -167.805,-74.345 -110.577,12.168 -101.024,90.61 -80.599,-7.121 -124.892,74.217 -46.671,77.962 -82.594,-17.522 -103.683,-48.226 160.111,-593.254 -9.264,-43.236 15.001,-7 2.001,-50.002 -40.001,-70.003 -50.002,-3 -20,-85.004 -20.001,-15 -27.002,33.001 25.003,-100.004 -13.001,-10 -37.003,97.004 -68.004,53.003 -15,-15.001 90.005,-118.006 -160.012,-79.998 -57,73.001 -98.003,62.002 15.001,40.001 -30.002,-25.001 -42.002,28.001 -10,-13 -55.003,13.001 2,27.001 -37.002,55.002 27.002,-57.002 -7.001,-15.001 -255.012,122.004 -15,23 -130.006,20.001 -3,-12.999 -65.003,23 -155.01,-19.999 18,-40 -158.012,-57.998 -97.005,-1.999 -73.006,-25 -12.001,-19.999 -13.001,-3 5.001,15 -200.013,-52.003 -5,15 -20.002,-23.003 -67.004,-12.008 -220.011,-20.025 -130.009,-48.016 -60.003,-5.007 -68.002,14.993 -187.004,95.003 -128.005,22.995 -52.003,-8.007 -19.999,25.004 -123.003,45 -6.998,45.009 -43.001,30.004 -250.008,54.991 -90.002,45.002 -9.998,45.009 -35.001,29.998 -37.001,4.999 7.001,10 -35.001,24.999 -16.999,39.999 -128.006,-15.005 -305.011,72.988 -177.003,149.992 -123.002,44.999 -24.999,32 -6.999,30 12.001,8 -31.999,62.001 -55.006,62.998 -125.018,-0.006 -207.99,-52.997 -79.995,-4.999 -0.001,-12 -164.99,-7.998 -139.994,-61.999 -86.995,-17.999 -8,10.001 3,-15.001 -62.997,0.001 -66.995,25.001 -189.989,5.003 -192.986,115.003 -394.974,103.007 -164.989,72.002 -211.984,133.004 -237.984,100.004 -34.997,10.001 -176.991,-17.998 -139.99,60.002 -142.99,85.003 -611.959,208.009 -129.988,155.003 -112.991,92.002 -261.985,8.004 -322.994,125.002 -315.002,15.001 -439.998,85.003 -202,5.001 -244.999,52.002 -82.999,53.001 -467.006,131.997 -110.002,54.999 -68.001,59.999 -117.002,-5 -103.002,-31.998 -215.001,47.005 -185.002,-29.996 -360.004,-15.004 -160.001,47.999 -302.003,6.996 -155.001,-15.002 -148.001,19.998 -245.002,4.999 -87,25 -655.003,-31.994 -138,-19.999 -100.001,-70 -122.001,-29.999 -310,55.003 -158.001,-2.999 -482.003,-159.996 12,-32 -135.001,-54.999 -105,0.001 -47,-20 -43,0 -27,20.001 -500.003,-34.997 -290,47.003 -200.001,18.001 -15,-10 -268.001,72.002 -167,20.002 -280.001,-9.998 -165.001,-39.999 -290.001,-9.998 -93,55.001 -100,25.001 -7,-17 -150.001,-57.999 -403.002,-76.997 -50.001,-22.999 -87,25 -103,-29.999 -27,15 -35.001,-17 -155,7.002 -75,-10 -5.001,-17 -150,-49.999 -333.002,-24.997 -147,-27.999 -78.001,-4.999 -97,48.001 -170.001,-32.999 -45,-22 5,-30 -18,-10 -15,25 -70.001,-29.999 -122,-17.999 -73,13.001 -75.001,-10 -7,-20 -45,-4.999 -40,20 -33,-23 -85.001,-14.999 -360.001,-4.997 -130.001,-19.999 -5,15 -22,-2 2,-23 -52,-2 -5,15 -255,75.002 -183.001,5.001 -175.001,-52.998 -120.001,-9.999 -17,-30 12,-7 -50,-30 -252.001,-34.998 -15,-20 -65.001,-2.999 -130,-41.999 -18,17 -67.001,-6.999 -45,-38 -230.001,-46.998 -15,-23 -68.001,-2 -67,-47.999 -135.001,-6.999 -65,-32.999 -110,5 -63.001,20.001 -172.001,-51.999 -7.999,15 -35.001,-7.999 3,-17 -145,-34.999 -10.001,-15 -98,-22.999 -22,18 -43.001,-48 -165,-11.999 -117.001,-42.999 7,-22 -62,-9.999 0,-20 -45.001,5 -5,-20 -50,-12.999 -30,15 -5,-17 -78,-25 -127.001,-7.999 0,-17 -108.001,-44.999 -312.001,-32.997 -270,115.002 -8.001,-17 -135,60.001 -10,-15 -327,180.002 -113,75.001 -112,102.001 -198,118.001 8,37 -18,5 -7,-15 -143,103.001 -120,57.001 -332,218.003 -18,-83 -40,-27 0,45 40,70 -52,47 -18,-12 -52.001,-162.999 -90,35 -103.001,-76.999 -10,40 43.001,85 12.001,140 -302.001,32.002 -203.001,-11.998 -397.002,-152.997 -35,-30 52,-37 7.999,-55 65,-53.001 -23,-27 -65,30.001 -40,52 -62,-39.999 -20.001,3 10.001,27 67,39.999 -30,48 -202.001,-172.998 -158.001,-29.999 -357.003,-211.997 -265.001,-47.998 -58,-31.999 -132.002,-142.999 -83,-37 -210.002,-172.998 -265.001,-287.006 -45.001,-90.003 -7,-158.004 -18,-12 20,-5 5,-23.001 22.999,-230.006 0,-97.002 -33,-58.001 0,-20.001 25,-17 -15,-205.006 7.999,-115.002 -83,-200.005 -92.001,-298.008 -33,-47.001 -70.001,-38.001 -50,-55.001 -62,-155.004 -25,-2 47,-20.001 -110.001,-70.001 -90,-23.001 -195.001,-15 -42,-22.001 -73,-93.002 -87,-27 -28.001,-18.001 3,-15 -83,-42.001 -72,-10 -13,-25.001 -95.001,-33.001 -30,15.001 -25,-12.001 -20,-38.001 -42,-20 -160.001,-45.001 -560.002,-275.006 -13,10 -70,-40.001 -55,-2 -202.001,-135.003 -410.001,-235.006 -253.001,-90.002 -110.001,-103.002 -57,-32.001 -158.001,-60.002 -94,-58.001 -431.001,-162.004 -172.001,-50.001 -65,-3 -85,18.001 -90.001,-5 -60,20 -155,2.001 -490.002,-45.001 -207,48.001 -61,-3 -85.001,-37.001 -67,-53.001 -108.001,-232.006 -105,-158.004 -112.001,-110.002 -220.001,-342.009 -150.001,-125.003 -138,-33 -152.001,5 -100,-87.002 -225.001,-398.01 -160.002,-342.009 -100,-130.003 -138.001,-85.002 -72,-15 -205,17.001 -143.001,25 -312,123.004 2,-33.001 -15,0 -167.001,70.002 -167,105.003 -18,38.001 -133,42.001 -109,10 -211.001,83.002 -227,115.004 -88,15 -262.002,210.01 -123.001,10.004 -45.001,25.004 -72.001,110.01 -53.003,210.018 -130.003,185.018 17.998,222.017 -140.002,150.015 -190.005,273.027 -50.001,90.008 -15.001,62.005 25,123.009 -70.002,75.008 -75.002,117.011 27.002,440.01 30,45 3,35.001 -58,55 -37,-15 -50,23.001 -93,70.001 -40,55 -275,170.003 -117,5 -190.001,-72.999 -73,10 -62,40.001 -10.001,-30 -140,53.001 -148,12.001 -58.001,-20 -100,5.001 -97.001,-55 -143,55.001 -146,127.002 -3.999,30 -10.001,-12 -36.999,35 -53.001,-23 18,-15 -8,-15 -25,3 -80.001,-54.999 11,-10 -31,-60.001 -87.001,-57.999 -163.001,-72 -12,52.001 -62,0 -3,-22 -30,-8 -8,25 -160.001,-34.999 -107,-4.999 -143.002,-95 -169,-31.999 -296.002,-139.997 -244.999,31.996 -140,-110.001 -30.001,-132.001 -47,-38 -194,-102.001 -173.007,-154.995 -291.006,-114.993 -110,-79.998 -222,-212.998 -149.999,-100.003 -352.999,-407.019 -116.999,-108.006 -80,-117.006 -83,-33.002 8,-12.001 -63,-50.002 -117,-45.003 7,-45.002 -35,12.001 -2,-67.004 20,-13.001 2.001,-55.003 -20,-115.006 23.001,-187.01 -15,-63.004 -382.998,-752.04 -110,-155.009 -107,-30.001 -38,-33.002 -20,-92.005 -149.999,-218.012 -131.999,-267.014 -63,-78.005 -157,-125.006 -5,-122.007 -64.999,-90.005 -75,-60.003 -120,-58.003 -53,-67.004 -30,-3 -17,-45.002 -98,-122.007 -26.999,-73.004 22,-5 48,-67.004 42,-100.005 45.001,-150.008 -12,-70.004 -192.999,-509.028 -17,9.001 -63,-44.003 -1.999,-21.001 17,-13.001 -106.999,-340.017 -128.002,-226.999 -211.997,-320.001 -84.982,-73.027 -127.992,-24.006 -196.993,-123 -137.996,-22.999 -16.999,-37 -52.999,22 -21.999,-22 -7.999,-40 47.999,-80 5.002,-138 80.007,-316.001 -2.999,-81.001 -139.999,-225.002 -132.003,-173.003 -120.002,-205.002 -52.999,-155.001 0.001,-52.001 -37.001,-65.001 -8,7 -22,-27 7,-15 -40.001,-53.001 -1.999,-42 -28.001,-38 -292.009,-195.004 -238.008,-122.003 -47.001,-63.001 -18,-55.001 -67.002,-75.001 10.001,-27 -35.001,-30 -133.001,-223.003 -240.005,-332.005 -45.002,-18 -7.001,-80 -143.007,-342.002 -230.01,-293.001 15,-22 -22,0 -60.003,-85.001 -98.004,-75 -32.002,-125 -103.005,-163.001 -32.001,-42 -93.004,-63.001 -82.004,-112 -118.004,-53 -202.008,17.999 -105.004,-28 -165.007,-10 -10,-15 -135.005,-17 -43.002,-20 0,-30 -45.002,-0.001 -62.002,-45 -55,-70.001 -122.977,-238.011 23,-12 -2.998,-25.001 -79.985,-160.007 -21.998,-15.001 15.001,-15.001 -4.999,-18 -97.987,-127.007 0.007,-88.003 19.998,13.001 -0.006,85.003 27.998,10.001 -7.988,-155.006 -11.999,2 -3.004,55.002 -19.998,-22.001 20.007,-105.003 -26.996,-40.002 -12.992,-93.004 -82.054,-182.002 44.992,-163.003 27.001,-11.999 -15.001,-20.001 8,-93.002 -65,-150.007 -15,-85.003 -43,-52.003 23,-14.999 -23,-88.004 -41.999,-0.002 -10,-17.001 2,-15.001 32.999,-9.998 -39.999,-28.003 -8,-82.002 29.999,-170.001 45,-67.999 59.999,10.004 28,-11.998 11.999,-48 -18.714,-122.325 -61.216,-204.424 -173.874,-357.922 -916.005,-1549.62 -342.774,-623.885 -281.529,-455.202 -107.576,-117.725 -158.941,-112.756 -169.248,-97.468 -179.585,-61.753 -179.514,-92.385 -502.483,-338.335 -292.34,-143.741 -118.056,-10.52 -123.371,81.379 -159.068,-41.265 -113.01,30.33 -328.475,-46.812 -15.461,30.597 30.694,56.249 82.004,66.586 179.539,71.952 102.561,61.549 92.285,71.733 81.887,138.082 127.846,276.078 45.844,189.057 60.846,393.364 122.684,276.08 30.563,122.635 4.954,91.93 -36.168,117.355 -226.916,525.357 -25.876,107.158 -10.553,148.046 66.211,281.007 97.141,214.707 20.312,117.492 9.811,240.01 56.105,194.176 -10.463,102.101 10.098,86.84 185.264,348.606 -39.235,154.483 18.387,39.23 25.744,11.032 14.708,83.367 38.081,10.522 9.999,27.001 -43.003,100.015 -100.004,85.009 -40.002,70.004 25,10.001 2.999,25.001 -28.001,50.003 7.992,255.015 19.998,55.003 22,0.001 24.999,43.002 7.998,35.003 106.997,117.008 18,-5.001 10.001,-32.001 32.001,-23.001 7.999,10 -30.001,50.003 26.998,48.003 52.999,35.001 26.998,77.004 37.999,48 109.99,327.016 46.997,98.003 24.999,42.001 192.996,177.992 64.993,114.997 24.993,76.999 149.999,67.986 69.999,4.992 67.003,-20.007 9.999,10 -12.003,17.001 49.997,29.999 -2.991,-67.002 -27.002,7.001 30.008,-60.003 -19.994,-47.001 21.997,20.001 9.989,92.002 27.991,80.002 1.99,78.003 18,1.999 86.951,405.012 22.995,45.001 -18.005,38.001 7.999,7 17.003,-22.001 9.998,15 -2.003,30.002 26.999,9.999 -2.003,22.001 94.98,173.003 -25.002,15.001 -10.004,30.002 11.998,15 35.003,-20.002 44.988,102.003 -21.999,-7 -24.992,-68.002 -20,-4.999 26.994,50.001 2.988,100.003 6.998,15 38.001,-5.001 19.99,90.002 -17.995,44.995 37.998,-1.997 -47.998,29.997 -29.998,132.002 14.999,8.002 -7,27 -14.999,2.999 -42.997,135.001 -36.998,14.997 -99.995,209.998 -57.997,235.003 29.997,97.007 23,3.002 -5.002,37.001 40,20.004 26.997,63.004 -2.004,75.004 31.999,32.004 42.99,203.012 32.001,0.002 2.997,115.01 34.998,132.011 131.994,9.989 -31.997,25.006 -24.999,-1.999 -33.002,42 -52.007,182.994 -10.014,149.985 13.252,89.956 z "/>
<path fme:OBJECTID="2" fme:SHAPE_AREA="216411684.461332" fme:SHAPE_LEN="111596.673427569" fme:NO_CANTON="0" fme:NOM_MIN="Lac de Neuchâtel" fme:NOM_MAJ="LAC DE NEUCHÂTEL" fme:NO_DIS_FED="0" fme:NO_COM_FED="0" fme:NO_COM_CAN="0" fme:NO_DIS_CAN="0" d="M 63184.3,87327.4 l 5.418,3.894 -22.002,68.002 9.999,10.001 27,6.999 58.002,-37.002 87.001,11.999 75.001,-5.002 8,-17 37,9.999 10,22.001 10.001,-15.001 23,3 55,52.001 36.999,105.002 125.001,103.001 -2,17 -30.001,10.001 -10.001,45.002 11.999,65.001 -75.002,20.002 53,55.001 -10.003,20.001 51.999,55 58.002,30 21.998,35 15.002,-5 80.002,53 52.999,52 -5.002,15.001 47.003,14.999 22.997,48.001 97.005,36.999 24.999,28 48.005,-5.001 139.007,155.391 125.718,87.432 150.603,66.347 257.051,189.917 217.567,79.482 99.152,57.81 128.929,183.782 52.948,33.345 290.836,60.481 289.391,38.41 81.621,-7.633 70.723,-27.595 65.275,-37.577 79.089,-83.699 268.877,-531.301 65.442,-32.509 269.748,-43.986 141.615,-50.124 94.763,-74.036 41.759,-71.975 35.001,-12 35.002,-75.004 57.002,-45.002 130.005,-50.004 165.006,11.999 138.004,43.001 60.001,-8 -1,7 20.001,58.003 85.003,72.004 63.001,-5 27.658,54.768 36.025,22.251 196.02,34.967 149.399,-5.298 80.527,-38.145 30.385,-35.541 5,-195.011 -158.005,-178.01 73.002,-52.003 -18,-28.001 50.001,18.001 25.001,-8.001 48.001,30.002 27.001,55.003 80.002,43.003 20.001,45.002 75.002,40.002 -10,32.002 55.001,30.002 3,48.002 30.001,15.001 7.001,27.002 38.001,33.001 -25.001,25.002 50.001,20.001 81.707,77.397 99.011,23.515 148.518,-11.138 45.794,-18.565 17.327,-44.557 -10.346,-81.655 40.002,-23.002 60.007,20 28.003,-10.001 27.001,-60.003 28.003,-22.002 65.006,-5.001 32.005,40.001 38.004,-5.001 27,-85.005 50.006,-0.001 18.002,-8 -10.002,-17.001 35.003,-13.001 35,17.999 -113.005,87.007 -10.001,20.001 10.001,3 110.005,-85.006 162.998,-163.014 -0.001,-20 -37.999,8.001 -119.998,137.011 69.998,-162.01 54.999,-8.003 83,40 5,-60.003 54.998,-75.006 -35,-32 -27.999,22.002 19.999,-25.002 -10,-30.001 13,-20.002 -13,-17 14.999,-40.002 107.998,-100.009 36.999,-68.004 53,-22.003 19.999,-88.005 51.999,-42.004 69.999,-115.007 14.999,-65.004 43,6.999 -58.001,-85.002 17.999,-35.003 62,-32.003 -10.001,-38.002 63,-40.004 14.999,-35.002 35,-12.002 24.999,-108.006 66.998,-97.006 -2,-30.001 70,1.998 -10,-82.003 35,-10.002 -3,-63.002 25,-17.002 -15.001,-28.001 43,-27.002 -8,-43.002 40,-27.001 5,-33.001 -7,-35.001 -55.001,-57.001 -15,-5 -15,20.001 -38,-13.001 -45,23.002 -15,-10 -5,-20.001 35,-40.001 -27.001,-23.001 -23,-72.001 -55,45.001 -67,7.002 -55.001,-67.002 32,-13.001 3,-32.001 -28,-15 -132.001,17.004 0,-40.002 -60,-1.999 -28,-18 38,-50.003 -43.001,-42.001 48,-5.001 -72,-70.002 -30,31.003 -2.227,-6.447 9.449,-2.761 -315.34,-220.305 -8.801,-40.91 106.372,-102.834 7.269,-92.392 -49.242,-21.299 -16.332,-88.641 -35.661,-8.829 53.198,-168.165 -76.383,-49.979 -3.452,-107.551 -53.853,-69.4 -63.235,-221.022 -32.081,21.331 -88.595,-142.921 -134.775,-89.078 -50.874,-148.151 -197.668,-144.897 -36.445,-213.523 -64.713,-50.679 -53.053,-124.191 -181.048,-173.168 -127.253,8.883 -55.643,-40.269 -45.193,-91.071 -17.52,19.781 -59.062,-39.129 26.12,-34.061 -56.633,-83.11 -113.787,-94.22 -160.432,-11.847 -43.485,44.723 -20.379,-20.351 32.403,-31.982 -37.169,-37.223 -33.844,34.973 13.786,-107.369 -122.901,-71.835 10.632,-25.903 -77.32,-62.371 -83.972,-7.925 -42.489,-48.832 -86.543,-0.794 -134.718,-135.523 -84.96,-31.479 -85.418,-104.763 -231.735,-141.265 -141.288,-31.601 -67.511,47.651 -142.907,-52.302 -85.968,-112.634 -27.249,18.367 -178.805,-164.581 -45.059,9.029 -39.879,-50.81 -50.517,-8.799 -41.359,-81.225 -102.102,-75.611 -121.474,-41.786 -165.779,-187.163 -98.687,-350.275 -80.59,-103.745 -54.446,-16.212 -83.209,-21.072 -151.987,-232.239 -91.439,-23.059 -46.475,-94.184 -208.454,-97.265 -68.319,-132.69 -101.479,-59.346 -107.715,-144.332 -186.411,-67.604 -126.004,-146.158 -127.205,-35.966 -314.397,-314.621 -126.567,-83.588 -215.997,-208.726 -9.792,11.193 -30.258,34.586 -15.233,-0.614 -30.156,-46.534 -57.153,-7.396 55.392,-5.132 -0.356,-33.442 -21.168,-6.582 -32.552,19.211 -12.985,-36.11 -23.659,16.721 -16.543,-7.471 -9.25,-36.821 -70.619,-20.457 3.558,-12.452 -8.361,9.784 -86.095,-25.082 -59.768,158.493 91.254,137.681 68.039,47.534 -58.07,-16.89 -63.557,-68.096 -44.99,-79.336 -18.41,62.47 -18,-5 94.6,-332.557 -43.843,-101.82 -48.802,45.397 -29.509,-3.405 -21.563,-53.342 30.643,-6.809 6.81,-60.152 -62.422,-43.127 -4.54,-37.453 -64.691,-64.691 -83.985,5.674 -90.795,-73.77 -5.1,-62.766 -136.767,-97.26 -31.778,0 -70.366,-61.287 -155.486,-46.532 -63.556,-144.137 15.889,-41.992 -31.778,-6.81 -85.12,-82.85 -104.414,-37.453 -21.564,39.723 -33.869,-19.572 0.477,-73.459 -27.23,-66.987 -67.626,-44.27 -101.202,-20.538 -62.085,-46.291 -73.521,-15.249 -19.606,6.535 -3.268,21.784 -25.052,-1.633 -95.954,-94.601 -92.944,-43.279 -95.93,-104.47 -111.652,-54.039 -55.402,-107.15 64.76,-29.183 134.246,-115.346 232.524,-38.715 1.748,-15.228 -45.756,-30.747 -8.233,-23.461 -279.397,-185.854 -15.12,22.235 187.666,124.295 69.818,58.256 15.787,32.464 -150.977,23.124 -124.962,103.839 -123.117,59.567 7.836,-9.733 -2.319,-18.033 56.475,-21.817 -38.546,-101.781 10.801,-68.396 -44.031,-34.482 -12.118,-36.26 63.86,-53.721 54.432,-92.32 30.062,22.235 7.115,-9.072 -43.403,-32.553 -36.644,16.721 -223.538,-310.02 -15.417,-121.108 -236.647,-196.663 -652.636,-257.455 -284.588,-188.25 -11.801,-42.15 -61.97,-10.5 -103.489,41.28 -304.582,-185.168 -166.753,331.088 -115.421,-68.709 174.163,-303.199 -307.123,-228.583 -283.376,-339.759 -54.61,-7.869 -104.052,-167.766 -209.183,-37.579 -253.772,-189.988 24.22,-33.89 -23.312,-18.771 -24.514,29.962 -117.126,-92.611 -37.225,-82.623 19.067,-26.33 31.778,-9.08 -7.673,-97.54 -31.369,-15.953 -109.862,95.334 -9.079,-9.987 111.677,-117.125 -58.37,-110.265 -20,-29.999 -47.001,-3.999 -14.001,-18.999 12.001,-23 -38.632,-76.444 -63.456,-61.806 -51.096,-15.061 -7.264,-56.293 -141.64,-96.242 -50.845,-7.264 -98.058,-69.912 -59.034,-159.965 -76.004,-48.999 -13.503,-52.742 -37.189,-26.149 -63.92,-8.136 -34.284,-26.73 16.271,-26.73 -62.758,-90.649 18.014,-33.122 -47.068,-136.555 -34.865,-40.676 -41.257,-26.149 -24.987,12.203 -83.676,-85.42 -113.312,-36.027 -13.365,-22.082 -55.785,-19.176 -39.021,6.543 -37.101,-47.219 -1.162,-56.365 -32.541,-25.568 -81.933,-14.527 -77.866,-66.825 -10.459,-82.514 20.125,-48.672 -36.977,-19.896 -83.095,-119.123 -134.812,-95.879 -89.488,29.054 -5.229,-29.636 59.174,-39.204 -27.215,-96.189 9.844,-12.924 -21.171,-30.943 -47.362,-25.863 7.554,-45.325 -59.271,-66.825 -15.689,-9.878 -78.447,40.095 -73.798,0.581 -91.231,-56.714 1.395,-37.655 -147.364,-45.092 -76.62,2.248 -137.219,-209.58 -27.893,16.271 10.641,-28.423 -28.683,-14.231 -1.947,13.367 -11.157,-4.649 8.879,-15.611 -26.46,-9.339 -4.393,36.975 -14.67,4.52 -7.518,-19.334 15.686,-28.609 -20.902,-10.45 -71.108,9.961 -22.947,24.548 7.186,32.545 -15.546,-27.387 -13.875,2.846 -17.966,19.567 0.712,14.409 -30.24,-13.341 22.591,-8.361 -41.444,-11.383 47.927,4.488 12.551,-14.411 -24.841,-31.33 -50.932,-21.665 -49.276,-59.504 -52.269,-101.557 -81.231,-98.809 -69.499,-44.032 2.142,-56.409 90.207,-113.294 -8.213,-6.348 -34.999,38.001 -86.981,-55.217 17.206,20.677 -9.352,10.265 59.503,54.267 -33.798,39.748 -35.494,-19.557 -30.217,18.595 -69.149,-83.096 -36.027,15.109 -34.285,-20.919 -192.339,83.095 -22.663,-5.23 1.163,-15.108 86.581,-33.122 -27.311,-54.622 -40.676,19.757 -34.284,44.162 -13.365,-6.392 -1.743,-16.27 65.082,-54.041 -25.568,-59.852 11.622,-3.487 29.054,49.974 39.514,-11.041 109.467,-48.562 8.92,-68.009 -24.832,-53.687 -68.568,40.095 -40.676,-84.839 -127.258,71.474 29.054,135.974 12.784,8.135 -26.73,10.46 -38.933,-170.258 174.907,-83.096 -11.622,-45.906 -139.3,-135.04 -88.667,-40.787 -12.413,15.96 -67.387,-23.053 14.187,-120.587 -171.427,-110.982 -50.24,25.862 -37.24,-30.146 5.32,-47.88 -111.72,-69.161 -66.125,-28.678 -63,30.001 -185.003,-103.002 -85.001,-25 -25,-35.001 -55.001,-5 -15,-10 35,-10.001 -42,-2 -25.001,-18 4.999,-82.003 -88.895,-30.516 -133.001,-8.867 -125.906,-83.346 -167.204,-2.272 -49.143,43.058 -79.8,-23.053 -274.867,-175.56 -81.574,-129.454 -87.625,-19.99 -88.384,-83.194 -25.665,-49.37 -197.478,-155.684 -49.502,-74.802 -102.853,-88.667 -54.973,-15.96 -72.707,62.067 -175.434,-126.189 -5.037,-48.971 40.377,-55.374 -12.093,-36.77 -17.707,-0.298 -32.803,-40.804 -11.609,-37.185 -11.913,0.851 1.949,25.165 -45.872,5.594 -36.645,-35.366 20.088,-51.247 30.697,-12.222 -45.547,-40.413 -6.361,-30.215 -83.997,4.643 -119.425,-82.932 17.065,-49.353 29.653,-14.902 -109.642,-130.61 -52.758,-2.553 8.702,16.915 -21.862,47.088 -44.334,14.187 -35.466,-42.56 12.12,-51.797 -16.168,-29.784 -61.268,-32.335 -15.177,30.074 -55.404,-21.903 -32.541,-54.622 -61.595,-32.541 -2.905,-58.109 27.311,-2.905 -11.622,-38.352 -34.284,-12.203 -13.365,-83.676 -27.892,-44.744 -49.804,-27.692 -7.851,-25.963 19.789,-20.679 -13.563,-15.12 -26.228,27.601 -36.024,-34.502 30.004,-30.322 -27.311,-30.797 -49.973,-30.217 -19.757,15.69 -24.987,-6.392 -34.865,-36.028 -4.068,-36.027 11.041,-21.5 39.64,-11.981 -4.517,-30.574 -63.579,-48.639 -37.945,9.743 -6.816,-12.104 49.219,-43.472 143.195,-208.3 -31.663,-8.538 -2.312,24.904 -93.21,133.589 -53.899,-65.638 65.283,-84.139 80.759,-20.1 -87.163,5.692 -78.446,94.811 -9.25,13.697 67.596,73.643 -31.424,43.846 -71.564,-74.469 -58.108,25.567 -52.879,-37.189 -108.082,120.866 165.609,120.866 9.879,26.73 -60.433,-36.027 -138.299,-106.339 148.71,-182.631 -54.267,-75.974 -59.788,1.143 34.464,-37.892 -31.608,-11.805 5.902,27.038 -11.017,3.959 -27.602,-41.402 -15.98,13.801 -71.909,-27.602 -21.065,-22.517 -5.81,-58.835 -62.467,-55.93 -57.382,-9.442 -9.443,-20.338 13.801,-31.96 -31.234,-45.761 -2.905,-44.308 -31.234,-25.422 -81.352,-15.253 -5.811,15.979 21.791,36.318 -7.99,21.791 -21.79,7.264 -81.353,-61.741 -5.084,-21.791 18.885,-28.328 35.592,-5.81 -15.674,-37.984 -56.821,-39.466 -63.334,4.087 -31.96,-51.571 -20.338,0.726 -66.099,-58.835 0.727,-44.307 -25.423,10.895 -46.487,-17.433 -10.895,-58.108 10.636,-32.985 -26.791,-34.876 4.542,-4.474 -0.036,-0.591 1.119,-1.244 -1.265,-1.137 -226.409,-194.343 -156.269,-129.91 -71.637,-103.57 -107.837,-64.778 -46.887,-92.749 -119.758,-79.457 -31.33,-63.939 -329.586,-147.301 -149.428,-1.497 9.31,-28.75 -140.578,-30.436 -324.955,135.927 -34.14,-46.029 -108.318,25.483 -28.04,-39.34 20.16,45.75 -104.139,92.122 -184.957,288.183 -188.797,-2.636 -112.749,-123.136 -89.029,-21.498 -299.113,117.489 -243.899,46.863 -21.766,-23.424 -52.063,32.366 -147.9,-25.736 -42.962,-61.408 -183.505,-41.887 -320.292,70.06 -137.578,5.764 -247.469,-101.387 -10.656,-69.346 -36.178,-33.047 -101.368,-0.865 -20.319,-69.638 -271.987,-91.208 -78.08,1.506 -3.82,-31.311 -74.151,-37.698 -40.667,12.833 -24.98,-43.484 -255.621,-145.064 -25,-46.999 -906.996,-356.976 -315,-191.993 -128.001,-140.996 -91,-48.998 -215.999,-49.996 -260,-108.995 -152.002,-125.994 -308,-122.993 -75.003,-109.994 -177.998,-24.999 2.994,-128.992 -117.001,-62.997 -52.999,-2.999 -7.998,27.998 100,50.997 -560.345,-154.967 -212.339,-108.773 -57.799,-1.9 -41.486,78.435 -210.147,-103.428 -106.836,71.289 -23.683,81.142 -198.598,19.843 -40.091,-110.158 -56.119,91.2 -372.922,335.08 177.021,146.886 -181.495,270.338 -213.161,-101.105 -266.256,309.669 -38.969,92.03 -30.119,23.7 72.702,55.168 -55.619,92.999 -69.764,310.077 29.583,120.628 47.75,18.969 9.692,91.428 65.071,112.958 13.131,109.328 468.718,239.746 160.468,138.022 18.59,-20.171 13.82,39.171 292.497,204.442 84.519,103.392 24.95,-8.77 194.798,142.361 101.399,152.093 161.803,119.069 99.205,26.799 118.098,164.379 141.033,59.338 62.58,-70.001 322.203,119.335 -13.482,65.461 86.594,68.979 163.082,29.868 93.208,100.597 49.701,-99.851 33.14,20.629 -46.741,92.721 80.63,48.637 34.53,14.109 10.11,6.65 52.89,37.118 52.231,-37.141 181.4,94.224 58.671,-44.562 40.049,75.158 76.58,16.658 -51.261,89.071 19.439,44.409 52.68,14.498 220.669,190.552 43.991,-24.801 -11.69,-19 97.16,34.587 8.829,24.939 -66.48,48.762 17.069,72.279 188.889,160.203 32.427,218.817 144.78,113.284 384.301,121.072 87.999,131.805 386.6,253.239 224.248,89.967 77.008,60.958 10.316,-29.711 319.506,258.742 212.941,364.095 302.982,307.343 75.634,252.329 124.927,69.006 21.542,48.601 118.947,68.005 111.036,-15.585 34.907,82.933 226.326,165.753 212.337,87.236 336.976,41.479 175.908,146.128 115.538,252.299 357.559,166.972 18.539,109.16 97.629,106.958 436.869,182.111 117.389,80.888 107.769,125.337 183.749,115.807 185.968,251.686 38.649,147.799 -13.062,229.769 94.569,190.778 48.461,159.936 -1.924,173.043 46.999,81.999 28.001,-10 12,23 55,20.001 93,90.001 7,12.001 -25,-10.001 15,40.001 40,30.001 -7,13 80.002,97.002 42.001,28 -5,25.001 -27,-13.001 2,20.001 38,5 2.001,33 -30,10 60,7.001 -26.999,90.001 52.003,135.003 48,45 52.002,105.002 45.001,53.001 -6.999,45.001 50.001,70.001 0.001,72.002 44.999,150.002 22.002,-20 7.998,50.001 35.001,53.001 80.001,110.002 45.002,27.001 72.001,110.002 27.999,73.001 32.002,12 -27.003,13.001 17.001,22 30.002,-22 108.004,92.001 24.998,95.002 45.001,53.001 27.003,-28 48.003,0 20.001,18 12,-25 68.001,35 -18,25.001 45.001,32 32.999,-37 26.995,95.005 54.996,15.003 62.999,-25 61.997,-2.998 65,-37 47.998,2.002 11.989,110.008 114.993,93.007 68.005,99.998 22.003,70 23.001,11.999 -14.999,33.001 25.002,41.999 -15,13 25.001,7 22.002,37.999 18.004,110 52.003,39.999 -7,17 55.002,-0.001 -5,20 60.003,19.999 5.001,25 92.005,72.998 53.005,99.999 45.002,24.999 27,-23 18.002,25 12.001,37.999 -9.998,57 18.001,3 -13,25 15,0 15.002,27 10.003,84.999 47.998,99.998 64.998,52.997 69.999,16.998 99.996,92.996 126.997,51.996 42.999,44.998 184.989,259.99 61.997,67.997 102.997,74.996 74.997,91.997 206.991,309.993 72.997,82.998 4.999,29.999 116.995,191.995 69.997,62.999 232.992,99.999 101.997,17.001 8,22.999 51.998,27 42.999,-14.999 12,-26.999 129.998,51.999 13.001,24.999 -13,42.999 135.008,119.994 10,21.999 -20,25 15,7.999 28.001,-49.999 72.004,49.997 28.003,94.997 87.004,36.997 33.003,69.998 27.001,12.999 -32.001,37 17.001,12.999 30.001,-28 15.001,5 35.002,47.998 -2,31.999 30.002,22.998 27.001,2 25.001,-35 40.002,27.999 133.007,39.996 -20,25 10,4.999 247.013,61.994 23.001,34.998 137.008,69.995 188.011,157.992 82.004,16.998 158.008,-12.005 210.008,-93.003 50.002,-37 52.001,56.999 40.001,128 42.994,357.01 26.999,98.003 -10.001,42.001 7.999,28.001 22.001,10.001 -5,42 98.003,203.004 57.001,82.002 102.999,103.005 306.996,257.015 10,28 87.998,52.005 29.999,-55 92.001,10.002 65.001,33.001 0,17 -42.001,13.001 32,26.999 60.002,-40.001 48.001,-2.001 80.002,21.998 11.999,24.999 0,13 148.001,114.995 82.002,-23.002 128.002,49.996 122.004,-32.003 50,6.999 50.001,24.998 7.999,62.999 -30.001,37 42.001,-12 113.002,36.996 107,92.996 88.001,44.997 52.001,-0.001 10,41.999 55.004,20.001 38.006,45.003 72.007,23.002 33.003,-4.999 32.005,47.002 173.016,20.005 22.005,73.003 -14.998,60.002 10,27 -35.001,73.001 -5,122.001 20,75 35.001,48 -5.001,137.001 25,90.001 43,45.001 -13.001,13 7.998,65.002 64.996,210.006 70,45.001 4.998,80.002 36.998,60.001 -7.004,167.006 34.998,88.002 -30.003,157.005 2,68.001 -44.999,147.003 -12,113.002 16.999,32 -19.999,20.001 24.999,20 13,-30.001 51.999,240.005 -29.999,-12 13,32 -75,125.002 -14.999,75.002 5,30 14.999,-2 2,35.001 -15,17 33,-10 0,43.001 15,-5 -5,45.001 15,2 0,35 12,0 2.999,85.002 -43,63.001 127.999,70.001 12,-43 25,-17.001 -22,67.002 30,13 20,-10 -38,97.001 222.997,118.002 45,2.001 44.999,-57.001 5,-33.001 15,13.001 60,175.001 12,10 47.999,-27.998 126.999,109.999 0,25 -74.998,49.997 15.001,38 78,81.999 116.998,53.001 44.999,-2.999 34.999,-21.999 179.999,97.001 94.997,-21.998 339.996,137.003 15.001,48 27.999,15 39.998,-122.997 134.998,48.002 201.997,45.002 28,27 15.001,87.998 164.998,52.002 -8,34.999 59.999,20.001 19.999,-9.999 32.999,-94.998 62.001,34.999 245.005,44.995 165.002,124.998 200.002,227.999 25.001,15 63.001,-3.003 -18.001,75.004 43,85.003 102.002,64.998 30.001,-5.001 43,48 190.003,104.997 17,-3.001 73.001,68 25.001,15 12,-15.002 -5,12.001 45.001,9.998 18,28.001 57.001,6.998 20.001,-35.003 35,-20.003 90.002,62.999 -5.001,75.005 60.001,51.999 98.002,12.996 112.003,-50.006 25,-25.001 -1.999,-73 55.002,-15.002 132.003,24.998 203.003,135.011 47.002,-42.001 40.001,15.001 -2,12.001 -43.001,-20.002 -60.003,93.003 125.003,85.006 53.002,-83.002 -28.001,-35.002 85.002,70.005 0,18 53.001,32.003 65.002,-85.003 -60.001,-35.002 -20,2.999 10,-23.001 27.001,-4.999 85.002,30.003 270.004,213.015 130.002,65 403,136.997 50.001,-17.001 -68.003,90.004 -37.001,17.001 -15.002,48.002 16.999,47.002 65.001,9.999 8.001,-27.001 22,1.999 -20.002,43.002 183.001,49.999 36.585,-96.898 z "/>
<path fme:OBJECTID="3" fme:SHAPE_AREA="22823952.644503" fme:SHAPE_LEN="23294.5047985193" fme:NO_CANTON="0" fme:NOM_MIN="Lac de Morat" fme:NOM_MAJ="LAC DE MORAT" fme:NO_DIS_FED="0" fme:NO_COM_FED="0" fme:NO_COM_CAN="0" fme:NO_DIS_CAN="0" d="M 71485.5,80883.1 l -5.623,14.997 45,163.001 67,42 25,38 40,2 125,123 43,-3 260,157.999 72,22 28,-7 207,102 87.999,13 180,92 120,33 140,62 175,115 122,38 33,-30 20,60 125,60 60,12 110,73.001 57,11.999 225,115.001 190,143.005 133.001,62.006 95.002,14.997 0,-32 15,6.999 27.001,42.999 18,-5.001 80.002,59.997 52.001,6.999 58.002,59.997 152.001,39.998 260.001,190.001 148.003,83.001 47.001,10.001 58.002,47 125.003,53.001 50.001,-3 67.001,33 108.002,12 30.001,20.001 32.001,5 88.001,-42.001 55.001,-3 85.001,-32.001 20,12 2.001,55.001 40.001,13 -42.004,-258.004 57.001,-15 63.005,308.005 37,17 100.002,-50.001 75,-62.001 38,-70.001 55.001,-53.001 22,-57.001 105,-113.002 55,-85.001 -2,-40.001 30,-2 45.001,-65.001 -3.001,-18 33.001,-7 60,-70.002 20,-53.001 125.001,-150.002 165,-272.005 27,-10 64.999,-215.003 40,-58.001 0,-52.001 -37.002,-65.001 17,-40.001 -22,0 -30.001,-35.001 7,-15 43.001,-10 -45.002,-85.001 -80.002,-68.001 -13.001,-35.001 10,-15 -52.001,5 -90.002,-55.001 -43.001,-2 -47.001,-68.001 -110.003,-40 -25.001,-35.001 12,-25 -17,-22.001 -20,12.001 -30.001,-42.001 -55,-33 -380,-477.003 -98,-38 -85,-115.001 -75,-57 35,-20.001 8,-28 0,-32.001 -18,-20 -42.001,-27.999 -42.999,20 8,50 35,58.001 -45,-38 -15,-55.001 43.998,-64 -47.001,-67.998 -7,10 -18.001,-17.999 -12.001,-39.999 -28,-21.999 -37,7 -33.001,-66.998 -82.002,-57.998 -58,-16.999 -52.001,-57.998 -90.001,-54.998 -63.001,-4.998 -115.003,-39.996 -142.003,-136.994 -53.002,-79.998 23,-20.001 -205.005,-209.993 -88.002,-44.996 -55.001,-7.998 -132.003,-151.996 -50.001,11.998 -75,-55.004 -55,12.998 -68,-18.003 -217,-7.009 -70.001,29.998 -64.999,51.997 -25.001,-15.001 -53,9.998 -62,62.998 -85,4.996 -15,-13 -20,-22 -20,-75.001 -38,-30 -5,-35 48,10 32,-55.001 24.999,-210 -17.001,-113.001 -33,-32.002 -114.756,-219.574 -209.885,-223.049 -341.33,-252.75 -106.079,-15.61 -55.67,-49.18 -141.59,-4.668 -155.051,-90.568 -39.49,8.04 -50.301,-73.299 -148.151,-34.318 -64.58,-58.479 -92.72,12.481 -298.733,-299.756 -419.48,-29.315 -143.64,157.341 -47.42,-17.249 -72.991,-102.189 -94.71,-27.879 -124.93,-41.308 -287.51,128.213 -42.95,-23.029 -86.88,44.241 -199.619,111.012 -356.826,342.594 -499.993,716.009 -12.096,72.908 44.897,23.111 -10.827,56.767 55.015,77.687 -176.844,268.003 -17.629,135.02 330.663,250.715 161.49,51.569 97.77,80.68 -8.32,32.531 53.4,61.68 99.07,44.69 127.92,129.72 30.8,-8.48 101.62,97.69 -59.109,74.601 75.17,77.53 86.669,-68.591 69.82,94.02 -9.139,74.101 65.08,23.13 49.53,153.361 370.149,133.008 258.94,183.53 162.85,65.57 57.664,67.671 84.37,162.103 z "/>
<path fme:OBJECTID="4" fme:SHAPE_AREA="966800.741191" fme:SHAPE_LEN="11806.7323214975" fme:NO_CANTON="0" fme:NOM_MIN="Lac de l'Hongrin" fme:NOM_MAJ="LAC DE L'HONGRIN" fme:NO_DIS_FED="0" fme:NO_COM_FED="0" fme:NO_COM_CAN="0" fme:NO_DIS_CAN="0" d="M 70238.1,23539 l 5.269,-80.781 43.902,-98.341 -17.561,-14.048 35.122,-94.829 -57.951,-3.512 38.634,-42.147 -52.683,-10.536 5.268,-82.536 -40.39,-126.439 1.756,-101.853 -26.341,-133.463 -29.853,24.585 -26.342,356.487 -19.317,35.121 1.756,110.634 -14.048,47.415 -103.61,151.023 -110.633,54.439 -42.147,3.512 -201.95,-96.585 -38.634,-73.755 -101.853,-29.854 -26.342,-28.097 -15.805,10.536 -36.877,-33.366 -26.342,-63.219 -43.902,1.756 22.829,-96.585 -38.634,-98.341 -43.902,103.61 -68.488,19.317 -98.341,-72 -77.268,-12.293 -96.585,-56.195 -107.121,-70.243 -128.195,-138.732 -15.805,10.537 144,168.585 98.341,89.56 93.073,79.024 73.755,31.61 138.732,115.902 324.334,352.965 23.513,53.297 87.998,-18 71.998,52.999 15,52 124.996,52.999 34.999,56.999 2.999,49.999 -34.999,77.999 27.044,-20.325 100.908,34.25 63.442,46.587 176.227,32.369 49.631,53.227 33.088,-28.052 19.421,-61.14 89.912,-18.702 46.754,-31.649 75.526,-0.719 41.719,-29.491 2.877,-28.053 77.684,-51.07 7.912,-28.052 76.965,55.386 166.157,37.403 110.771,62.579 41,6.473 -7.193,36.684 14.386,25.895 33.807,-29.491 51.07,21.579 46.754,-2.158 51.789,85.596 18.762,72.027 29.462,33.882 -5.008,21.802 20.034,-2.652 102.234,71.005 -87.798,-154.972 -23.275,-137 168.819,-10.312 138.576,-31.885 12.947,-16.543 15.105,18.701 11.509,-18.701 84.157,-37.404 38.123,0 69.771,-41 89.912,-125.157 112.21,-27.333 48.912,25.895 35.292,-49.04 70.498,-47.763 117.192,-21.881 49.683,-43.791 -10.312,-9.46 -46.771,43.825 -121.454,24.636 -83.906,49.296 -8.064,28.484 -63.748,-18.132 -83.388,26.791 -59.615,-21.843 -42.116,7.603 -67.663,42.743 -37.196,45.298 -152.388,25.278 -151.726,55.071 -120.257,-67.434 -137.115,8.991 -4.496,-94.407 -33.717,21.354 -167.461,-44.956 -84.292,-43.832 -24.726,-113.514 2.248,-101.15 -109.018,137.115 -134.236,-48.117 -84.292,68.488 -31.61,-12.293 -14.049,24.585 -77.268,-36.878 -21.073,19.317 -63.219,-43.902 -36.878,8.781 -77.268,-66.732 -14.049,-49.17 z "/>
<path fme:OBJECTID="5" fme:SHAPE_AREA="283589.1050495" fme:SHAPE_LEN="2954.8971422099903" fme:NO_CANTON="0" fme:NOM_MIN="Lac du Vernex" fme:NOM_MAJ="LAC DU VERNEX" fme:NO_DIS_FED="0" fme:NO_COM_FED="0" fme:NO_COM_CAN="0" fme:NO_DIS_CAN="0" d="M 71530.6,28207.3 l 19.449,17.854 25.427,-10.487 88.924,33.02 153.026,27.966 175.688,93.653 113.885,24.211 176.695,-69.816 161.756,-200.686 28.012,-10.63 45.48,18.772 80.964,-20.804 84.066,15.431 56.114,-33.367 74.557,-16.09 -2.443,-23.559 -22.984,-9.338 -106.018,44.677 -91.364,-34.046 -66.656,10.774 -132.45,-20.112 -54.876,-48.986 -110.758,-21.117 -90.646,-53.727 -32.897,18.962 -69.816,-24.996 -111.476,39.074 -28.3,27.151 -96.249,4.884 -43.273,20.123 -60.635,39.118 -17.822,41.264 -24.69,5.836 -19.977,58.584 -72.182,12.884 -28.531,43.523 z "/>
<path fme:OBJECTID="6" fme:SHAPE_AREA="480857.6953555" fme:SHAPE_LEN="4154.2265990427" fme:NO_CANTON="0" fme:NOM_MIN="Lac de Bret" fme:NOM_MAJ="LAC DE BRET" fme:NO_DIS_FED="0" fme:NO_COM_FED="0" fme:NO_COM_CAN="0" fme:NO_DIS_CAN="0" d="M 48961.4,33085.2 l -108.059,38.447 -0.592,22.6 -19.858,-14.672 -23.296,66.855 28.968,233.425 100.73,226.904 -24.932,129.476 12.036,7.155 5.039,76.06 80.006,94.031 54.272,95.559 27.637,15.627 -10.108,17.776 11.851,41.826 109.443,84 28.764,185.071 194.042,181.187 31.586,53.359 57.106,7.495 9.459,-60.854 -53.002,-134.734 62.995,42.473 24.806,-0.536 -47.291,-128.131 90.548,57.608 35.085,2.532 8.602,-12.211 -63.595,-89.852 -106.51,-209.165 -7.495,-49.075 -65.889,-96.762 -91.331,-233.739 -58.177,-65.137 -36.22,-114.307 -55.506,-68.253 -57.106,-118.317 -82.804,-301.412 -42.442,-6.666 -18.762,24.357 z "/>
<path fme:OBJECTID="7" fme:SHAPE_AREA="8672938.8334665" fme:SHAPE_LEN="21008.8319437411" fme:NO_CANTON="0" fme:NOM_MIN="Lac de Joux" fme:NOM_MAJ="LAC DE JOUX" fme:NO_DIS_FED="0" fme:NO_COM_FED="0" fme:NO_COM_CAN="0" fme:NO_DIS_CAN="0" d="M 8765.76,45197.1 l -94.332,27.528 -49.918,37.806 -77.811,105.701 61.42,106.483 -35.922,18.442 -40.092,107.606 -11.922,96.55 29.242,72.636 94.135,63.986 221.879,72.718 76.723,60.065 118.992,258.992 -30.31,9.301 -12.508,40.092 13.31,66.231 93.494,62.863 105.758,3.096 100.335,48.033 32.104,-4.105 -25.091,13.62 1.034,18.976 37.523,33.829 55.012,111.255 29.969,24.961 43.435,-24.304 -44.527,43.051 28.188,121.903 59.117,108.218 44.256,55.176 62.156,7.8 7.225,21.184 25.825,4.764 55.297,111.254 52.795,57.393 207.486,119.22 38.919,38.755 95.245,5.337 72.911,156.251 109.367,115.279 145.602,118.398 145.387,28.163 30.873,126.364 219.063,157.154 69.627,70.12 193.609,81.861 52.303,67.574 161.423,124.721 60.412,17.845 73.177,-17.106 -1.724,74.144 31.201,53.616 154.115,117.167 26.932,43.763 131.947,114.212 69.462,84.653 54.848,26.11 41.465,46.309 186.788,107.157 263.079,199.104 180.8,86.869 123.408,105.344 234.91,144.099 176.74,76.314 21.303,31.247 169.141,103.045 194.924,149.764 160.766,83.339 93.521,96.887 51.809,32.35 22.334,36.867 173.246,117.085 117.907,108.464 362.094,276.538 31.365,57.475 131.575,102.759 108.671,126.58 173.981,122.482 6.543,30.277 59.015,46.698 1.54,22.195 -40.413,33.356 13.214,50.933 -10.031,14.217 24.529,12.596 3.207,40.412 31.945,25.659 70.304,16.036 96.667,-22.995 110.655,-71.043 85.693,-77.613 60.08,-99.111 -33.845,-123.01 -55.587,-73.65 -51.892,-29.148 -269.477,-294.438 -67.082,-115.854 -15.19,-1.478 5.009,-14.533 -62.32,-118.809 -40.068,-185.727 3.284,-158.714 21.266,-31.694 -26.11,-55.094 33.171,-149.107 29.97,7.636 16.832,-41.793 -52.139,-51.974 -81.34,-138.357 -61.198,-23.969 -95.327,19.705 -72.337,-6.568 -54.273,-33.336 -33.746,3.12 -28.327,-24.057 -79.681,-17.788 -22.379,-48.473 14.944,-53.452 -42.204,0.739 -0.492,-66.179 -37.195,-74.8 -180.554,-62.237 -156.661,-107.479 -79.727,-89.333 -135.724,-212.987 -132.849,-143.442 -94.342,-61.909 -74.061,-24.303 -67.821,-64.291 -108.053,-22.415 -36.374,12.234 -204.365,-255.108 -224.4,-128.909 -198.808,-214.82 -480.627,-431.605 -288.793,-129.762 -89.51,-72.281 -202.294,-30.629 22.852,-120.676 -28.064,-107.846 -73.768,-106.443 -73.568,-67.554 -267.01,-131.501 -137.255,-48.235 -121.632,-32.243 -194.285,4.217 -92.947,-31.048 14.188,-144.241 -22.976,-26.003 -96.22,-71.684 -29.187,-3.207 -72.806,31.111 -91.409,-42.497 -11.706,-29.829 17.547,-80.402 -17.708,-31.373 8.339,-37.044 -142.405,-116.426 -57.892,-18.282 -66.071,8.82 -13.952,49.874 -34.479,7.537 -125.406,-73.608 -88.362,-102.474 -30.309,-81.947 15.235,-22.612 -21.489,2.887 -18.122,-49.393 -58.213,-16.357 -0.801,-18.442 -31.111,-13.632 0.32,-47.949 -64.627,-67.675 -77.618,-34.478 3.528,-18.603 -69.278,-7.377 -22.291,24.536 0.321,56.93 -44.261,22.131 -20.527,31.592 -72.165,-7.537 -45.383,-23.895 -170.79,-164.375 -103.597,-155.716 -66.071,-50.515 -37.439,14.065 -33.306,-43.986 -24.879,15.083 z "/>
<path fme:OBJECTID="8" fme:SHAPE_AREA="637080.185947" fme:SHAPE_LEN="4480.86907263663" fme:NO_CANTON="0" fme:NOM_MIN="Lac Brenet" fme:NOM_MAJ="LAC BRENET" fme:NO_DIS_FED="0" fme:NO_COM_FED="0" fme:NO_COM_CAN="0" fme:NO_DIS_CAN="0" d="M 14833.6,51460.9 l -21.143,-9.366 -36.669,-68.933 24.857,-4.21 37.285,66.352 24.456,-11.426 22.852,-44.903 -12.784,-10.023 -22.697,44.302 -19.444,-8.019 -15.436,-43.299 14.834,-37.886 -22.451,-15.636 -76.423,-139.967 -56.833,-13.471 -24.376,17.191 -5.388,-33.356 -5.389,39.771 -51.06,36.82 -20.271,-37.077 3.208,48.88 -41.439,1.924 -10.648,-35.28 -32.074,51.573 -44.132,8.339 -22.58,40.284 4.106,32.587 52.493,166.003 23.053,207.474 69.409,204.968 125.864,191.628 86.871,66.712 79.989,115.754 181.293,133.836 148.943,74.964 63.582,65.081 122.5,83.879 18.977,-39.557 67.353,-42.85 27.455,-47.084 19.501,1.797 -15.857,-68.765 20.219,-2.669 -21.41,-7.636 -243.387,-340.833 -45.801,-37.205 -54.396,-14.113 11.418,-55.166 -53.37,-120.852 -4.021,-46.375 -78.68,-86.197 -97.261,-215.238 -38.549,-42.351 -56.549,-20.376 z "/>
</g></g></svg>