<?xml version="1.0" encoding="UTF-8" standalone="no"?>
<!DOCTYPE svg PUBLIC "-//W3C//DTD SVG 1.1//EN" "http://www.w3.org/Graphics/SVG/1.1/DTD/svg11-flat.dtd"
[
<!ATTLIST g xmlns:fme CDATA #FIXED "http://www.safe.com/fme" >
<!ATTLIST path fme:OBJECTID CDATA #IMPLIED fme:NOM_MAJ CDATA #IMPLIED fme:SHAPE_AREA CDATA #IMPLIED fme:NOM_MIN CDATA #IMPLIED fme:SHAPE_LEN CDATA #IMPLIED fme:NO_CANTON CDATA #IMPLIED fme:NO_DIS_FED CDATA #IMPLIED fme:NO_COM_FED CDATA #IMPLIED fme:NO_COM_CAN CDATA #IMPLIED fme:NO_DIS_CAN CDATA #IMPLIED >
<!ATTLIST ellipse fme:OBJECTID CDATA #IMPLIED fme:NOM_MAJ CDATA #IMPLIED fme:SHAPE_AREA CDATA #IMPLIED fme:NOM_MIN CDATA #IMPLIED fme:SHAPE_LEN CDATA #IMPLIED fme:NO_CANTON CDATA #IMPLIED fme:NO_DIS_FED CDATA #IMPLIED fme:NO_COM_FED CDATA #IMPLIED fme:NO_COM_CAN CDATA #IMPLIED fme:NO_DIS_CAN CDATA #IMPLIED >
<!ATTLIST text fme:OBJECTID CDATA #IMPLIED fme:NOM_MAJ CDATA #IMPLIED fme:SHAPE_AREA CDATA #IMPLIED fme:NOM_MIN CDATA #IMPLIED fme:SHAPE_LEN CDATA #IMPLIED fme:NO_CANTON CDATA #IMPLIED fme:NO_DIS_FED CDATA #IMPLIED fme:NO_COM_FED CDATA #IMPLIED fme:NO_COM_CAN CDATA #IMPLIED fme:NO_DIS_CAN CDATA #IMPLIED >
<!ATTLIST use fme:OBJECTID CDATA #IMPLIED fme:NOM_MAJ CDATA #IMPLIED fme:SHAPE_AREA CDATA #IMPLIED fme:NOM_MIN CDATA #IMPLIED fme:SHAPE_LEN CDATA #IMPLIED fme:NO_CANTON CDATA #IMPLIED fme:NO_DIS_FED CDATA #IMPLIED fme:NO_COM_FED CDATA #IMPLIED fme:NO_COM_CAN CDATA #IMPLIED fme:NO_DIS_CAN CDATA #IMPLIED >
]>
<svg xmlns="http://www.w3.org/2000/svg"  viewBox="-1139.45 -1139.45 93434.6 90436.8"><g xmlns:fme="http://www.safe.com/fme" fill="none" stroke="black" stroke-width="11.394464875000006" transform="translate(0,88157.9) scale(1, -1)">
<g id="MN95_OIT_TPR_LAD_GEN_CANTON" >
<path fme:OBJECTID="1" fme:SHAPE_AREA="2829694319.57937" fme:SHAPE_LEN="655742.501019395" fme:NO_CANTON="22" fme:NOM_MIN="Vaud" fme:NOM_MAJ="VAUD" fme:NO_DIS_FED="0" fme:NO_COM_FED="0" fme:NO_COM_CAN="0" fme:NO_DIS_CAN="0" d="M 70009.7,71206.5 l 3.213,-139.994 22.837,0.062 51.919,55.085 -77.969,84.847 z M 7994.09,18472.8 l -213.943,-415.177 343.233,-285.931 103.701,117.161 -24.402,312.808 102.771,86.274 77.841,185.925 160.51,-121.958 19.389,-50.97 294.538,-177.242 30.16,39.723 40.42,-57.901 214.829,236.789 -672.484,620.135 -128.29,-262.475 -163.86,101.998 -184.413,-329.159 z M 54834.4,62865.4 l -220.841,-444.734 -63.569,-207.146 -84.28,-109.776 -230.003,-160.09 -438.364,-437.899 -43.329,-175.447 -376.266,-53.11 -113.342,-43.898 -306.982,-525.276 59.034,-190.691 169.382,-209.989 314.435,-150.345 222.764,-160.262 109.871,-265.327 -131.463,-123.493 53.57,-89.52 109.813,-89.641 -20.65,-32.158 42.497,-26.906 -30.595,-41.952 86.059,-78.391 -32.901,-22.448 55.026,-40.74 25.109,-96.865 636.559,364.067 519.849,602.566 -83.651,63.43 80.681,101.16 -39.835,122.478 58.743,119.273 187.524,202.959 160.982,93.332 47.601,57.442 24.332,139.469 111.227,130.636 -85.962,59.922 93.12,185.985 -29.072,132.45 46.896,293.154 21.037,481.193 -57.058,3.772 79.295,49.466 40.703,116.767 41.177,30.598 -132.89,109.264 -124.096,23.695 -309.815,272.15 -18.539,-76.828 -189.08,-123.12 -234.703,220.824 z M 56386.5,61115.3 l -56.471,-213.45 -143.489,-119.921 59.649,-36.36 -94.793,-119.848 43.512,-37.607 -123.462,-129.265 -118.932,-49.035 10.432,-82.489 45.631,-24.064 -15.261,-49.613 209.973,-96.606 73.323,-82.295 -15.591,-44.241 75.486,-46.816 91.939,56.021 97.769,-23.263 26.611,47.977 246.973,-14.004 59.689,68.712 155.044,-70.319 203.634,133.232 131.125,-53.524 258.512,47.197 71.949,53.758 57.9,2.919 478.863,595.272 320.557,113.033 428.797,43.749 86.129,83.047 143.859,-92.814 104.42,43.997 70.219,-7.412 198.408,-187.154 70.07,17.208 135.259,-79.583 402.015,-338.051 45.46,-72.278 31.739,7.779 162.947,-194.402 69.209,46.099 365.815,-167.855 395.065,-46.427 198.817,-61.363 156.397,-100.782 65.411,133.03 138.402,-65.485 203.911,211.819 58.495,143.417 -191.736,102.395 111.309,170.699 -100.861,90.098 77.302,130.273 -27.09,18.9 1230.75,1857.18 -150.627,225.549 -339.414,232.558 105.383,219.916 -189.346,160.099 -16.72,-17.09 -131.008,48.03 -248.287,125.509 -121.748,162.02 -32.173,-9.131 -141.64,280.405 -104.105,10.849 -76.05,107.486 -53.373,-106.94 -128.949,31.184 -23.4,-64.048 -98.707,-22.524 -14.091,-27.573 30.969,-39.201 -34.324,-8.59 -87.122,143.741 147.232,112.35 46.531,292.14 -239.31,171.474 -59.28,117.681 -0.54,176.829 -135.528,162.717 -217.632,29.325 24.675,131.786 91.816,138.741 -204.679,-174.544 -112.458,-2.048 -98.801,13.025 88.79,191.328 -88.473,-0.159 -88.307,-287.354 -65.95,-70.948 41.882,-48.669 155.653,26.178 0.919,-36.53 43.57,-7.089 -254.692,-383.084 -147.191,-121.186 142.057,-79.348 -371.663,-353.647 -306.462,-176.833 -371.039,-417.849 -192.952,-129.916 -85.767,-176.685 168.267,-74.218 -73.28,-92.338 -31.061,11.1 -40.207,-139.466 -159.496,48.81 -16.067,-109.758 74.974,-73.949 -280.198,-277.248 54.483,-77.469 -97.63,-59.377 -63.864,29.869 -92.024,-297.826 -321.364,-339.248 -135.692,-79.837 95.559,-238.803 -92.141,-51.048 10.213,-50.309 -56.83,-32.228 -218.233,49.349 -23.289,-33.499 -71.123,4.84 -92.235,-101.465 -101.009,-15.667 -21.798,-59.338 -134.587,-48.536 -146.836,164.68 -212.28,-190.437 -240.893,-117.706 -75.231,46.87 -34.749,207.618 -81.529,-1.119 -45.543,-148.438 -58.983,71.54 -54.08,13.23 z M 27644.1,63308.4 l 576.224,186.43 438.6,253.793 608.471,545.994 91.602,107.502 -111.6,42.401 46.197,394.697 52.301,46.101 754.506,675.792 258.862,102.718 -38.836,491.297 529.388,1121.25 -1785.8,1435.54 -270.573,1212.28 752.407,375.338 -89.473,907.972 290.711,967.538 1312.7,2049.68 406.133,-56.685 84.207,-334.591 319.065,-82.136 867.948,-70.378 2469.68,881.555 685.832,189.298 154.313,150.742 170.613,83.995 88.516,38.38 146.289,142.368 193.286,284.081 362.215,430.918 133.509,11.114 433.507,177.325 344.941,356.122 182.14,129.241 194.616,34.367 132.058,-22.223 63.522,58.456 212.674,39.331 225.991,159.273 750.176,459.059 1114.27,481.205 472.116,15.825 275.281,-94.69 124.978,8.331 608.044,332.411 618.707,242.449 950.162,-32.346 239.525,321.473 1181.03,1605.16 137.434,502.797 520.368,292.766 64.389,81.798 1048.14,705.196 872.821,377.106 314.725,167.971 2812.48,1143.43 -49.608,-253.92 14.152,-52.9 110.108,-177.74 139.263,-70.12 -222.064,-586.25 -263.433,-1105.32 13.308,-461.768 -86.683,-625.516 326.529,-79.97 428.551,-387.243 1017.19,-800.951 -170.566,-1138.17 151.326,-21.629 52.71,-104.789 -58.437,-153.119 -40.184,-317.907 -124.463,-285.567 -83.844,-310.897 -83.896,-139.669 -142.314,-102.73 -49.306,-244.888 -56.867,-121.929 66.469,-45.929 97.116,128.079 411.281,320.882 807.456,-101.332 94.975,-58.858 259.31,-19.125 -98.318,-194.335 8.821,-194.588 -56.285,-191.016 -98.841,-185.693 -28.578,29.726 18.282,-27.869 -257.166,-168.496 -75.571,-108.052 -143.078,-94.538 -463.826,-199.348 -69.492,-88.849 5.73,-79.966 -64.801,-65.885 -306.289,-125.894 -132.108,-263.959 -174.33,-142.244 -103.114,-42.267 -111.398,30.094 -60.823,-44.283 -26.579,14.477 -237.305,-90.652 -167.277,-116.838 -94.094,-132.006 -94.1,10.554 -164.584,-98.885 -137.792,-112.972 -45.366,-83.092 20.069,-50.101 -27.903,-15.893 -2.417,-71.976 -302.982,-307.343 -212.941,-364.095 -319.506,-258.742 -10.316,29.711 -77.008,-60.958 -224.248,-89.967 -386.6,-253.239 -87.999,-131.805 -384.301,-121.072 -144.78,-113.284 -32.427,-218.817 -188.889,-160.203 -17.069,-72.279 66.48,-48.762 -8.829,-24.939 -97.16,-34.587 11.69,19 -43.991,24.801 -220.669,-190.552 -52.68,-14.498 -19.439,-44.409 51.261,-89.071 -76.58,-16.658 -40.049,-75.158 -58.671,44.562 -181.4,-94.224 -52.231,37.141 -52.89,-37.118 -10.11,-6.65 -34.53,-14.109 -80.63,-48.637 46.741,-92.721 -33.14,-20.629 -49.701,99.851 -93.208,-100.597 -163.082,-29.868 -86.594,-68.979 13.482,-65.461 -322.203,-119.335 -62.58,70.001 -141.033,-59.338 -118.098,-164.379 -99.205,-26.799 -161.803,-119.069 -101.399,-152.093 -194.798,-142.361 -24.95,8.77 -84.519,-103.392 -292.497,-204.442 -13.82,-39.171 -18.59,20.171 -160.468,-138.022 -468.718,-239.746 -13.131,-109.328 -65.071,-112.958 -9.692,-91.428 -47.75,-18.969 -29.583,-120.628 69.764,-310.077 55.619,-92.999 -72.702,-55.168 30.119,-23.7 38.969,-92.03 272.744,-322.863 93.414,71.739 106.886,8.694 65.43,-150.502 130.317,-142.48 -152.026,-124.514 307.223,-278.528 42.16,16.008 -6.225,-64.702 53.009,-64.92 40.091,110.158 198.335,-23.689 7.167,-73.132 84.75,-69.004 66.904,-13.106 181.068,101.636 42.526,-69.986 57.799,1.9 212.339,108.773 560.345,154.967 -100,-50.997 7.998,-27.998 52.999,2.999 117.001,62.997 -2.994,128.992 177.998,24.999 75.003,109.994 308,122.993 152.002,125.994 260,108.995 215.999,49.996 91,48.998 128.001,140.996 315,191.993 906.996,356.976 25,46.999 255.621,145.064 24.98,43.484 40.667,-12.833 74.151,37.698 3.82,31.311 78.08,-1.506 271.987,91.208 20.319,69.638 101.368,0.865 36.178,33.047 10.656,69.346 247.469,101.387 137.578,-5.764 320.292,-70.06 183.505,41.887 42.962,61.408 147.9,25.736 52.063,-32.366 21.766,23.424 243.899,-46.863 299.113,-117.489 89.029,21.498 112.749,123.136 188.797,2.636 184.957,-288.183 104.139,-92.122 -20.16,-45.75 28.04,39.34 108.318,-25.483 34.14,46.029 324.955,-135.927 140.578,30.436 -9.31,28.75 149.428,1.497 329.586,147.301 31.33,63.939 119.758,79.457 46.887,92.749 107.837,64.778 71.637,103.57 156.269,129.91 358.894,-336.489 77.882,-119.376 286.831,-252.775 150.469,-217.613 156.647,82.49 205.38,165.2 283.528,-360.777 -88.177,-97.975 41.196,-35.949 -622.404,-495.829 -202.12,-458.223 86.92,-71.982 240.768,248.533 41.363,139.401 40.573,-41.748 130.377,125.263 87.313,-90.884 -32.381,-31.149 123.04,-136.492 34.711,11.779 308.535,-316.246 240.756,-300.634 367.949,-314.046 147.735,185.592 92.396,-81.556 195.141,141.686 49.01,-23.991 31.12,81.729 305.849,-232.881 41.06,17.339 319.346,-387.352 -44.021,-64.889 32.919,-39.911 -67.96,-43.549 46.039,-66.61 95.11,30.098 86.608,-82.421 96.639,-14.092 75.77,83.408 75.569,-41.891 -14.83,-51.189 191.487,-113.233 143.437,-130.253 189.646,-298.711 207.112,419.574 381.286,-234.905 249.457,171.068 -61.762,87.489 50.362,29 24.86,-20.78 52.722,134.749 56.871,-14.51 60.302,223.488 62.472,98.929 281.757,-250.99 69.132,15.5 167.014,138.518 70.152,122.119 101.203,-35.15 59.982,121.139 91.442,37.509 -26.771,61.98 50.442,28.939 -118.703,98.83 182.871,201.496 73.832,-67.921 292.399,141.472 207.669,158.606 258.154,-252.003 45.45,38.58 53.501,-91.421 6.141,-97.659 -153.849,-136.374 69.312,-85.45 -28.62,-21.279 103.532,-122.08 311.454,-170.893 110.19,1.628 8.611,-50.452 61.691,-56.967 117.151,-58.841 63.469,65.497 134.943,-159.509 214.654,-156.202 103.089,47.608 74.27,-2.292 -1.348,-115.368 257.278,163.443 10.041,-22.01 390.48,184.229 162.521,-17.659 300.493,-94.088 63.668,200.646 213.771,27.419 154.17,76.166 -52.663,170.929 333.772,33.66 118.902,-42.117 176.717,251.665 180.832,-31.757 20.161,-40.897 -134.06,-128.263 208.876,-257.853 127.457,231.916 214.383,146.188 119.863,156.389 17.54,86.356 -42.963,193.278 2.351,209.102 140.714,202.059 182.956,445.407 23.716,224.856 386.977,199.391 90.094,301.806 208.573,148.759 69.658,85.37 45.608,227.935 -60.219,102.063 -196.101,124.086 -54.833,168.917 -378.035,-38.037 -187.405,210.142 -210.941,-144.448 -188.178,-203.99 76.07,-84.477 -342.927,-389.324 -315.415,211.475 -175.748,67.171 27.592,36.449 -23.108,60.273 165.119,173.222 290.873,496.203 -101.129,178.556 -75.1,235.474 85.481,131.847 -155.511,23.944 134.367,142.868 -65.411,51.757 -9.985,63.472 -49.51,-6.989 -209.787,581.619 43.726,207.036 99.213,44.339 -56.483,33.647 27.056,73.511 48.82,23.896 37.193,625.188 244.25,484.541 -29.436,22.233 787.516,1029.76 783.294,569.196 -51.769,73.201 -82.478,116.553 -129.921,-43.649 -224.611,548.785 -131.911,-45.967 -70.847,192.271 -118.55,-35.987 -162.346,307.753 -73.609,22.181 -86.401,-38.148 -212.075,322.994 -1254.5,-514.37 -43.757,168.882 -116.721,-63.589 -41.237,140.983 -145.697,170.424 358.913,103.086 145.622,125.188 174.109,-75.943 214.97,121.254 131.781,120.227 167.3,29.096 156.99,73.926 168.827,-263.663 366.171,178.712 -54.139,82.611 395.591,198.827 -771.28,1038.41 -294.383,-220.636 -122.306,191.05 -128.331,-99.776 -195.204,301.811 -33.03,-24.269 -106.917,164.83 -66.021,-60.658 -79.857,122.871 -68.062,-99.428 -133.455,218.75 -170.316,148.082 104.052,167.766 54.61,7.869 283.376,339.759 307.123,228.583 -174.163,303.199 115.421,68.709 166.753,-331.088 304.582,185.168 103.489,-41.28 61.97,10.5 11.801,42.15 284.588,188.25 652.636,257.455 236.647,196.663 15.417,121.108 101.731,-124.219 133.994,-42.751 135.63,-129.07 -101.017,-178.675 -52.499,-12.979 -20.818,-42.258 -38.449,16.5 -23.598,-56.748 -40.36,17.64 7.711,-34.449 -112.275,-79.656 8.701,-30.209 -132.835,-62.447 52.774,-212.644 112.23,-84.089 182.685,14.827 73.696,57.617 163.219,-107.229 130.086,17.128 216.51,-418.891 180.47,130.004 91.174,-230.347 -38.104,-81.078 34.913,-53.94 145.063,-67.771 44.328,-126.019 -39.58,-38.259 26.991,-53.371 107.372,-71.991 183.434,-50.031 216.427,-454.373 234.859,-150.033 -35.761,-32.56 90.878,-147.112 -144.283,-24.078 41.318,-110.061 57.911,19.739 21.08,-39.09 139.964,82.409 31.308,-96.54 266.612,-417.604 177.807,72.336 350.703,-674.901 348.522,214.489 -390.781,654.975 51.363,57.12 -205.882,401.597 -79.014,-13.483 -157.233,163.157 46.326,54.441 -118.515,256.411 189.662,113.868 118.496,177.895 90.535,-143.865 199.789,101.332 32.32,-36.809 359.898,187.405 -54.425,151.774 259.754,92.876 171.264,-330.267 28.056,-31.504 45.424,28.629 57.024,-12.349 196.251,-239.298 647.136,-962.275 -226.497,-265.53 40.639,-35.438 -286.656,-318.781 -198.794,-171.705 -70.819,-59.415 -177.449,-581.515 275.906,-280.63 -213.298,-338.864 113.639,-188.358 -115.997,-154.546 -19.13,-222.589 23.885,10.79 193.904,-194.951 -89.053,-140.59 166.02,-139.353 73.053,78.674 35.153,-42.703 116.702,74.535 193.936,-241.294 -25.549,-18.58 21.407,-35.432 55.851,38.422 76.124,-93.653 -97.19,-87.788 80.483,-78.531 -189.058,-222.907 -123.985,108.781 -98.733,-134.57 239.591,-222.625 -15.315,-38.744 72.374,-34.708 -28.159,-149.606 -48.926,-73.889 10.629,-48.824 474.049,-175.315 35.207,-140.751 -68.807,-97.31 32.525,-70.21 -200.055,-249.821 -14.597,-204.215 -126.86,-109.699 -56.166,-97.029 -104.476,-71.867 -21.47,-49.271 -13.023,15.403 -11.624,-142.795 -40.646,-37.95 -190.149,35.255 -148.68,79.653 -419.759,18.933 -134.206,187.326 -76.971,-89.842 -66.186,16.765 -40.119,83.675 -65.13,-0.808 -24.608,105.706 -99.998,97.518 5.072,47.752 -197.23,67.149 -1.808,71.274 -38.16,-1.719 -239.171,-352.683 -5.434,-61.321 -75.33,-78.601 -206.881,-493.876 -24.931,-58.611 171.947,-113.203 -198.066,-186.149 -80.904,-128.38 88.515,-208.102 123.007,-93.661 -115.623,-106.21 78.637,-89.661 2.368,-71.471 288.193,-286.104 38.989,-51.85 -13.821,-36.94 125.457,-115.462 -94.283,-101.73 244.164,-204.573 -92.632,-102.19 37.198,-76.08 -283.748,-207.889 -260.11,-327.225 -55.581,-146.139 -93.799,-29.529 -71.56,-139.058 68.898,-95.601 -38.92,-110.579 35.119,-68.619 -33.64,-46.51 167.262,-25.077 -109.357,-64.176 26.25,-158.51 -50.196,-94.735 -196.931,-85.16 -214.58,-161.027 -110.453,-269.29 -68.15,34.96 -126.091,-5.969 -31.748,70.231 -109.808,98.873 -136.931,-72.439 -34.58,34.071 -126.271,-71.009 -54.65,-48.5 -135.181,-251.449 -47.421,75.911 -47.27,-29.43 -38.332,-193.742 -58.376,-89.365 20.477,-7.692 -235.927,-224.144 -36.063,37.728 -157.507,-168.635 116.294,-79.34 -141.049,-242.334 150.592,-59.156 59.127,72.088 100.105,-122.814 -335.044,-227.124 -608.183,-826.3 -226.32,-237.399 -230.699,143.615 80.111,65.07 -51.895,93.337 -70.161,-63.699 -159.113,83.386 -218.665,-186.909 -254.993,-394.566 -3.302,-27.799 182.01,-133.134 -127.568,-138.985 28.781,-63.253 33.36,11.301 29.41,-29.311 27.24,-87.471 97.628,146.853 223.361,-148.286 148.507,148.675 71.331,-39.481 -7.13,-31.822 154.062,-198.698 -5.559,-60.992 39.87,-38.832 124.334,35.177 45.43,43.67 156.774,22.075 188.806,120.286 287.864,94.451 340.02,-410.553 59.811,-6.041 166.828,-111.66 4.333,-108.53 115.07,-310.188 117.574,-64.308 -122.685,-392.267 -205.416,-281.21 -58.381,-130.573 -14.545,-135.186 -71.369,-85.367 120.312,-165.943 -20.434,-51.245 -566.942,-535.892 -512.194,-592.704 -125.747,-231.272 -53.012,-118.108 -46.649,24.62 -65.732,-87.268 -62.962,-143.898 -41.788,108.089 -53.038,40.111 -91.793,-158.308 -298.969,-75.915 -334.754,-338.814 -158.511,-108.207 -34.949,34.16 -268.555,-304.264 -227.427,-328.774 -117.214,-231.567 -36,18.56 -129.181,-105.487 -163.907,-329.315 159.465,-144.832 -220.538,-424.844 24.969,-30.58 -55.931,-80.759 33.598,-42.26 -21.89,-35.83 -134.044,-206.436 -129.308,50.071 -100.783,-149.367 -36.523,-132.269 -81.28,-6.238 -106.603,-189.508 -205.289,6.274 -440.15,-576.21 -168.541,-167.649 -183.052,174.084 -168.827,96.507 -159.558,-128.07 -100.052,-201.638 13.825,-164.377 -202.487,-34.781 97.354,-449.51 47.797,-58.219 261.079,-166.383 69.749,12.921 207.989,-199.326 -324.882,-434.489 -241.702,-505.171 300.053,-201.672 -83.473,-94.517 56.549,-150.133 -164.856,-201.644 -24.03,16.701 -64.782,-70.538 -56.141,35.163 -73.812,-41.458 -276.799,176.077 -57.322,-112.308 -140.841,-99.45 -11.912,-74.149 -242.519,-209.868 -633.21,330.308 -73.84,-78.135 -100.534,77.25 -58.687,52.52 150.831,221.758 -149.585,0.334 -52.107,47.83 25.75,37.748 -261.778,109.994 -16.542,-74.757 -52.707,26.611 -93.119,-73.185 -219.931,85.853 -154.863,-265.786 -188.991,82.613 -96.561,-65.657 -135.021,-181.541 -390.578,-722.144 -277.818,-282.253 27.366,-81.881 60.606,-7.252 4.311,-71.111 -181.513,-44.754 -119.482,10.734 -26.018,128.851 -59.597,101.042 -115.05,-35.576 -60.24,57.262 3.665,70.27 -28.547,4.271 -13.52,-27.61 -157.422,6.144 -140.4,47.114 -223.841,-90.625 -138.201,-95.217 -236.27,32.916 -30.38,-62.898 17.239,-88.518 105.485,-62.227 34.082,-76.977 232.345,-101.587 -33.287,-96.735 41.9,-32.307 -45.76,-82.689 -114.381,50.233 -215.875,-511.02 -39.811,-346.969 -21.091,-91.677 -63.769,-50.735 -36.143,-226.726 108.593,-332.66 84.77,10.215 72.577,-38.627 15.593,-164.758 81.38,10.959 -1.991,-89.906 44.791,1.764 -38.498,-177.139 11.915,-120.423 111.957,-300.957 5.73,-125.54 -27.829,5.922 -59.437,-279.726 37.851,-291.418 -26.558,-46.049 -59.438,-19.847 88.559,-310.994 23.561,-296.322 38.689,-119.111 -122.223,-844.921 -34.559,-75.549 -277.583,-95.013 137.26,-695.557 78.528,-124.782 -12.919,-100.201 -91.087,-105.488 10.38,-84.419 -43.498,-58.109 37.909,4.93 -4.609,-79.019 -112.842,-280.817 21.919,-50.65 28.991,13.48 24.909,-27.041 -44.292,-106.759 22.157,-119.92 -22.443,-165.859 -75.233,-148.359 -143.963,-154.127 -22.983,-103.869 32.098,-122.149 -115.02,-206.272 186.877,-126.33 39.78,30.94 121.678,-56.82 170.842,57.218 13.425,65.319 63.539,-31.377 62.74,217.376 69.475,-26.832 49.217,142.566 233.293,-37.247 112.839,136.988 110.477,11.999 182.25,-83.331 -127.55,307.907 87.169,133.765 33.869,129.605 86.653,65.112 -5.874,190.024 368.933,-174.481 45.941,17.448 32.709,-57.94 48.158,-9.686 47.259,-86.345 66.534,-316.037 44.064,-5.806 66.291,-183.717 9.301,-99.759 246.792,52.509 137.973,-88.945 39.966,-89.795 427.019,-118.416 200.042,157.638 -37.129,84.069 224.557,162.817 18.267,82.873 62.31,48.787 116.269,249.087 61.686,27.334 50.047,-30.816 112.878,37.433 87.013,131.095 162.107,-72.084 54.243,-147.429 120.825,-95.974 42.909,-7.122 91.34,100.088 372.183,-211.476 189.272,-27.163 -22.99,-39.449 237.551,-150.321 17.47,37.229 87.729,-53.693 -13.556,-22.681 43.265,-39.031 82.945,-19.967 -44.012,-119.477 216.01,-120.941 287.41,-613.676 207.541,-522.156 382.893,237.402 384.693,-578.335 142.829,96.853 38.559,64.339 1.803,132.292 -31.53,46.861 133.738,296.545 162.739,-28.165 141.917,48.431 249.472,138.759 200.193,157.55 207.83,-78.738 15.701,19.576 57.377,-39.368 -103.07,-131.557 11.971,-95.03 -100.448,-107.362 68.509,-111.177 -95.593,-79.264 61.509,-168.249 198.825,-234.206 -121.158,-121.097 -126.884,-70.467 -112.542,2.772 -50.854,104.686 -93.2,-54.45 -25.885,-78.193 -58.503,-36.551 -2.668,67.683 -49.895,26.003 7.395,-37.21 -103.727,-102.084 -88.824,-26.175 29.755,-83.967 -18.895,-37.31 -46.134,59.771 -89.976,-28.506 -79.307,83.878 -29.578,-3.673 -279.22,-397.895 -328.384,-351.12 -1.784,-62.065 -90.848,-33.735 4.291,-60.372 -83.69,-49.316 -24.104,-122.532 -178.395,-92.925 -13.488,-74.609 -105.015,-105.364 -8.275,-52.525 -115.348,9.097 -22.923,-96.223 -239.62,-163.914 -13.722,-95.326 -58.465,-99.914 -114.813,-84.245 7.247,-38.065 -54.683,-88.268 -45.359,-10.257 -50.271,-68.861 -43.57,-92.549 33.119,-49.35 -78.04,-119.018 -9.125,-183.386 -99.136,24.437 -41.951,-453.371 -67.428,-44.475 -162,21.512 -21.35,104.632 42.528,108.887 -54.937,65.321 128.662,288.553 -146.069,41.034 -38.8,80.798 -55.682,-24.093 -43.34,23.253 28.176,138.239 -46.083,49.536 -23.127,97.062 -54.3,42.496 36.383,97.42 -47.395,64.312 -175.805,11.406 -38.387,-77.963 -69.354,-6.154 -33.738,39.34 -493.494,-235.902 -207.075,-64.808 -231.345,2.607 -170.683,-35.588 -12.168,-33.914 -255.204,16.803 -54.745,-14.689 -4.809,-31.058 -149.831,0.059 -67.358,39.096 -326.2,27.838 5.52,71.85 -36.931,79.479 239.651,395.765 -91.167,63.498 -97.749,2.751 17.694,-68.916 -63.238,-145.307 -52.58,-54.166 -44.898,1.108 7.9,-61.201 -39.69,-5.209 -154.101,-157.579 -31.34,-77.37 41.87,-50.47 -121.76,-37.849 -48.451,-113.73 -62.07,-7.349 33.32,-40.971 -32.12,-20.339 41.91,-30.241 -28.63,-59.839 -52.75,-21.78 3.659,-59.3 35.02,-12.53 -16.62,-64.21 -22.04,5.08 0.829,-79.66 -42.44,-33.74 33.45,-18.05 -50.28,-35.08 23.7,-43.5 -246.32,-407.071 -71.2,-69.19 14.659,-18.71 -54.529,-34.72 11.799,-64.801 -52.81,-57.12 -106.31,-93.37 95.83,-123.891 77.629,-46.761 12.44,-88.231 72.97,-24.6 79.869,-134.341 208.118,-545.165 344.848,-269.033 126.119,-227.012 277.099,-2.702 187.679,42.17 41.97,-69.471 133.418,-754.809 388.615,-622.75 319.279,-324.567 69.952,-30.126 128.178,55.376 36.852,-32.751 34.843,14.182 121.198,-168.601 45.789,-163.726 88.827,-36.049 642.99,-40.327 78.618,20.424 342.403,64.715 156.177,517.689 124.052,252.247 242.285,161.734 228.403,225.954 293.957,401.95 139.295,164.626 122.537,91.427 160.051,255.604 1051.31,738.089 107.392,128.718 78.907,-43.9 -1.411,-63.049 -41.431,-32.24 -6.785,-170.805 0.268,-190.355 40.804,-124.547 -127.558,-206.634 -63.43,-240.783 -18.745,-168.226 54.645,-170.136 58.079,29.099 29.787,95.338 58.037,61.668 165.01,105.776 51.913,139.276 78.064,75.327 -20.303,104.687 231.483,-10.361 92.05,-72.439 92.206,32.689 110.698,-46.66 75.667,16.639 81.909,-27.26 102.203,99.267 92.469,-63.889 39.516,-174.016 79.527,10.679 32.072,-71.138 74.889,-35.6 32.758,45.679 54.308,-13.85 90.882,-99.578 68.268,-6.06 81.451,-92.509 147.686,-68.501 67.807,44.399 54.209,-65.69 137.766,-34.442 183.401,-337.039 53.828,-18.491 94.266,38.939 130.506,-32.322 -23.919,-35.319 80.26,-121.15 77.027,10.709 37.359,-27.571 -29.528,-43.809 42.061,-108.04 238.195,-79.853 292.387,31.682 104.327,89.866 98.911,-48.212 32.83,-52.57 78.119,34.177 247.279,-22.256 78.767,70.537 82.83,3.998 48.678,72.438 75.141,-66.092 201.458,-16.795 -1.728,-75.249 95.79,-50.762 53.283,-143.16 280.321,-154.386 178.672,-145.564 97.31,-64.792 2.342,-70.939 76.94,-49.112 -19.089,-61.429 104.653,-162.491 214.121,-132.974 50.03,-2.292 47.611,-79.56 46.55,-12.821 103.258,42.006 103.443,-149.021 -15,-33.049 53.322,-73.151 -83.999,-48.087 36.781,-70.891 -20.988,-52.099 37.78,-42.22 -28.608,-52.439 11.261,-76.35 -39.838,-51.708 24.552,-149.639 88.443,-150.121 -6.006,-200.408 60.721,-73.221 38.123,-161.05 53.502,-76.751 298.093,-275.365 123.13,-61.523 -78.677,-102.977 -80.399,-30.537 -103.497,-107.246 -6.438,-87.58 78.631,-229.871 -60.817,-276.277 6.37,-66.65 60.47,-62.441 -25.548,-239.199 12.503,-357.809 76.79,-233.271 22.87,-36.991 172.949,-8.674 145.37,-233.954 397.298,-422.359 47.421,-170.271 53.879,-12.511 88.812,-298.242 -603.878,-994.733 -20.493,-193.722 330.454,1.235 339.2,90.534 195.296,90.529 68.563,101.129 73.427,9.448 159.374,100.684 46.332,67.026 91.354,29.439 195.354,142.678 1060.34,461.389 36.046,-64.347 17.391,-31.006 44.909,83.847 174.982,887.656 41.788,312.742 -72.379,97.067 190.915,253.974 163.887,175.496 147.46,94.472 120.824,273.67 818.05,869.362 237.172,169.541 136.652,44.541 211.641,179.743 321.982,412.872 288.632,102.954 357.323,271.604 150.943,225.039 366.726,196.138 324.938,-228.895 182.81,-66.499 400.598,269.18 364.869,-121.637 345.359,3.851 147.571,-98.379 703.066,166.842 180.561,-165.689 202.274,94.444 187.006,164.331 59.307,104.775 42.987,216.801 128.769,61.981 145.854,223.189 179.232,56.504 422.831,243.176 358.709,129.335 289.944,451.985 -14.981,42.478 355.354,165.156 339.215,328.311 68.817,109.878 64.985,499.502 509.864,999.393 104.478,527.621 155.811,69.139 101.273,107.802 409.968,-133.187 400.221,-42.19 386.887,223.06 124.692,123.472 360.205,240.868 94.855,85.635 104.051,37.161 613.32,517.351 116.9,39.999 384.203,467.692 255.801,253.796 117.602,186.197 95.299,-47.1 565.394,-495.801 19.5,-188.099 502.299,-790.2 174.3,138.197 251.013,372.254 35.586,28.744 40.708,-16.151 303.393,498.322 153.148,199.662 123.578,98.837 42.883,177.205 35.291,26.01 -13.877,34.324 64.686,98.421 76.851,47.103 81.149,108.4 145.895,85.563 215.623,80.729 56.22,62.583 101.904,-9.023 111.619,146.778 215.37,169.697 48.21,-31.96 3.949,-827.026 133.32,-94.93 289.619,-481.22 90.77,-47.011 53.24,-73.71 11.99,-132.419 99.276,-153.202 -17.466,-252.909 -83.039,-229.568 69.976,-111.541 45.963,-21.651 43.515,-115.63 -17.097,-195.42 78.62,-230.119 19.863,-373.597 34.519,-48.75 -31.302,-114.029 94.157,-131.01 -47.374,-248.087 29.766,-184.059 -54.52,-31.759 0.108,-116.789 -38.93,-37.58 -29.703,-136.208 25.938,-118.53 77.579,-44.34 -59.823,-168.128 27.048,-90.939 -57.31,-44.62 -2.131,-51.789 -57.491,-41.759 -29.271,-84.979 -22.932,-106.889 51.498,-87.47 -16.991,-66.939 -122.05,-106.399 1.142,-156.853 -40.999,-108.281 59.99,-72.721 -52.909,-30.9 4.38,-70.341 -60.349,-40.051 -36.568,-98.311 -66.239,-43.72 -10.749,-136.792 -92.409,-48.51 11.591,-102.852 -103.479,-50.23 -31.988,-87.942 -45.541,78.903 -56.489,-53.761 -57.829,12.421 -5.56,-49.671 -72.589,-33.941 -108.799,9.152 -189.428,-73.88 136.851,-78.974 90.991,-142.365 46.81,-530.088 -378.707,-32.657 -148.629,-35.839 -12.871,-46.95 -127.328,25.741 5.438,-95.53 -27.49,-4.11 -121.548,58.971 -114.228,5.951 61.489,-1045.77 177.388,-562.687 274.784,-692.087 -155.606,-429.785 70.098,-81.299 -71.805,-298.091 -194.681,-160.641 166.316,-98.961 122.596,-171.637 168.306,-123.4 -43.89,-40.318 -155.869,-22.467 -289.231,-190.439 80.536,-241.502 -66.701,-151.493 -38.201,-280.595 -41.199,-145.599 -198.898,-251.596 -284.799,-69.793 -440.898,-206.489 -614.098,-38.285 -84.521,18.722 -4.94,102.764 -69.136,4.009 -74.643,57.044 -122.757,2.607 -135.228,-71.377 -291.514,53.181 -191.13,-491.153 34.569,-284.406 504.674,-535.013 51.445,-292.042 206.635,-387.487 49.94,-76.423 210.782,-171.285 64.519,-184.514 204.459,-296.727 -78.06,-138.064 -150.791,-743.637 52.976,-216.602 9.633,-380.175 -246.229,-281.023 -59.01,-326.289 -167.09,-268.838 -31.472,-185.553 -218.772,-304.717 8.175,-120.177 -324.493,-668.806 -47.497,-486.265 748.554,-45.703 169.264,100.293 205.446,-105.362 -69.864,-114.434 31.696,-249.022 -31.559,-38.144 -15.797,-174.576 184.716,-138.186 47.781,-134.288 52.149,-383.442 409.657,-648.806 99.511,-16.833 158.687,49.493 513.884,325.376 -7.614,-105.664 113.54,-88.446 27.714,-99.222 153.52,-48.492 -42.143,-64.776 -130.71,-25.628 -125.058,-225.748 -137.563,19.681 -78.705,-72.24 -118.639,-13.881 -231.469,-104.187 293.621,-998.311 -99.312,-2147.82 -2506.39,-2810.47 11.578,-969.914 591.243,-673.551 -198.383,-6.31 -38.43,-76.141 73.121,-300.411 -67.658,3.02 3.069,-53.73 -78.128,-38.17 -208.432,15.009 -118.627,-93.85 -150.126,-64.191 -38.68,-81.46 80.546,-495.432 149.552,-557.941 -71.724,-300.692 -161.207,-145.32 -202.135,-97.431 -201.392,-7.511 -147.403,68.3 -80.268,-47.17 -115.931,-210.581 -75.89,-102.82 -90.399,-49.23 -196.262,-295.841 -35.473,-172.03 -230.078,-143.991 -187.241,-239.49 -71.111,-142.82 -256.83,-269.531 -99.869,-77.12 -414.069,-50.13 -269.086,-518.771 -37.443,-188.131 9.269,-184.703 -107.617,-136.003 10.289,-40.26 -408.657,-187.195 -73.798,-69.021 -106.827,-213.774 -122.996,-108.652 -449.786,-147.464 -667.85,76.394 -178.283,-143.162 -58.798,-381.193 -171.698,-352.95 44.632,-329.308 -38.824,-161.237 91.605,-159.511 -198.56,-73.902 -27.411,-64.589 -56.231,-31.347 7.228,-78.22 -100.712,-130.645 -211.423,-186.03 57.268,-76.561 -227.183,-181.011 -106.943,-155.074 0.338,-55.709 -212.002,-159.481 -16.351,-55.409 -135.001,-67.355 -31.681,-64.078 -357.681,-155.726 -159.954,-189.002 -257.809,-38.861 -204.476,-299.829 -402.065,-359.042 -190.759,-20.713 -58.641,-47.168 -152.19,-42.994 -117.781,-89.115 -272.589,-15.241 -30.971,-52.458 -63.58,-19.608 -40.989,5.582 2.201,42.029 -74.81,-7.917 -129.601,54.156 -91.64,88.357 -106.06,47.036 -561.891,-172.181 -253.007,-197.213 -89.424,-151.909 -145.674,-58.613 -111.821,-4.592 -276.728,-178.094 -60.723,-123.71 -178.093,-32.063 -313.289,-220.374 -175.314,-85.563 -155.402,3.706 -45.142,-57.53 6.31,-41.709 -254.176,-111.004 -267.914,-7.667 -63.663,-96.52 -68.499,109.558 -55.593,224.789 -197.448,208.17 -307.538,644.656 -358.732,433.265 -317.648,233.818 -247.587,115.21 -86.389,96.694 -30.6,104.339 -1.058,254.703 -242.838,1251.3 -68.837,159.93 -239.699,155.205 -90.398,168.401 -37.545,209.299 31.156,298.047 -13.594,277.948 -50.496,187.2 -132.098,162.252 -221.503,122.201 -92.401,86.68 -165.6,412.67 -355.16,470.553 -91.854,760.062 -53.491,143.08 -95.263,119.261 -396.008,295.106 -402.758,379.158 -405.068,488.979 -336.466,425.938 -112.082,228.103 -226.37,1196.43 -95.285,339.664 -123.586,173.74 -703,687.893 -636.546,370.128 -236.36,211.032 -113.366,198.224 -49.749,233.211 -5.368,450.393 -128.415,469.014 -61.903,434.121 -107.974,431.405 50.771,716.13 -36.794,305.826 -71.343,335.011 -82.943,180.512 -655.762,847.911 -135.729,118.036 -149.977,68.365 -146.079,19.938 -1040.19,-115.313 -251.564,71.528 -234.467,159.981 -150.812,184.429 -239.393,482.662 -193.752,314.02 -364.288,322.604 -113.836,218.848 9.174,276.617 290.365,607.783 87.313,347.529 -40.973,790.236 -46.95,260.21 -65.059,152.384 -337.897,367.43 -348.423,203.219 -129.64,108.733 -414.991,543.753 -469.026,435.751 -265.892,425.336 82.594,17.522 46.671,-77.962 124.892,-74.217 80.599,7.121 101.024,-90.61 110.577,-12.168 167.805,74.345 108.15,-5.966 251.516,170.885 15.458,-59.986 112.235,-25.439 225.39,130.952 231.817,-26.424 114.57,63.699 52.738,74.449 13.465,-66.35 86.222,-2.194 45.226,38.217 33.124,-22.777 -21.448,-24.047 41.074,7.331 28.578,33.495 55.02,-7.021 76.373,90.263 63.118,-148.476 129.04,4.605 107.38,-72.421 62.902,31.946 26.056,-38.454 23.72,38.496 131.775,10.291 90.844,-91.263 175.873,68.962 94.355,107.546 77.498,20.579 -4.319,45.819 34.7,-33.73 64.131,-0.581 3.519,48.625 48.661,-28.928 81.914,8.585 26.524,-34.661 122.999,47.652 147.475,-56.86 66.726,44.11 80.874,-83.913 104.172,-46.056 116.819,31.75 170.666,-24.747 90.615,-36.68 -7.516,-80.856 218.065,-45.425 78.629,122.555 -33.62,30.251 8.714,48.885 57.247,17.438 33.945,-50.418 -64.397,163.399 116.591,-13.66 67.749,-59.261 151.015,67.987 124.716,170.624 38.992,178.368 -20.264,233.099 162.876,102.672 150.317,194.913 105.636,214.104 34.812,145.419 -3.697,225.95 -38.927,147.191 -132.186,220.054 -83.13,16.86 -27.188,52.888 39.532,57.198 -21.705,389.859 -51.657,69.888 -70.468,24.658 -178.062,215.973 15.949,350.4 -72.152,104.227 0.91,79.258 -32.549,-25.02 -194.66,358.139 -78.687,66.887 -178.934,53.358 -229.083,-123.661 -96.867,3.259 -91.739,54.946 -159.408,174.392 66.107,308.378 -53.447,208.431 -93.05,145.483 -410.854,360.394 -162.062,73.271 -570.084,-149.222 -210.652,57.098 -32.091,-25.72 -290.267,216.735 -4.938,60.87 -75.34,30.099 -94.084,-61.04 -129.472,-7.221 -226.01,141.568 23.614,103.049 -36.957,123.429 -62.344,17.393 -33.777,56.778 -41.29,80.004 -153.262,61.362 -128.211,123.229 -95.792,-17.59 -165.453,37.522 -31.632,-65.089 -58.21,64.96 -74.462,11.681 -68.373,-39.549 -44.369,67.6 -78.332,6.821 -270.98,-73.075 -128.956,-95.378 -43.649,64.7 -6.437,122.369 -83.026,196.73 -49.492,8.021 -60.407,128.55 -104.631,69.221 -68.702,5.551 -175.313,493.735 -34.676,-2.78 -19.802,51.296 -480.778,93.188 -298.922,118.852 -40.99,-34.229 -406.702,202.27 -41.821,82.543 -7.409,302.519 -53.472,36.021 18.681,50.83 -126.003,187.69 34.901,64.17 -58.001,45.61 -89.942,95.111 -197.355,20.832 -60.752,-1.449 21.154,-27.128 -174.168,6.43 -223.436,-51.378 -31.338,46.561 -80.46,15.031 -99.923,156.105 -54.124,-15.223 -138.136,48.685 -112.172,-20.59 -48.719,22.521 -29.972,-29.01 -117.739,32.011 -215.7,36.542 0.138,-33.19 -26.47,7 -130.615,-111.29 -55.879,40.411 -16.647,70.391 66.1,-4.361 27.213,59.691 -134.202,-12.459 -322.837,127.505 -180.701,-14.819 -149,81.81 -753.779,263.038 -117.88,-6.171 -36.509,-40.24 -78.071,24.11 -201.132,-76.352 -377.104,88.649 -19.56,-22.92 -49.581,47.677 -714.72,319.263 -525.556,294.955 -161.838,124.271 -181.268,220.913 -163.968,89.871 -190.678,248.572 -93.339,58.701 -244.848,126.603 -73.159,77.72 -66.83,-3.879 -10.58,35.97 -111.979,70.411 -158.79,0.211 -57.78,-49.29 -41.78,18.891 -112.09,-46.85 -106.679,32.351 107.16,-10.661 -8.13,58.221 -99.979,19.791 -20.301,-36.42 -81.85,9.5 -8.21,26.789 -203.211,-47.168 -272.831,-251.644 -256.213,14.958 -92.32,-27.079 -110.628,43.686 -199.542,-46.551 -250.286,233.176 -320.038,219.521 -90.273,26.033 -304.087,322.326 -418.281,343.519 -461.992,268.21 -2.409,-24.729 -61.082,43.861 9.926,-29.042 -82.257,1.953 -247.241,123.966 -55.921,-59.129 -53.14,94.821 -78.98,17.452 -163.678,112.192 -275.976,33.713 -33.81,-63.789 -268.394,189.845 -62.339,83.498 -103.516,-7.763 -88.628,70.221 -91.17,-6.51 -208.156,-13.236 -84.675,-40.173 -81.181,38.476 -135.292,-8.66 -87.129,68.422 -46.391,-56.862 -176.041,65.659 -54.56,55.16 19,72.661 -55.831,26.125 -110.671,-30.577 -15.56,-49.751 -198.451,21.598 -4.37,61.97 -113.751,8.389 -104.611,-12.252 -125.773,-69.88 -226.7,63.556 -194.781,-41.864 -244.102,41.048 -209.012,-78.965 -4.4,-27.34 -146.352,21.59 0.91,46.453 -9.411,-47.348 -35.239,-12.237 -699.971,267.28 -197.623,-66.294 -40.299,30.84 -62.522,-10.172 -45.871,-76.464 91.211,-96.003 -144.122,-75.419 20.29,89.059 -87.66,70.512 -40.702,-134.102 -17.309,71.451 39.181,89.592 -196.357,179.943 -176.893,-74.285 10.273,60.754 -206.55,165.113 -87.051,-95.102 47.089,-71.662 -186.578,170.256 31.031,61.261 -77.774,66.59 -174.332,87.037 -276.692,53.484 -47.1,59.032 -42.21,-33.221 -8.172,98.411 -220.184,-4.601 -15.617,-107.09 37.666,-5.45 -35.126,-1.04 -4.252,-30.519 -216.635,73.7 -2.636,42.83 -100.398,40.65 22.483,79.84 -67.595,34.613 -229.774,252.829 -118.263,110.455 -276.749,165.681 -122.394,27.793 -131.152,-99.758 -92.769,-42.727 -37.549,19.432 -300.428,103.306 -282.136,-69.34 -140.187,-141.722 -63.56,-7.068 -40.5,-83.66 15.399,-30.741 -71.416,-25.591 -112.634,-140.325 -72.079,-25.558 -5.57,-37.961 -138.548,15.196 -456.89,-134.067 -246.455,-243.712 34.081,-48.301 -20.318,-44.452 -177.595,-130.882 -281.42,-34.357 -451.12,41.581 4.37,-26.081 -267.529,66.084 -44.31,-15.098 -4.94,28.781 -0.271,-58.852 -169.659,47.829 -28.79,-26.989 -271.961,-25.908 -39.84,-41.009 -25.09,-6.969 8.221,59.901 -96.481,-11.837 -156.971,54.004 -503.173,434.141 -402.173,280.384 -332.712,143.096 -261.882,61.086 -173.483,-114.642 -65.01,-10.378 -85.361,-12.607 -199.432,138.045 -156.812,-34.363 -131.961,-73.206 -236.769,-192.562 -95.614,-119.235 -27.335,-119.609 67.155,-85.044 -113.211,-221.695 -223.892,-182.471 -11.511,-80.091 51.058,-9.844 -208.664,-198.574 -113.15,-24.401 12.839,-47.94 -16.809,30.2 -56.419,-8.004 2.603,-21.772 -248.319,-84.776 -17.61,-25.428 -178.447,-6.135 -27.3,-84.141 -27.369,-8.711 -310.847,-440.661 -32.78,-115.742 -1.593,-407.162 -38.71,-90.711 -174.477,-76.946 -276.376,-71.274 -296.236,75.102 -198.863,-39.565 -205.122,-230.458 -281.792,-230.715 -129.981,-202.08 -56.046,-404.965 62.314,-274.297 -26.621,-30.63 -413.867,50.843 -102.231,-17.33 -226.212,-167.695 -55.39,-57.971 30.84,-31.371 -19.24,-17.14 -50.36,14.37 -52.931,-58.831 -49.443,-192.281 -532.307,-173.442 -156.233,-89.321 -372.795,-101.592 -508.996,-100.292 -234.582,-8.391 -390.095,-118.606 -290.735,-175.585 -287.076,-246.735 -319.656,-179.455 -34.81,-40.539 -29.053,-177.079 -451.867,-215.263 -514.064,10.405 -207.501,102.112 -140.484,-14.945 15.174,69.356 -91.4,120.601 27.76,-10.291 12.661,38.85 -100.771,-7.209 -24.541,-32.899 -153.399,201.421 -294.43,179.442 -128.751,54.501 -160.282,-72.428 -258.081,81.913 -237.252,18.972 -239.984,-116.577 -474.842,-130.245 -40.23,-51.14 -623.721,-47.474 -234.17,-91.858 -47.343,15.949 -2.777,-47.799 -140.401,55.341 -34.32,-37.6 -117.341,36.741 -109.19,-35.699 -38.621,18.23 -20.519,-33.41 41.02,-19.68 -18.6,-35.23 -166.54,-63.768 -81.5,-112.569 -58.06,-10.649 -258.048,-214.687 -128.198,-229.708 -36.57,-145.398 -43.689,19.06 -100.409,-212.027 -224.825,-255.871 -70.59,-48.38 -173.761,-26.009 -170.053,-173.89 -102.361,-57.09 -149.972,-204.99 -135.042,-71.81 -94.77,-11.589 -106.961,-65.25 -102.413,-245.591 -4.601,-137.031 6.29,-10.19 37.78,-20.96 -59.23,-4.4 -344.365,-443.39 -170.132,-131.84 -131.891,-214.29 11.449,-39.65 -16.86,13.31 -85.49,-83.41 -135.222,-189.619 -472.443,-291.014 -166.671,-41.728 -114.191,-116.119 46.87,-94.051 -25.55,-20.89 -112.831,-90.339 -57.71,-4.799 2.2,22.47 -20.24,-22.33 -36.66,43.011 -118.46,-1.488 -135.732,-152.729 -61.351,-240.821 45.337,-536.565 -48.011,-176.973 -275.401,-442.69 -342.021,-364.331 -41.381,-96.308 -4.941,-244.772 99.448,-362.722 -64.472,-223.401 10.61,-77.234 -81.231,-110.197 -221.359,-43.761 16.13,-23.391 -42.77,-1.13 -25.931,-69.57 -52.241,-170.981 -147.02,-218.042 -4.95,41.96 -44.74,-1.73 -44.9,-35.94 -228.942,14.011 -62.558,-41.502 144,-18.71 139.61,-73.09 53.899,33.78 3.29,74.485 33.351,8.607 -12.281,-67.832 -83.86,-97.61 -260.229,112.709 -215.349,-7.96 -0.06,42.54 -61.8,-1.87 45.13,21.51 -216.179,117.75 -470.868,36.121 -57.511,-83.43 -238.719,-124.09 -461.869,-358.912 -37.242,-87.69 -59.502,1.023 -76.154,-186.79 20.471,-128.184 -40.112,-46.929 23.703,-120.515 -61.465,105.117 -101.334,-42.205 -215.355,-304.597 -15.725,-49.097 -63.8,-5.27 -155.521,-159.418 -32.95,-85.869 -69.725,-61.394 -134.196,-47.191 -77.21,-98.149 -14.258,-233.555 -60.667,-131.654 -318.344,-427.114 -238.278,-223.246 -111.919,-115.592 -236.999,-122.883 -48.129,-89.992 -87.919,-51.771 -68.779,-135.954 -22.499,-150.645 -229.11,-173.86 -64.249,-320.537 -170.27,-91.56 -70.04,-220.963 -55.6,70.028 -32.029,-23.499 -98.64,37.16 -204.458,126.39 -193.714,32.49 -229.049,-51.289 -160.372,97.068 -18.513,106.719 -131.65,230.088 52.592,64.19 -50.84,77.189 11.791,42.43 -271.264,62.089 -468.148,-45.571 -117.801,26.14 -215.966,247.451 -291.178,209.727 -453.034,-237.071 -31.497,-66.411 168.741,-195.428 -399.17,-176.47 112.11,-396.22 185.179,-108.456 402.351,-132.274 227.448,-181.534 -29.231,-49.209 253.58,-136.186 59.82,-5.839 136.812,68.04 200.549,-172.595 149.372,26.621 115.07,-29.178 -143.97,-542.411 795.759,-556.988 46.502,92.762 152.012,-35.969 -15.09,-23.57 68.991,-34.985 -120.574,-170.122 -138.913,-126.64 5.869,-35.742 -1.85,-3.54 -60.362,-128.344 27.87,-24.212 -45.342,-101.893 44.749,-190.271 -53.552,-185.677 16.82,-25.702 -73.692,-91.762 -22.562,-127.785 -78.113,-130.283 0.47,-75.914 -19.651,8.912 -18.371,-72.213 -56.051,-65.731 -16.552,-148.776 -170.905,-413.34 24.37,-51.659 -41.056,25.321 -94.474,-119.943 -133.49,-292.344 -407.621,-297.693 -178.84,-257.683 -31.68,10.24 24.12,-18.001 -151.38,-278.49 -183.102,-191.052 -27.777,-148.377 -37.879,-6.429 26.23,-46.17 -12.268,-78.139 -27.41,16.901 -123.263,-153.774 -71.316,-174.355 -98.955,-127.565 -28.109,1.221 -5.649,-44.4 -129.634,-143.473 -10.969,-0.39 67.046,80.737 -42.678,-3.999 6.1,-32.3 -80.837,19.803 -250.024,-210.579 -73.04,-104.887 -19.354,-115.859 -259.006,54.619 -559.329,285.44 -476.984,167.864 -208.649,206.418 -755.201,429.542 4.354,74.772 -462.827,394.579 -82.773,139.034 9.514,42.625 -298.969,266.797 16.21,27.399 -139.026,145.141 52.874,98.453 -217.952,102.073 56.705,87.61 -65.841,55.793 24.76,57.779 -62.321,147.318 60.96,42.679 71.478,169.236 111.109,46.218 44.04,80.809 203.097,180.595 13.73,98.038 74.399,61.558 112.509,230.549 -10.04,51.528 170.499,42.785 -74.03,36.041 46.96,34.627 -37.14,38.04 150.967,152.9 -58.97,39.371 -9.871,102.76 117.437,127.461 99.319,-25.55 12.438,202.212 -147.52,90.76 31.799,67.721 56.95,13.63 -56.931,62.68 9.98,52.761 133.178,31.3 -125.429,60.23 15.629,56.121 65.659,-4.94 10.7,106.882 74.8,-60.231 68.139,138.053 188.898,45.232 100.279,64.051 37.39,-89.381 38.24,-6.51 40.319,42.101 -10.99,76.951 272.728,110.813 9.84,97.042 126.258,90.282 -3.16,96.662 68.05,73.782 12.21,65.151 -44.13,94.202 156.779,-27.1 70.269,108.682 152.96,74.421 -7.188,59.358 109.39,57.37 0.693,79.578 45.9,21.78 17.222,76.249 -72.895,140.096 50.113,105.838 19.845,160.197 44.14,23.34 -36.248,58.968 52.611,26.53 13.356,127.353 173.594,287.83 662.022,674.842 -11.189,193.855 -288.606,461.146 -198.308,182.622 -59.142,104.025 -101.574,44.4 -0.103,93.899 -28.322,24.438 29.25,66.114 -51.075,56.092 8.789,53.571 -25.748,-2.112 24.633,136.359 -98.669,63.871 10.953,41.569 -34.634,21.891 -36.575,-9.075 -26.533,-57.77 -84.057,-164.318 -172.399,102.291 -69.836,-118.08 -28.16,13.42 -11.43,-27.09 -284.849,15.99 -64.148,112.171 -156.588,127.542 -3.64,51.57 -907.021,970.427 -227.081,146.22 -1422.01,1130.83 7.169,-143.499 125.6,-159.621 -74.14,-44.23 -378.221,309.31 -187.382,-34.6 -55.26,23.99 -190.159,317.031 -38.381,8.88 -70.66,139.21 -121.04,133.81 -18.159,123.54 -56.521,54.39 19.981,133.6 -45.02,50.15 -63.36,-5.49 -17.5,124.619 -2297.95,691.824 -284.313,170.405 534.805,1005.81 259.763,311.44 59.999,422.443 732.747,802.81 132.641,145.398 66.19,337.616 -148.163,398.686 -439.178,332.21 -315.366,355.298 199.884,450.79 -261.625,258.576 42.27,398.693 -60.531,76.411 -21.43,144.061 316.706,208.63 1565.03,1521.7 165.594,356.44 376.253,1062.81 505.454,1101.8 211.557,600.091 682.555,866.24 1302.65,1483.05 433.353,-369.31 767.28,993.855 -370.333,292.441 630.528,649.206 -3483.6,3520.32 355.685,382.28 530.616,444.169 165.523,378.39 203.253,272.859 260.713,178.78 755.69,660.739 172.791,49.219 480.367,446.399 273.012,127.06 164.442,29.499 328.465,442.46 258.163,249.919 316.183,6.73 1055.26,614.567 63.711,268.9 -48.31,82.201 33.051,131.84 304.333,137.889 165.703,252.42 223.222,103.639 68.451,122.86 116.031,-35.93 218.463,143.919 117.921,133.41 87.271,26.53 16.091,45.26 -49.671,97.651 106.301,64.509 264.443,384.521 -81.351,102.031 351.184,190.199 114.932,-144.621 89.971,74.66 51.08,-8.091 43.641,36.74 14.72,82.851 35.34,-14.79 339.484,386.59 -5.67,105.111 203.592,70.949 88.251,-4.92 60.801,66.1 -18.071,73.96 -40.15,19.06 183.772,216.671 368.764,121.079 291.013,213.79 252.813,372.341 155.051,318.331 414.645,338.33 330.383,363.35 841.72,695.83 1089.74,980.05 58.64,212.921 63.291,-23.95 38.69,73.18 67.661,-1.24 21.18,56.57 -5.72,79.67 -118.582,30.011 28.86,275.341 523.316,339.1 242.503,199.5 231.452,349.791 285.464,69.039 518.755,188.569 234.861,153.481 119.28,-27.059 786.674,500.976 641.491,407.268 736.503,416.245 154.196,-27.807 1084.08,415.63 628.483,471.953 213.09,43.088 128.605,370.281 273.116,165.203 223.977,370.654 60.853,-34.864 18.447,-52.343 84.537,11.098 41.803,-42.784 45.064,17.742 75.156,-53.56 54.589,85.875 62.229,-19.282 12.504,60.497 41.098,-19.801 3.703,53.298 383.395,97.082 -22.664,563.08 -282.701,-0.722 175.725,118.252 94.15,44.692 108.897,-7.78 191.062,58.364 251.838,-78.015 58.141,-6.126 63.479,43.749 85.923,-23.564 238.988,52.616 58.459,28.213 12.82,53.181 338.45,353.127 203.052,430.581 -56.472,239.91 -79.462,126.383 -129.73,17.016 -4.709,101.115 527.199,568.354 360.622,127.856 77.246,135.389 189.638,-98.42 1053.07,285.177 z M 72988.2,78043.6 l -998.787,986.101 -532.776,595.135 -103.929,69.187 -244.958,382.376 -266.165,245.313 253.191,283.485 -204.601,179.19 439.024,507.496 -82.462,188.521 -93.759,85.349 -292.602,164.848 -179.83,57.651 -62.683,89.52 -126.462,-77.05 -171.373,-174.929 -67.352,81.771 -137.1,-73.023 -177.239,231.332 -160.448,29.567 -100.289,92.927 -65.013,4.7 -254.274,361.766 126.567,83.588 314.397,314.621 127.205,35.966 126.004,146.158 186.411,67.604 107.715,144.332 101.479,59.346 68.319,132.69 208.454,97.265 46.475,94.184 91.439,23.059 151.987,232.239 83.209,21.072 54.446,16.212 80.59,103.745 98.687,350.275 165.779,187.163 121.474,41.786 102.102,75.611 41.359,81.225 50.517,8.799 39.879,50.81 45.059,-9.029 178.805,164.581 27.249,-18.367 85.968,112.634 142.907,52.302 67.511,-47.651 141.288,31.601 231.735,141.265 85.418,104.763 84.96,31.479 134.718,135.523 86.543,0.794 42.489,48.832 83.972,7.925 77.32,62.371 -10.632,25.903 122.901,71.835 -13.786,107.369 33.844,-34.973 37.169,37.223 -32.403,31.982 20.379,20.351 43.485,-44.723 160.432,11.847 113.787,94.22 56.633,83.11 -26.12,34.061 59.062,39.129 17.52,-19.781 45.193,91.071 55.643,40.269 127.253,-8.883 181.048,173.168 53.053,124.191 64.713,50.679 36.445,213.523 197.668,144.897 50.874,148.151 134.775,89.078 88.595,142.921 32.081,-21.331 63.235,221.022 53.853,69.4 3.452,107.551 76.383,49.979 -53.198,168.165 35.661,8.829 16.332,88.641 49.242,21.299 -7.269,92.392 -106.372,102.834 8.801,40.91 1127.37,-338.384 307.169,-253.207 309.479,-181.875 209.909,-238.177 -215.031,-262.599 79.758,-219.487 -258.971,-149.525 130.619,-259.078 -159.401,-103.783 119.029,-225.297 -130.691,-61.682 64.41,-147.705 28.92,3.51 72.06,-273.389 -240.661,-64.39 51.111,-94.419 121.65,-64.72 60.101,-256.257 81.141,-275.597 -0.8,-217.348 54.591,-315.108 -6.538,-218.221 -180.841,-334.661 -81.08,-71.19 148.063,-224.072 -57.664,-67.671 -162.85,-65.57 -258.94,-183.53 -370.149,-133.008 -49.53,-153.361 -65.08,-23.13 9.139,-74.101 -69.82,-94.02 -86.669,68.591 -75.17,-77.53 59.109,-74.601 -101.62,-97.69 -30.8,8.48 -127.92,-129.72 -99.07,-44.69 -53.4,-61.68 8.32,-32.531 -97.77,-80.68 -161.49,-51.569 -330.663,-250.715 17.629,-135.02 176.844,-268.003 -55.015,-77.687 10.827,-56.767 -44.897,-23.111 12.096,-72.908 499.993,-716.009 356.826,-342.594 199.619,-111.012 86.88,-44.241 42.95,23.029 287.51,-128.213 124.93,41.308 94.71,27.879 72.991,102.189 47.42,17.249 143.64,-157.341 419.48,29.315 298.733,299.756 92.72,-12.481 64.58,58.479 148.151,34.318 50.301,73.299 39.49,-8.04 155.051,90.568 141.59,4.668 55.67,49.18 106.079,15.61 341.33,252.75 285.318,-434.423 201.528,-193.702 89.96,36.71 98.307,-192.976 -200.578,-144.829 -5.25,-87.487 -342.86,-195.588 197.508,-245.51 -154.969,-83.43 57.129,-73.337 -28.75,-14.83 23.13,-64.257 -41.7,-20.34 10.84,-34.769 -184.1,-89.559 -239.846,-28.054 -185.104,16.906 -68.288,-59.705 -110.599,-18.811 -74.03,35.589 -89.119,-68.719 -18.58,15.959 -5.411,-76.498 43.7,-74.377 107.45,52.269 11.859,-28.989 47.57,19.98 14.27,-37.858 140.8,82.068 54.569,-68.287 -297.849,-264.905 -384.855,-216.854 88.677,-115.936 -284.178,-172.359 9.629,87.219 -322.144,-92.224 40.697,-146.979 -59.401,-106.143 -158.033,-116.161 -24.192,-461.35 206.386,47.5 -15.114,46.759 237.713,50.353 29.64,-112.327 -77.964,-19.443 38.359,-113.74 2.406,-143.753 150.943,-110.993 -20.692,-23.353 64.157,-162.663 86.85,-121.2 -61.716,-184.821 14.564,-31.325 -109.259,-122.133 -80.715,-0.084 -67.976,-68.591 -56.098,-76.125 48.183,-57.029 -29.512,-63.197 -108.604,-41.369 -111.184,-93.468 -75.277,13.257 -61.459,-210.948 -119.69,-99.058 -10.292,-101.864 -88.748,-32.219 7.566,-29.138 -62.756,-66.243 12.545,-26.785 -144.826,-182.859 -33.797,-130.858 -46.29,-12.719 -30.794,-167.639 -86.421,-148.496 -46.995,-4.363 -12.627,-65.546 -78.689,23.665 -92.356,-41.949 -49.293,-98.343 -94.039,36.384 -138.44,-361.148 -173.278,-228.091 28.613,-61.59 -84.913,-70.512 7.743,-45.482 -114.105,-118.216 -253.111,158.427 -164.291,-306.627 -154.079,108.745 -168.997,248.639 -100.008,-102.799 -209.466,341.483 50.718,27.045 -4.772,174.208 178.947,99.837 -7.801,37.994 165.065,153.892 -57.131,193.699 113.676,118.132 170.156,12.921 118.999,80.665 81.983,179.872 -261.57,138.054 -480.281,484.825 90.283,96.316 45.733,175.777 136.954,260.344 179.544,223.594 -85.06,135.471 -187.341,183.882 -133.842,-62.937 -345.395,135.647 -31.069,22.9 -22.236,122.856 -297.603,-121.905 -272.158,382.873 -113.508,74.239 -30.485,-205.447 -37.081,-49.809 -3.975,-184.975 -95.738,76.888 -74.562,-103.417 -93.251,-27.329 23.678,-78.678 -23.251,-35.229 -160.16,1.361 -27.382,-82.558 -63.811,-53.628 9.597,-77.898 -126.93,-39.498 -254.997,89.598 -149.779,-2.879 -181.216,63.787 -418.93,517.862 425.059,364.377 41.93,-43.267 412.21,465.544 43.969,-38.438 280.178,364.774 z "/>
</g></g></svg>