<?xml version="1.0" encoding="UTF-8" standalone="no"?>
<!DOCTYPE svg PUBLIC "-//W3C//DTD SVG 1.1//EN" "http://www.w3.org/Graphics/SVG/1.1/DTD/svg11-flat.dtd"
[
<!ATTLIST g xmlns:fme CDATA #FIXED "http://www.safe.com/fme" >
<!ATTLIST path fme:OBJECTID CDATA #IMPLIED fme:NOM_MAJ CDATA #IMPLIED fme:SHAPE_AREA CDATA #IMPLIED fme:NOM_MIN CDATA #IMPLIED fme:SHAPE_LEN CDATA #IMPLIED fme:NO_CANTON CDATA #IMPLIED fme:NO_DIS_FED CDATA #IMPLIED fme:NO_COM_FED CDATA #IMPLIED fme:NO_COM_CAN CDATA #IMPLIED fme:NO_DIS_CAN CDATA #IMPLIED >
<!ATTLIST ellipse fme:OBJECTID CDATA #IMPLIED fme:NOM_MAJ CDATA #IMPLIED fme:SHAPE_AREA CDATA #IMPLIED fme:NOM_MIN CDATA #IMPLIED fme:SHAPE_LEN CDATA #IMPLIED fme:NO_CANTON CDATA #IMPLIED fme:NO_DIS_FED CDATA #IMPLIED fme:NO_COM_FED CDATA #IMPLIED fme:NO_COM_CAN CDATA #IMPLIED fme:NO_DIS_CAN CDATA #IMPLIED >
<!ATTLIST text fme:OBJECTID CDATA #IMPLIED fme:NOM_MAJ CDATA #IMPLIED fme:SHAPE_AREA CDATA #IMPLIED fme:NOM_MIN CDATA #IMPLIED fme:SHAPE_LEN CDATA #IMPLIED fme:NO_CANTON CDATA #IMPLIED fme:NO_DIS_FED CDATA #IMPLIED fme:NO_COM_FED CDATA #IMPLIED fme:NO_COM_CAN CDATA #IMPLIED fme:NO_DIS_CAN CDATA #IMPLIED >
<!ATTLIST use fme:OBJECTID CDATA #IMPLIED fme:NOM_MAJ CDATA #IMPLIED fme:SHAPE_AREA CDATA #IMPLIED fme:NOM_MIN CDATA #IMPLIED fme:SHAPE_LEN CDATA #IMPLIED fme:NO_CANTON CDATA #IMPLIED fme:NO_DIS_FED CDATA #IMPLIED fme:NO_COM_FED CDATA #IMPLIED fme:NO_COM_CAN CDATA #IMPLIED fme:NO_DIS_CAN CDATA #IMPLIED >
]>
<svg xmlns="http://www.w3.org/2000/svg"  viewBox="-1139.45 -1139.45 93434.6 90436.8"><g xmlns:fme="http://www.safe.com/fme" fill="none" stroke="black" stroke-width="11.394464875000006" transform="translate(0,88157.9) scale(1, -1)">
<g id="MN95_OIT_TPR_LAD_GEN_DISTRICT" >
<path fme:OBJECTID="7" fme:SHAPE_AREA="307275873.840559" fme:SHAPE_LEN="120139.299539724" fme:NO_CANTON="22" fme:NOM_MIN="Nyon" fme:NOM_MAJ="NYON" fme:NO_DIS_FED="2228" fme:NO_COM_FED="0" fme:NO_COM_CAN="0" fme:NO_DIS_CAN="8" d="M 7780.15,18057.6 l 343.233,-285.931 103.701,117.161 -24.402,312.808 102.771,86.274 77.841,185.925 160.51,-121.958 19.389,-50.97 294.538,-177.242 30.16,39.723 40.42,-57.901 214.829,236.789 -672.484,620.135 -128.29,-262.475 -163.86,101.998 -184.413,-329.159 -213.943,-415.177 z M 1587.31,28881.3 l 132.641,145.398 66.19,337.616 -148.163,398.686 -439.178,332.21 -315.366,355.298 199.884,450.79 -261.625,258.576 42.27,398.693 -60.531,76.411 -21.43,144.061 316.706,208.63 1565.03,1521.7 165.594,356.44 376.253,1062.81 505.454,1101.8 211.557,600.091 682.555,866.24 1302.65,1483.05 433.353,-369.31 767.28,993.855 -370.333,292.441 630.528,649.206 442.81,-534.591 153.039,-125.681 117.809,-185.951 117.62,-77.231 232.578,-319.642 148.85,-103.681 168.91,-45.071 220.86,-11.132 226.11,-95.361 119.88,67.149 262.521,-21.112 245.911,190.138 186.38,-108.131 149.758,-267.921 643.718,-457.635 370.08,-196.233 -9.421,-47.39 98.04,-120.35 114.42,16.219 75.69,-42.281 89.652,267.51 776.399,-288.126 446.619,745.283 430.378,626.824 115.972,348.418 80.432,150.669 122.432,136.888 79.342,226.509 53.621,41.789 266.323,-16.833 138.262,60.229 121.152,-93.641 94.621,46.909 220.852,-194.432 276.083,-114.443 146.242,-107.579 81.78,-157.549 -34.65,-21.861 67.27,-37.239 96.132,10.73 133.141,-128.089 56.901,37.701 86.001,1.7 184.482,-8.129 86.051,-77.969 93.891,29.51 187.641,-247.94 20.26,-177.849 223.011,-70.851 231.64,-16.472 212.44,-211.632 19.809,-223.431 322.02,-208.864 -265.383,-396.8 -213.316,-437.14 176.2,-64.922 197.548,-121.912 96.22,-23.871 96.11,27.86 100.199,-94.201 10.339,-119.661 -45.043,-305.771 93.84,-74.631 -9.761,-55.59 -431.343,-278.018 -109.35,-21.139 -46.54,-114.88 -114.38,-89.459 -32.849,40.241 -111.46,-12.019 -14.576,-30.927 228.495,-194.015 376.03,-236.612 -192.2,-185.071 -70.188,-112.6 76.597,-33.13 232.799,-264.995 355.954,-139.986 43.246,-86.593 -20.993,-52.236 -144.77,-183.772 -49.317,-132.928 -172.971,-168.97 -77.997,-128.102 48.851,-13.273 -129.694,-119.567 -146.137,-58.161 -211.139,39.406 237.521,-513.984 248.801,113.556 123.99,102.629 56.988,103.696 151.572,25.171 86.342,87.087 72.662,-82.373 63.076,-15.191 310.347,270.656 28.383,108.625 212.667,-74.172 359.366,-311.346 153.528,146.314 127.291,1.919 190.512,169.268 182.452,57.25 110.321,89.08 -329.715,236.102 62.039,159.201 265.278,11.568 52.89,30.891 248.748,213.992 46.71,146.091 584.875,-93.36 215.489,-77.075 113.253,5.506 160.333,148.31 106.622,-193.986 -68.029,-91.624 -210.519,-53.919 -86.623,-60.917 210.649,-283.787 -58.438,-35.594 293.512,-64.985 244.924,-102.878 -53.815,-67.687 192.274,-348.937 179.422,-69.17 70.12,-120.062 245.835,-225.819 153.502,-391.452 160.521,-257.757 94.108,-357.997 131.98,32.151 45.578,-104.99 275.691,297.94 137.333,74.24 81.168,-140.131 135.953,63.68 150.302,19.559 15.882,75.34 60.967,-161.33 294.675,122.389 50.496,-124.45 -29.06,-27.42 11.157,-130.991 71.647,-31.61 61.207,-182.631 62.871,-36.732 35.529,-94.331 -37.032,-141.13 29.499,-192.892 171.22,-129.833 152.882,36.098 142.15,-146.111 65.06,-16.091 95.51,-93.481 27.369,-123.89 -258.081,81.913 -237.252,18.972 -239.984,-116.577 -474.842,-130.245 -40.23,-51.14 -623.721,-47.474 -234.17,-91.858 -47.343,15.949 -2.777,-47.799 -140.401,55.341 -34.32,-37.6 -117.341,36.741 -109.19,-35.699 -38.621,18.23 -20.519,-33.41 41.02,-19.68 -18.6,-35.23 -166.54,-63.768 -81.5,-112.569 -58.06,-10.649 -258.048,-214.687 -128.198,-229.708 -36.57,-145.398 -43.689,19.06 -100.409,-212.027 -224.825,-255.871 -70.59,-48.38 -173.761,-26.009 -170.053,-173.89 -102.361,-57.09 -149.972,-204.99 -135.042,-71.81 -94.77,-11.589 -106.961,-65.25 -102.413,-245.591 -4.601,-137.031 6.29,-10.19 37.78,-20.96 -59.23,-4.4 -344.365,-443.39 -170.132,-131.84 -131.891,-214.29 11.449,-39.65 -16.86,13.31 -85.49,-83.41 -135.222,-189.619 -472.443,-291.014 -166.671,-41.728 -114.191,-116.119 46.87,-94.051 -25.55,-20.89 -112.831,-90.339 -57.71,-4.799 2.2,22.47 -20.24,-22.33 -36.66,43.011 -118.46,-1.488 -135.732,-152.729 -61.351,-240.821 45.337,-536.565 -48.011,-176.973 -275.401,-442.69 -342.021,-364.331 -41.381,-96.308 -4.941,-244.772 99.448,-362.722 -64.472,-223.401 10.61,-77.234 -81.231,-110.197 -221.359,-43.761 16.13,-23.391 -42.77,-1.13 -25.931,-69.57 -52.241,-170.981 -147.02,-218.042 -4.95,41.96 -44.74,-1.73 -44.9,-35.94 -228.942,14.011 -62.558,-41.502 144,-18.71 139.61,-73.09 53.899,33.78 3.29,74.485 33.351,8.607 -12.281,-67.832 -83.86,-97.61 -260.229,112.709 -215.349,-7.96 -0.06,42.54 -61.8,-1.87 45.13,21.51 -216.179,117.75 -470.868,36.121 -57.511,-83.43 -238.719,-124.09 -461.869,-358.912 -37.242,-87.69 -59.502,1.023 -76.154,-186.79 20.471,-128.184 -40.112,-46.929 23.703,-120.515 -61.465,105.117 -101.334,-42.205 -215.355,-304.597 -15.725,-49.097 -63.8,-5.27 -155.521,-159.418 -32.95,-85.869 -69.725,-61.394 -134.196,-47.191 -77.21,-98.149 -14.258,-233.555 -60.667,-131.654 -318.344,-427.114 -238.278,-223.246 -111.919,-115.592 -236.999,-122.883 -48.129,-89.992 -87.919,-51.771 -68.779,-135.954 -22.499,-150.645 -229.11,-173.86 -64.249,-320.537 -170.27,-91.56 -70.04,-220.963 -55.6,70.028 -32.029,-23.499 -98.64,37.16 -204.458,126.39 -193.714,32.49 -229.049,-51.289 -160.372,97.068 -18.513,106.719 -131.65,230.088 52.592,64.19 -50.84,77.189 11.791,42.43 -271.264,62.089 -468.148,-45.571 -117.801,26.14 -215.966,247.451 -291.178,209.727 -453.034,-237.071 -31.497,-66.411 168.741,-195.428 -399.17,-176.47 112.11,-396.22 185.179,-108.456 402.351,-132.274 227.448,-181.534 -29.231,-49.209 253.58,-136.186 59.82,-5.839 136.812,68.04 200.549,-172.595 149.372,26.621 115.07,-29.178 -143.97,-542.411 795.759,-556.988 46.502,92.762 152.012,-35.969 -15.09,-23.57 68.991,-34.985 -120.574,-170.122 -138.913,-126.64 5.869,-35.742 -1.85,-3.54 -60.362,-128.344 27.87,-24.212 -45.342,-101.893 44.749,-190.271 -53.552,-185.677 16.82,-25.702 -73.692,-91.762 -22.562,-127.785 -78.113,-130.283 0.47,-75.914 -19.651,8.912 -18.371,-72.213 -56.051,-65.731 -16.552,-148.776 -170.905,-413.34 24.37,-51.659 -41.056,25.321 -94.474,-119.943 -133.49,-292.344 -407.621,-297.693 -178.84,-257.683 -31.68,10.24 24.12,-18.001 -151.38,-278.49 -183.102,-191.052 -27.777,-148.377 -37.879,-6.429 26.23,-46.17 -12.268,-78.139 -27.41,16.901 -123.263,-153.774 -71.316,-174.355 -98.955,-127.565 -28.109,1.221 -5.649,-44.4 -129.634,-143.473 -10.969,-0.39 67.046,80.737 -42.678,-3.999 6.1,-32.3 -80.837,19.803 -250.024,-210.579 -73.04,-104.887 -19.354,-115.859 -259.006,54.619 -559.329,285.44 -476.984,167.864 -208.649,206.418 -755.201,429.542 4.354,74.772 -462.827,394.579 -82.773,139.034 9.514,42.625 -298.969,266.797 16.21,27.399 -139.026,145.141 52.874,98.453 -217.952,102.073 56.705,87.61 -65.841,55.793 24.76,57.779 -62.321,147.318 60.96,42.679 71.478,169.236 111.109,46.218 44.04,80.809 203.097,180.595 13.73,98.038 74.399,61.558 112.509,230.549 -10.04,51.528 170.499,42.785 -74.03,36.041 46.96,34.627 -37.14,38.04 150.967,152.9 -58.97,39.371 -9.871,102.76 117.437,127.461 99.319,-25.55 12.438,202.212 -147.52,90.76 31.799,67.721 56.95,13.63 -56.931,62.68 9.98,52.761 133.178,31.3 -125.429,60.23 15.629,56.121 65.659,-4.94 10.7,106.882 74.8,-60.231 68.139,138.053 188.898,45.232 100.279,64.051 37.39,-89.381 38.24,-6.51 40.319,42.101 -10.99,76.951 272.728,110.813 9.84,97.042 126.258,90.282 -3.16,96.662 68.05,73.782 12.21,65.151 -44.13,94.202 156.779,-27.1 70.269,108.682 152.96,74.421 -7.188,59.358 109.39,57.37 0.693,79.578 45.9,21.78 17.222,76.249 -72.895,140.096 50.113,105.838 19.845,160.197 44.14,23.34 -36.248,58.968 52.611,26.53 13.356,127.353 173.594,287.83 662.022,674.842 -11.189,193.855 -288.606,461.146 -198.308,182.622 -59.142,104.025 -101.574,44.4 -0.103,93.899 -28.322,24.438 29.25,66.114 -51.075,56.092 8.789,53.571 -25.748,-2.112 24.633,136.359 -98.669,63.871 10.953,41.569 -34.634,21.891 -36.575,-9.075 -26.533,-57.77 -84.057,-164.318 -172.399,102.291 -69.836,-118.08 -28.16,13.42 -11.43,-27.09 -284.849,15.99 -64.148,112.171 -156.588,127.542 -3.64,51.57 -907.021,970.427 -227.081,146.22 -1422.01,1130.83 7.169,-143.499 125.6,-159.621 -74.14,-44.23 -378.221,309.31 -187.382,-34.6 -55.26,23.99 -190.159,317.031 -38.381,8.88 -70.66,139.21 -121.04,133.81 -18.159,123.54 -56.521,54.39 19.981,133.6 -45.02,50.15 -63.36,-5.49 -17.5,124.619 -2297.95,691.824 -284.313,170.405 534.805,1005.81 259.763,311.44 59.999,422.443 732.747,802.81 z "/>
<path fme:OBJECTID="8" fme:SHAPE_AREA="709865734.462137" fme:SHAPE_LEN="219346.45478802602" fme:NO_CANTON="22" fme:NOM_MIN="Jura-Nord vaudois" fme:NOM_MAJ="JURA-NORD VAUDOIS" fme:NO_DIS_FED="2224" fme:NO_COM_FED="0" fme:NO_COM_CAN="0" fme:NO_DIS_CAN="4" d="M 36217.6,74986.6 l 88.516,38.38 146.289,142.368 193.286,284.081 362.215,430.918 133.509,11.114 433.507,177.325 344.941,356.122 182.14,129.241 194.616,34.367 132.058,-22.223 63.522,58.456 212.674,39.331 225.991,159.273 750.176,459.059 1114.27,481.205 472.116,15.825 275.281,-94.69 124.978,8.331 608.044,332.411 618.707,242.449 950.162,-32.346 239.525,321.473 1181.03,1605.16 137.434,502.797 520.368,292.766 64.389,81.798 1048.14,705.196 872.821,377.106 314.725,167.971 2812.48,1143.43 -49.608,-253.92 14.152,-52.9 110.108,-177.74 139.263,-70.12 -222.064,-586.25 -263.433,-1105.32 13.308,-461.768 -86.683,-625.516 326.529,-79.97 428.551,-387.243 1017.19,-800.951 -170.566,-1138.17 151.326,-21.629 52.71,-104.789 -58.437,-153.119 -40.184,-317.907 -124.463,-285.567 -83.844,-310.897 -83.896,-139.669 -142.314,-102.73 -49.306,-244.888 -56.867,-121.929 66.469,-45.929 97.116,128.079 411.281,320.882 807.456,-101.332 94.975,-58.858 259.31,-19.125 -98.318,-194.335 8.821,-194.588 -56.285,-191.016 -98.841,-185.693 -28.578,29.726 18.282,-27.869 -257.166,-168.496 -75.571,-108.052 -143.078,-94.538 -463.826,-199.348 -69.492,-88.849 5.73,-79.966 -64.801,-65.885 -306.289,-125.894 -132.108,-263.959 -174.33,-142.244 -103.114,-42.267 -111.398,30.094 -60.823,-44.283 -26.579,14.477 -237.305,-90.652 -167.277,-116.838 -94.094,-132.006 -94.1,10.554 -164.584,-98.885 -137.792,-112.972 -45.366,-83.092 20.069,-50.101 -27.903,-15.893 -2.417,-71.976 -302.982,-307.343 -212.941,-364.095 -319.506,-258.742 -10.316,29.711 -77.008,-60.958 -224.248,-89.967 -386.6,-253.239 -87.999,-131.805 -384.301,-121.072 -144.78,-113.284 -32.427,-218.817 -188.889,-160.203 -17.069,-72.279 66.48,-48.762 -8.829,-24.939 -97.16,-34.587 11.69,19 -43.991,24.801 -220.669,-190.552 -52.68,-14.498 -19.439,-44.409 51.261,-89.071 -76.58,-16.658 -40.049,-75.158 -58.671,44.562 -181.4,-94.224 -52.231,37.141 -52.89,-37.118 -10.11,-6.65 -34.53,-14.109 -80.63,-48.637 46.741,-92.721 -33.14,-20.629 -49.701,99.851 -93.208,-100.597 -163.082,-29.868 -86.594,-68.979 13.482,-65.461 -322.203,-119.335 -62.58,70.001 -141.033,-59.338 -118.098,-164.379 -99.205,-26.799 -161.803,-119.069 -101.399,-152.093 -194.798,-142.361 -24.95,8.77 -84.519,-103.392 -292.497,-204.442 -13.82,-39.171 -18.59,20.171 -160.468,-138.022 -468.718,-239.746 -13.131,-109.328 -65.071,-112.958 -9.692,-91.428 -47.75,-18.969 -29.583,-120.628 69.764,-310.077 55.619,-92.999 -72.702,-55.168 30.119,-23.7 38.969,-92.03 272.744,-322.863 93.414,71.739 106.886,8.694 65.43,-150.502 130.317,-142.48 -152.026,-124.514 307.223,-278.528 42.16,16.008 -6.225,-64.702 53.009,-64.92 40.091,110.158 198.335,-23.689 7.167,-73.132 84.75,-69.004 66.904,-13.106 181.068,101.636 42.526,-69.986 57.799,1.9 212.339,108.773 560.345,154.967 -100,-50.997 7.998,-27.998 52.999,2.999 117.001,62.997 -2.994,128.992 177.998,24.999 75.003,109.994 308,122.993 152.002,125.994 260,108.995 215.999,49.996 91,48.998 128.001,140.996 315,191.993 906.996,356.976 25,46.999 255.621,145.064 24.98,43.484 40.667,-12.833 74.151,37.698 3.82,31.311 78.08,-1.506 271.987,91.208 20.319,69.638 101.368,0.865 36.178,33.047 10.656,69.346 247.469,101.387 137.578,-5.764 320.292,-70.06 183.505,41.887 42.962,61.408 147.9,25.736 52.063,-32.366 21.766,23.424 243.899,-46.863 299.113,-117.489 89.029,21.498 112.749,123.136 188.797,2.636 184.957,-288.183 104.139,-92.122 -20.16,-45.75 28.04,39.34 108.318,-25.483 34.14,46.029 324.955,-135.927 140.578,30.436 -9.31,28.75 149.428,1.497 329.586,147.301 31.33,63.939 119.758,79.457 46.887,92.749 107.837,64.778 71.637,103.57 156.269,129.91 358.894,-336.489 77.882,-119.376 286.831,-252.775 150.469,-217.613 156.647,82.49 205.38,165.2 283.528,-360.777 -88.177,-97.975 41.196,-35.949 -622.404,-495.829 -202.12,-458.223 86.92,-71.982 240.768,248.533 41.363,139.401 40.573,-41.748 130.377,125.263 87.313,-90.884 -32.381,-31.149 123.04,-136.492 34.711,11.779 308.535,-316.246 240.756,-300.634 367.949,-314.046 -310.731,-287.595 73.579,-71.632 -199.564,-167.384 48.501,-40.5 -146.45,-158.922 47.381,-35.2 -102.489,-177.552 -109.19,-87.415 76.002,-78.61 -83.159,-204.932 -79.481,52.931 -109.139,-149.523 -142.711,-118.863 -21.798,-112.497 -98.14,-98.784 -51.821,-6.589 -263.946,-369.233 -28.586,-215.955 28.782,-71.56 -142.841,47.412 36.144,-183.366 -19.129,-56.398 -46.27,-4.359 30.152,-80.618 -16.247,-145.126 -35.08,-4.959 -39.847,-153.505 -274.814,-276.347 -18.529,-71.428 50.771,-41.189 15.442,-117.277 -220.841,-444.734 -63.569,-207.146 -84.28,-109.776 -230.003,-160.09 -438.364,-437.899 -43.329,-175.447 -376.266,-53.11 -113.342,-43.898 -306.982,-525.276 -262.469,468.84 -170.429,-171.865 -7.3,-76.528 -174.02,-293.231 -66.029,29.559 -23.931,-175.047 -272.248,24.748 -115.46,-118.61 -0.45,-186.138 -30.02,-14.64 27.211,-100.39 -106.06,55.089 15.629,33.32 -115.1,52.57 -36.369,-59.65 8.721,-141.41 -27.489,-39.03 8.614,-306.531 134.71,-159.969 -241.687,-415.1 -7.481,143.66 -117.19,132.309 -44.22,-134.13 -188.38,32.539 -32.279,-66.29 -459.94,63.529 -281.069,-244.071 -131.379,3.18 -113.06,-53.03 -72.079,-120.4 -51.65,1.99 -44.62,44.739 6.38,62.05 -61.281,66.2 -275.769,46.499 -21.021,124.95 -51.59,-10.42 -13.87,63.72 -261.53,163.099 27.779,223.28 -14.281,238.729 181.032,362.317 -22.149,133.999 -44.461,-58.55 -88.769,-4.66 -33.521,-60.28 -14.339,26.65 -70.93,-30.26 -30.87,23.69 -35.081,-71.09 -16.969,48.57 -32.03,-49.73 -33.01,45.16 -22.68,-28.88 -44.14,14.51 -50.13,-46.35 -148.62,-43.68 -29.33,18.71 -48.68,-34.01 6.41,-31.81 -104.25,-5.42 -34.06,-51.54 -120.45,-29.25 18.38,-55.279 -53.431,-91.709 -131.42,-117.9 17.75,-11.32 -55.159,-73.47 -48.229,-182.3 -59.23,-50.99 -54.499,-164.43 -76.929,-32.001 -67.55,-135.052 -59.119,-45.101 -233.74,-61.703 -191.008,-305.894 -80.27,-72.73 -128.821,-121.888 -379.111,90.738 -218.21,94.259 44.262,340.745 -132.041,46.26 123.309,289.492 27.3,-0.429 86.929,173.612 -182.702,38.785 14.589,66.122 -321.113,314.231 -132.257,174.52 9.657,26.479 -244.738,229.774 33.147,299.422 -128.769,127.714 -420.333,416.916 -60.195,342.894 -230.187,344.454 -171.589,118.879 -97.243,-7.044 -128.005,44.684 -8.349,-101.204 -73.545,-35.476 -23.595,-97.179 -86.662,-70.059 -18.259,-73.333 -47.798,73.583 -55.601,-6.207 38.662,-74.532 -17.355,-45.834 -38.855,11.097 -3.45,-81.161 -12.445,-93.945 39.739,-96.752 -38.753,-108.379 21.354,-54.846 -74.954,-41.843 50.767,-12.321 21.193,-63.454 -10.503,-48.751 -63.506,-45.356 46.499,-95.528 -122.7,-66.744 18.485,-55.84 67.439,-35.45 -20.246,-22.643 -38.907,16.02 -21.649,-65.701 52.521,-26.974 14.914,-51.76 -77.905,-24.724 89.232,-141.553 -17.775,-34.721 -66.65,4.714 8.334,-84.507 65.7,-42.206 -2.03,-91.498 -67.534,-9.866 46.978,-67.366 -32.356,-60.159 53.359,-43.094 -83.553,-53.748 50.624,-64.692 -71.602,-27.849 47.942,-50.647 -40.84,-95.027 58.953,-28.257 -40.216,-67.507 43.156,-109.044 -113.018,-94.912 -43.304,-95.103 -43.092,30.797 -79.692,-117.237 -0.464,-65.837 -64.071,-60.876 15.695,-88.472 -45.189,-42.599 -52.926,-160.943 -135.109,3.452 -135.142,78.704 -82.53,-155.925 -207.927,64.193 -59.624,-81.718 -29.732,-130.088 68.89,-33.911 -54.872,-253.237 -106.548,-206.577 -159.619,-149.297 273.459,-6.354 -27.429,-145.009 -164.78,-349.958 301.122,-240.942 193.88,-66.692 21.129,76.98 127.118,107.877 71.8,-43.901 256.178,41.976 1.03,-33.27 -11.037,-420.148 -100.339,-107.007 -158.659,-563.487 -209.001,-17.609 -61.48,243.621 82.931,244.759 -92.92,32.581 7.23,44.22 -92.701,32.54 -26.4,-144.7 -240.052,58.022 -88.66,-119.709 -100.161,73.07 -144.111,-197.439 59.23,-65.95 -191.621,-8.459 -47.67,67.05 -98.461,-63.669 -105.2,80.181 -166.371,-204.629 -88.501,50.33 -118.111,-184.669 -79.83,69.011 -125.681,3.751 -121.82,73.65 -177.202,-31.038 -147.2,23.431 8.379,-84.94 -136.821,-31.669 -85.801,35.751 -231.262,-67.678 -201.8,266.101 -240.203,-158.817 75.559,-257.61 30.41,-14.29 76.988,-390.858 -75.33,-20.349 -219.194,-294.847 75.07,-80.53 1.369,-129.739 16.019,-157.85 95.839,-244.759 -23.681,-130.549 23.829,-148.689 -177.892,-182.118 -117.113,-276.817 38.98,-109.85 -142.042,-16.839 16.427,-511.817 -202.339,38.189 12.239,-156.559 -33.04,6.729 -23.011,-71.259 -93.289,20.629 -55.221,-38.34 -171.72,-3.47 -38.47,-104.15 -95.161,-47.1 -10.08,-60.88 -122.809,123.219 -99.89,25.01 -11.249,119.489 -102.699,89.609 -214.31,60.099 -11.75,59.98 -239.208,249.068 -149.821,-142.81 -67.92,3.45 -112.25,31.479 -82.82,-64.97 -28.4,-64.12 -141.31,-14.57 -429.109,136.848 68.63,85.89 134.163,483.978 -141.75,76.219 36.903,358.449 -82.984,952.868 -39.653,739.39 -816.366,235.576 -35.321,-329.623 -414.663,61.893 -145.661,-49.05 -209.142,-124.46 -9.211,-37.841 -183.381,16.781 -109.444,76.668 -328.301,-537.391 -113.691,-104.77 -131.16,-289.861 -267.122,-108.319 -210.953,-11.48 -155.28,-217.399 59.223,209.837 -54.335,16.079 -136.038,-306.155 19.711,-168.11 -73.69,-227.738 -189.312,153.36 -56.161,119.67 -353.93,-549.846 -277.812,75.192 -63.49,-17.83 -58.45,50.85 -57.99,3.32 -160.38,151.74 -156.24,82.011 -172.34,56.02 -102,93.24 -22.09,-87.539 -339.22,1.312 -381.301,-498.856 -186.38,33.491 -280.99,104.59 -338,138.521 -41.04,16.591 -276.861,11.16 -61.59,-99.92 -169.93,-110.729 -74.13,-144.51 -212.16,-148.69 -154.961,-170.81 -94.7,-37.77 -235.67,-267.929 -56.9,-6.69 -227.27,-20.68 -214.511,-113.949 -466.301,-425.05 -1879.14,1176.56 -82.401,43.011 -28.3,-21.1 -152.601,83.502 -49.101,163.803 -77.7,-104.3 -179.501,78.905 -377.102,311.412 -545.813,-104.992 -559.413,-164.592 -561.998,-292.084 -642.308,-173.803 -183.21,311.917 -562.49,398.209 -574.743,-289.883 -176.913,-607.64 45.69,-198.074 -36.212,-288.526 56.061,-42.951 3.01,-172.084 -62.56,-139.553 17.52,-251.946 57.49,-455.14 44.1,-103.253 -60.07,-339.117 -193.9,-287.416 -10.43,-107.363 22.919,-259.643 33.999,-103.21 56.889,-61.541 4.488,-218.111 63.648,-192.971 -204.039,104.691 -89.98,-56.701 -64.972,-146.99 -626.703,-323.762 -491.257,-746.93 -332.685,-536.233 252.109,-76.773 378.379,-188.934 -1076.19,-1051.07 -653.035,-445.14 -1138.95,-1062.35 345.219,-410.093 -139.222,-163.712 -77.872,-228.863 -17.44,-64.761 -10.331,-50.461 -147.391,-66.669 -281.504,-365.234 -346.801,30.274 -1025.07,-917.326 -484.3,-1358.14 -361.002,-54.327 -200.041,-156.218 -318.521,-81.228 -192.731,-132.768 -424.465,-468.149 -147.213,-239.007 -327.255,-181.057 -222.944,-252.267 -79.891,-147.758 -104.012,-74.089 -53.621,-41.789 -79.342,-226.509 -122.432,-136.888 -80.432,-150.669 -115.972,-348.418 -430.378,-626.824 -446.619,-745.283 -776.399,288.126 -89.652,-267.51 -75.69,42.281 -114.42,-16.219 -98.04,120.35 9.421,47.39 -370.08,196.233 -643.718,457.635 -149.758,267.921 -186.38,108.131 -245.911,-190.138 -262.521,21.112 -119.88,-67.149 -226.11,95.361 -220.86,11.132 -168.91,45.071 -148.85,103.681 -232.578,319.642 -117.62,77.231 -117.809,185.951 -153.039,125.681 -442.81,534.591 -3483.6,3520.32 355.685,382.28 530.616,444.169 165.523,378.39 203.253,272.859 260.713,178.78 755.69,660.739 172.791,49.219 480.367,446.399 273.012,127.06 164.442,29.499 328.465,442.46 258.163,249.919 316.183,6.73 1055.26,614.567 63.711,268.9 -48.31,82.201 33.051,131.84 304.333,137.889 165.703,252.42 223.222,103.639 68.451,122.86 116.031,-35.93 218.463,143.919 117.921,133.41 87.271,26.53 16.091,45.26 -49.671,97.651 106.301,64.509 264.443,384.521 -81.351,102.031 351.184,190.199 114.932,-144.621 89.971,74.66 51.08,-8.091 43.641,36.74 14.72,82.851 35.34,-14.79 339.484,386.59 -5.67,105.111 203.592,70.949 88.251,-4.92 60.801,66.1 -18.071,73.96 -40.15,19.06 183.772,216.671 368.764,121.079 291.013,213.79 252.813,372.341 155.051,318.331 414.645,338.33 330.383,363.35 841.72,695.83 1089.74,980.05 58.64,212.921 63.291,-23.95 38.69,73.18 67.661,-1.24 21.18,56.57 -5.72,79.67 -118.582,30.011 28.86,275.341 523.316,339.1 242.503,199.5 231.452,349.791 285.464,69.039 518.755,188.569 234.861,153.481 119.28,-27.059 786.674,500.976 641.491,407.268 736.503,416.245 154.196,-27.807 1084.08,415.63 628.483,471.953 213.09,43.088 128.605,370.281 273.116,165.203 223.977,370.654 60.853,-34.864 18.447,-52.343 84.537,11.098 41.803,-42.784 45.064,17.742 75.156,-53.56 54.589,85.875 62.229,-19.282 12.504,60.497 41.098,-19.801 3.703,53.298 383.395,97.082 -22.664,563.08 -282.701,-0.722 175.725,118.252 94.15,44.692 108.897,-7.78 191.062,58.364 251.838,-78.015 58.141,-6.126 63.479,43.749 85.923,-23.564 238.988,52.616 58.459,28.213 12.82,53.181 338.45,353.127 203.052,430.581 -56.472,239.91 -79.462,126.383 -129.73,17.016 -4.709,101.115 527.199,568.354 360.622,127.856 77.246,135.389 189.638,-98.42 1053.07,285.177 576.224,186.43 438.6,253.793 608.471,545.994 91.602,107.502 -111.6,42.401 46.197,394.697 52.301,46.101 754.506,675.792 258.862,102.718 -38.836,491.297 529.388,1121.25 -1785.8,1435.54 -270.573,1212.28 752.407,375.338 -89.473,907.972 290.711,967.538 1312.7,2049.68 406.133,-56.685 84.207,-334.591 319.065,-82.136 867.948,-70.378 2469.68,881.555 685.832,189.298 154.313,150.742 170.613,83.995 z "/>
<path fme:OBJECTID="9" fme:SHAPE_AREA="139973797.787852" fme:SHAPE_LEN="83197.76608132149" fme:NO_CANTON="22" fme:NOM_MIN="Lavaux-Oron" fme:NOM_MAJ="LAVAUX-ORON" fme:NO_DIS_FED="2226" fme:NO_COM_FED="0" fme:NO_COM_CAN="0" fme:NO_DIS_CAN="6" d="M 52894.3,45089.3 l 1.369,151.441 86.161,59.219 17.929,161.46 147.552,70.008 4.309,135.711 146.912,82.738 -1.48,51.63 75.611,16.729 20.06,39.69 195.562,58.747 1.05,66.14 37.61,17.999 48.559,363.482 -23.28,46.631 -46.251,10.441 20.52,111.42 141.071,166.1 -52.941,49.431 60.43,61.24 -50.051,55.771 66.591,60.799 -12.041,74.251 41.891,14.65 28.11,124.17 80.72,33.479 27.31,122.681 65.461,77.61 26.142,259.311 51.951,58.37 -2.219,103.521 28.69,46.83 -72.609,81.282 138.902,165.029 24.781,115.281 46.34,5.029 549.789,-377.821 422.318,-19.823 -25.729,-114.441 262.279,-60.693 -29.469,-133.371 92.859,-23.731 9.882,-147.133 35.749,-17.22 -34.969,-45.99 15.471,-99.832 -43.12,-30.5 43.151,-80.942 -131.869,-171.732 47.481,-41.71 -36.86,-85.521 -44.6,-0.219 -32.89,-53.68 359.58,-116.366 127.599,30.77 -15.487,-363.525 -65.871,-117.269 284.761,-158.387 226.138,-64.375 349.946,94.044 137.26,-695.557 78.528,-124.782 -12.919,-100.201 -91.087,-105.488 10.38,-84.419 -43.498,-58.109 37.909,4.93 -4.609,-79.019 -112.842,-280.817 21.919,-50.65 28.991,13.48 24.909,-27.041 -44.292,-106.759 22.157,-119.92 -22.443,-165.859 -75.233,-148.359 -143.963,-154.127 -22.983,-103.869 32.098,-122.149 -115.02,-206.272 186.877,-126.33 39.78,30.94 121.678,-56.82 170.842,57.218 13.425,65.319 63.539,-31.377 62.74,217.376 69.475,-26.832 49.217,142.566 233.293,-37.247 112.839,136.988 110.477,11.999 182.25,-83.331 -127.55,307.907 87.169,133.765 33.869,129.605 86.653,65.112 -5.874,190.024 368.933,-174.481 45.941,17.448 32.709,-57.94 48.158,-9.686 47.259,-86.345 66.534,-316.037 44.064,-5.806 66.291,-183.717 9.301,-99.759 246.792,52.509 137.973,-88.945 39.966,-89.795 427.019,-118.416 200.042,157.638 -37.129,84.069 224.557,162.817 18.267,82.873 62.31,48.787 116.269,249.087 61.686,27.334 50.047,-30.816 112.878,37.433 87.013,131.095 162.107,-72.084 54.243,-147.429 120.825,-95.974 42.909,-7.122 91.34,100.088 372.183,-211.476 189.272,-27.163 -22.99,-39.449 237.551,-150.321 17.47,37.229 87.729,-53.693 -13.556,-22.681 43.265,-39.031 82.945,-19.967 -44.012,-119.477 216.01,-120.941 287.41,-613.676 207.541,-522.156 382.893,237.402 384.693,-578.335 142.829,96.853 38.559,64.339 1.803,132.292 -31.53,46.861 133.738,296.545 162.739,-28.165 141.917,48.431 249.472,138.759 200.193,157.55 207.83,-78.738 15.701,19.576 57.377,-39.368 -103.07,-131.557 11.971,-95.03 -100.448,-107.362 68.509,-111.177 -95.593,-79.264 61.509,-168.249 198.825,-234.206 -121.158,-121.097 -126.884,-70.467 -112.542,2.772 -50.854,104.686 -93.2,-54.45 -25.885,-78.193 -58.503,-36.551 -2.668,67.683 -49.895,26.003 7.395,-37.21 -103.727,-102.084 -88.824,-26.175 29.755,-83.967 -18.895,-37.31 -46.134,59.771 -89.976,-28.506 -79.307,83.878 -29.578,-3.673 -279.22,-397.895 -328.384,-351.12 -1.784,-62.065 -90.848,-33.735 4.291,-60.372 -83.69,-49.316 -24.104,-122.532 -178.395,-92.925 -13.488,-74.609 -105.015,-105.364 -8.275,-52.525 -115.348,9.097 -22.923,-96.223 -239.62,-163.914 -13.722,-95.326 -58.465,-99.914 -114.813,-84.245 7.247,-38.065 -54.683,-88.268 -45.359,-10.257 -50.271,-68.861 -43.57,-92.549 33.119,-49.35 -78.04,-119.018 -9.125,-183.386 -99.136,24.437 -41.951,-453.371 -67.428,-44.475 -162,21.512 -21.35,104.632 42.528,108.887 -54.937,65.321 128.662,288.553 -146.069,41.034 -38.8,80.798 -55.682,-24.093 -43.34,23.253 28.176,138.239 -46.083,49.536 -23.127,97.062 -54.3,42.496 36.383,97.42 -47.395,64.312 -175.805,11.406 -38.387,-77.963 -69.354,-6.154 -33.738,39.34 -493.494,-235.902 -207.075,-64.808 -231.345,2.607 -170.683,-35.588 -12.168,-33.914 -255.204,16.803 -54.745,-14.689 -4.809,-31.058 -149.831,0.059 -67.358,39.096 -326.2,27.838 5.52,71.85 -36.931,79.479 239.651,395.765 -91.167,63.498 -97.749,2.751 17.694,-68.916 -63.238,-145.307 -52.58,-54.166 -44.898,1.108 7.9,-61.201 -39.69,-5.209 -154.101,-157.579 -31.34,-77.37 41.87,-50.47 -121.76,-37.849 -48.451,-113.73 -62.07,-7.349 33.32,-40.971 -32.12,-20.339 41.91,-30.241 -28.63,-59.839 -52.75,-21.78 3.659,-59.3 35.02,-12.53 -16.62,-64.21 -22.04,5.08 0.829,-79.66 -42.44,-33.74 33.45,-18.05 -50.28,-35.08 23.7,-43.5 -246.32,-407.071 -71.2,-69.19 14.659,-18.71 -54.529,-34.72 11.799,-64.801 -52.81,-57.12 -106.31,-93.37 95.83,-123.891 77.629,-46.761 12.44,-88.231 72.97,-24.6 79.869,-134.341 208.118,-545.165 344.848,-269.033 126.119,-227.012 -15.76,-38.21 -127.269,-70.569 -198.579,9.451 -122.649,-36.338 -135.038,-140.499 -4.73,-94.98 42.4,-88.311 -103.958,-127.209 50.478,-124.881 -47.25,-62.139 -31.14,6.08 -116.371,-167.199 -29.519,14.77 -54.193,-177.069 -105.921,-142.599 -34.252,-148.13 -201.576,-6.788 -94.968,-268.76 17.299,-504.3 71.959,-84.431 71.358,-26.341 -13.36,-38.74 -50.729,-13.339 52.909,-41.541 156.307,2.159 -73.479,-59.889 -135.417,-26.339 -89.558,-108.67 51.119,-130.39 45.269,-232.081 -17.77,-39.9 -70.408,-29.599 -305.356,-19.438 -78.95,-91.429 -177.01,142.261 -111.56,-33.439 -58.272,-266.04 -51.58,-96.799 136.189,-144.921 -5.21,-32.96 -27.977,-294.438 94.964,-121.989 -59.049,-51.789 17.142,-58.939 -33.558,-75.379 -16.383,-283.028 -753.779,263.038 -117.88,-6.171 -36.509,-40.24 -78.071,24.11 -201.132,-76.352 -377.104,88.649 -19.56,-22.92 -49.581,47.677 -714.72,319.263 -525.556,294.955 -161.838,124.271 -181.268,220.913 -163.968,89.871 -190.678,248.572 -93.339,58.701 -244.848,126.603 -73.159,77.72 -66.83,-3.879 -10.58,35.97 -111.979,70.411 -158.79,0.211 -57.78,-49.29 -41.78,18.891 -112.09,-46.85 -106.679,32.351 107.16,-10.661 -8.13,58.221 -99.979,19.791 -20.301,-36.42 -81.85,9.5 -8.21,26.789 -203.211,-47.168 -272.831,-251.644 -256.213,14.958 -92.32,-27.079 -110.628,43.686 -199.542,-46.551 -250.286,233.176 -320.038,219.521 -90.273,26.033 -304.087,322.326 -418.281,343.519 -461.992,268.21 -2.409,-24.729 -61.082,43.861 9.926,-29.042 -82.257,1.953 -247.241,123.966 -55.921,-59.129 -53.14,94.821 -78.98,17.452 -163.678,112.192 -275.976,33.713 -33.81,-63.789 -268.394,189.845 -62.339,83.498 -103.516,-7.763 -88.628,70.221 -91.17,-6.51 -208.156,-13.236 -84.675,-40.173 -81.181,38.476 -135.292,-8.66 -87.129,68.422 -46.391,-56.862 -176.041,65.659 -54.56,55.16 19,72.661 -55.831,26.125 -110.671,-30.577 -15.56,-49.751 -198.451,21.598 -4.37,61.97 -113.751,8.389 -104.611,-12.252 -125.773,-69.88 -226.7,63.556 -194.781,-41.864 -244.102,41.048 -209.012,-78.965 -4.4,-27.34 -146.352,21.59 0.91,46.453 3.555,61.085 -77.204,94.873 1.131,89.681 -48.251,-14.407 -0.2,76.33 -49.73,43.053 -23.299,215.21 203.781,151.632 24.97,-20.29 148.501,46.393 67.5,75.092 105.62,-24.519 144.721,56.463 26.66,-41.45 87.78,12.971 133.071,98.604 23.76,-47.201 133.191,-1.458 50.791,184.941 -40.642,103.64 32.248,244.86 167.921,121.861 31.011,-33.98 172.914,115.112 46.583,59.664 42.464,159.504 2.34,40.861 -24.63,3.53 46.24,80.251 82.269,86.37 83.469,23.24 149.543,243.336 319.197,8.288 19.811,250.786 115.803,-1.235 -13.79,405.395 73.201,91.796 91.642,14.89 108.812,76.627 281.336,15.432 18.383,90.612 133.811,176.007 126.66,0.011 39.34,41.332 112.36,19.632 163.2,85.014 18.441,80.962 75.93,57.53 5.4,67.378 60.64,25.74 7.271,44.699 47.53,6.441 32.38,172.776 84.07,46.63 165.151,245.376 165.77,-30.977 10.929,-68.638 68.81,-30.988 1.54,-33.389 95.919,-76.567 117.972,30.594 55.721,-18.867 2.723,181.248 35.562,45.492 -24.54,34.498 66.103,60.223 4.001,89.829 56.662,47.363 -10.159,57.91 51.662,107.284 -35.22,29.499 18.151,38.231 -26.94,42.379 24.692,93.302 65.623,116.805 65.291,9.3 28.622,63.46 120.933,48.599 7.771,98.869 40.982,78.26 30.561,-1.451 -16.2,29.85 30.89,7.89 8.632,99.27 25.1,0.699 37.283,127.609 67.822,78 18.064,209.518 129.962,189.97 -6.38,93.811 94.572,188.84 -16.58,137.29 56.741,113.21 64.461,48.94 79.821,-14.15 63.371,50.07 391.127,713.47 -9.29,178.473 56.151,111.231 14.12,224.723 163.068,354.966 -1102.67,114.749 96.928,480.207 147.508,326.436 60.595,276.478 -22.736,332.039 350.176,-5.426 -66.044,-199.708 119.401,-135.942 66.778,-166.61 -43.375,-348.218 156.271,-77.073 103.74,-121.761 372.411,-83.934 -10.042,-294.25 113.319,-21.741 70.55,41.47 67.481,158.809 130.81,82.939 200.75,-83.903 16.46,36.54 101.141,8.119 65.041,41.839 159.051,143.548 104.851,142.609 16.75,79.29 58.26,4.859 45.341,88.41 130.631,44.858 42.89,65.739 119.692,32.218 97.651,-9.322 204.292,82.727 161.012,145.688 87.731,11.259 z "/>
<path fme:OBJECTID="10" fme:SHAPE_AREA="434975092.315994" fme:SHAPE_LEN="102914.50484198" fme:NO_CANTON="22" fme:NOM_MIN="Aigle" fme:NOM_MAJ="AIGLE" fme:NO_DIS_FED="2221" fme:NO_COM_FED="0" fme:NO_COM_CAN="0" fme:NO_DIS_CAN="1" d="M 63903.1,17129.8 l -150.812,184.429 -239.393,482.662 -193.752,314.02 -364.288,322.604 -113.836,218.848 9.174,276.617 290.365,607.783 87.313,347.529 -40.973,790.236 -46.95,260.21 -65.059,152.384 -337.897,367.43 -348.423,203.219 -129.64,108.733 -414.991,543.753 -469.026,435.751 -265.892,425.336 82.594,17.522 46.671,-77.962 124.892,-74.217 80.599,7.121 101.024,-90.61 110.577,-12.168 167.805,74.345 108.15,-5.966 251.516,170.885 15.458,-59.986 112.235,-25.439 225.39,130.952 231.817,-26.424 114.57,63.699 52.738,74.449 13.465,-66.35 86.222,-2.194 45.226,38.217 33.124,-22.777 -21.448,-24.047 41.074,7.331 28.578,33.495 55.02,-7.021 76.373,90.263 63.118,-148.476 129.04,4.605 107.38,-72.421 62.902,31.946 26.056,-38.454 23.72,38.496 131.775,10.291 90.844,-91.263 175.873,68.962 94.355,107.546 77.498,20.579 -4.319,45.819 34.7,-33.73 64.131,-0.581 3.519,48.625 48.661,-28.928 81.914,8.585 26.524,-34.661 122.999,47.652 147.475,-56.86 66.726,44.11 80.874,-83.913 104.172,-46.056 116.819,31.75 170.666,-24.747 90.615,-36.68 -7.516,-80.856 218.065,-45.425 78.629,122.555 -33.62,30.251 8.714,48.885 57.247,17.438 33.945,-50.418 -64.397,163.399 116.591,-13.66 67.749,-59.261 151.015,67.987 124.716,170.624 38.992,178.368 -20.264,233.099 162.876,102.672 150.317,194.913 105.636,214.104 34.812,145.419 238.936,-63.037 288.657,100.202 127.64,161.096 196.779,169.395 122.741,200.666 437.095,185.938 8.601,44.23 333.189,385.16 763.915,524.949 267.129,223.313 238.778,120.943 118.22,119.997 153.651,277.215 185.919,142.525 302.518,-91.028 70.809,14 554.208,324.075 289.575,12.481 386.963,257.774 511.922,115.839 577.651,58.141 892.004,563.098 109.209,-136.256 53.64,-190.555 -80.249,-3.81 -123.647,-116.557 -52.379,4.369 -96.019,-75.218 -129.537,-142.577 -68.508,-108.997 8.731,-39.35 -90.148,-81.108 -102.935,-169.647 -14.658,-67.839 68.807,-372.073 24.852,-798.755 516.914,24.34 163.126,-41.35 393.851,34.379 783,204.776 11.151,-135.158 52.942,14.094 62.052,118.426 120.602,37.752 28.337,76.094 1745.45,51.142 397.3,-243.069 146.154,-349.529 142.445,-522.934 -29.052,-70.732 67.265,-430.127 -52.235,-217.032 137.768,-612.296 253.124,136.251 464.869,696.034 740.749,536.682 576.018,-178.881 439.385,-239.7 386.712,-157.255 246.2,-36.971 95.75,-343.22 425.187,-254.338 154.038,-143.286 -105.5,6.723 380.596,-1065.09 183.278,-213.377 193.392,-482.818 93.463,-293.579 104.596,-615.617 407.605,-46.35 293.582,219.885 245.301,2.054 173.068,75.851 172.268,-42.723 271.803,-8.909 471.991,-93.872 228.067,-133.318 294.963,24.619 301.189,-122.286 268.918,30.767 254.077,-151.334 221.093,-300.922 86.413,-45.877 445.813,204.248 35.466,118.523 130.946,89.223 748.554,-45.703 169.264,100.293 205.446,-105.362 -69.864,-114.434 31.696,-249.022 -31.559,-38.144 -15.797,-174.576 184.716,-138.186 47.781,-134.288 52.149,-383.442 409.657,-648.806 99.511,-16.833 158.687,49.493 513.884,325.376 -7.614,-105.664 113.54,-88.446 27.714,-99.222 153.52,-48.492 -42.143,-64.776 -130.71,-25.628 -125.058,-225.748 -137.563,19.681 -78.705,-72.24 -118.639,-13.881 -231.469,-104.187 293.621,-998.311 -99.312,-2147.82 -2506.39,-2810.47 11.578,-969.914 591.243,-673.551 -198.383,-6.31 -38.43,-76.141 73.121,-300.411 -67.658,3.02 3.069,-53.73 -78.128,-38.17 -208.432,15.009 -118.627,-93.85 -150.126,-64.191 -38.68,-81.46 80.546,-495.432 149.552,-557.941 -71.724,-300.692 -161.207,-145.32 -202.135,-97.431 -201.392,-7.511 -147.403,68.3 -80.268,-47.17 -115.931,-210.581 -75.89,-102.82 -90.399,-49.23 -196.262,-295.841 -35.473,-172.03 -230.078,-143.991 -187.241,-239.49 -71.111,-142.82 -256.83,-269.531 -99.869,-77.12 -414.069,-50.13 -269.086,-518.771 -37.443,-188.131 9.269,-184.703 -107.617,-136.003 10.289,-40.26 -408.657,-187.195 -73.798,-69.021 -106.827,-213.774 -122.996,-108.652 -449.786,-147.464 -667.85,76.394 -178.283,-143.162 -58.798,-381.193 -171.698,-352.95 44.632,-329.308 -38.824,-161.237 91.605,-159.511 -198.56,-73.902 -27.411,-64.589 -56.231,-31.347 7.228,-78.22 -100.712,-130.645 -211.423,-186.03 57.268,-76.561 -227.183,-181.011 -106.943,-155.074 0.338,-55.709 -212.002,-159.481 -16.351,-55.409 -135.001,-67.355 -31.681,-64.078 -357.681,-155.726 -159.954,-189.002 -257.809,-38.861 -204.476,-299.829 -402.065,-359.042 -190.759,-20.713 -58.641,-47.168 -152.19,-42.994 -117.781,-89.115 -272.589,-15.241 -30.971,-52.458 -63.58,-19.608 -40.989,5.582 2.201,42.029 -74.81,-7.917 -129.601,54.156 -91.64,88.357 -106.06,47.036 -561.891,-172.181 -253.007,-197.213 -89.424,-151.909 -145.674,-58.613 -111.821,-4.592 -276.728,-178.094 -60.723,-123.71 -178.093,-32.063 -313.289,-220.374 -175.314,-85.563 -155.402,3.706 -45.142,-57.53 6.31,-41.709 -254.176,-111.004 -267.914,-7.667 -63.663,-96.52 -68.499,109.558 -55.593,224.789 -197.448,208.17 -307.538,644.656 -358.732,433.265 -317.648,233.818 -247.587,115.21 -86.389,96.694 -30.6,104.339 -1.058,254.703 -242.838,1251.3 -68.837,159.93 -239.699,155.205 -90.398,168.401 -37.545,209.299 31.156,298.047 -13.594,277.948 -50.496,187.2 -132.098,162.252 -221.503,122.201 -92.401,86.68 -165.6,412.67 -355.16,470.553 -91.854,760.062 -53.491,143.08 -95.263,119.261 -396.008,295.106 -402.758,379.158 -405.068,488.979 -336.466,425.938 -112.082,228.103 -226.37,1196.43 -95.285,339.664 -123.586,173.74 -703,687.893 -636.546,370.128 -236.36,211.032 -113.366,198.224 -49.749,233.211 -5.368,450.393 -128.415,469.014 -61.903,434.121 -107.974,431.405 50.771,716.13 -36.794,305.826 -71.343,335.011 -82.943,180.512 -655.762,847.911 -135.729,118.036 -149.977,68.365 -146.079,19.938 -1040.19,-115.313 -251.564,71.528 -234.467,159.981 z "/>
<path fme:OBJECTID="1" fme:SHAPE_AREA="65128582.173858" fme:SHAPE_LEN="57442.5581978939" fme:NO_CANTON="22" fme:NOM_MIN="Lausanne" fme:NOM_MAJ="LAUSANNE" fme:NO_DIS_FED="2225" fme:NO_COM_FED="0" fme:NO_COM_CAN="0" fme:NO_DIS_CAN="5" d="M 42321.7,40612 l -211.789,33.721 -40.938,133.953 -200.51,34.019 -40.129,-0.42 -4.461,-120.492 -41.869,-23.56 -95.149,-121.852 -98.058,-61.021 50.978,-158.063 -48.809,-83.971 151.146,-139.692 -440.65,-238.091 16.249,-25.82 -86.36,-54.253 -44.998,69.768 -75.101,-56.775 -220.492,260.895 -26.141,-21.038 -153.275,156.007 -167.981,-99.053 -17.96,21.199 -76.385,540.608 -71.48,0.242 -82.07,73.862 33.04,92.7 -188.03,5.784 40.881,145.201 38.62,19.329 -11.4,53.751 40.96,32.141 -59.04,122.482 46.728,167.644 -33.77,72.872 71.349,248.605 -24.871,129.802 65.979,112.483 4.189,158.413 60.999,123.312 131.048,113.162 75.661,282.643 -28.859,67.29 111.212,153.739 40.673,136.399 69.681,90.518 -22.21,17.081 -363.805,211.733 -52.278,69.601 -48.63,7.23 -65.781,-57.149 -68.64,-0.219 -4.149,24.04 -217.79,-62.057 -123.484,132.346 205.797,25.59 146.232,140.133 -197.447,272.966 -50.554,-277.431 -66.559,57.425 -122.98,-190.777 -151.873,59.629 -48.885,217.842 83.541,168.753 28.079,140.669 73.365,144.664 183.694,162.735 26.44,-11.231 85.52,59.869 11.891,104.907 42.92,11.019 25.615,53.505 23.327,220.831 79.179,84.15 -22.627,113 78.684,34.484 -3.034,154.822 41.44,171.529 129.64,-35.622 17.45,137.565 191.869,-40.234 33.518,192.763 133.228,-55.747 21.897,120.856 44.355,59.296 150.127,79.611 135.349,-5.623 5.523,-44.736 238.304,-114.285 -22.035,-136.857 302.878,-131.896 -39.442,-62.167 864.494,-144.052 38.371,-82.707 -11.478,-166.526 65.092,-76.464 -37.222,-220.972 156.992,-28.051 -58.132,-275.535 45.355,-15.347 -12.089,-158.149 230.198,-22.837 41.051,35.557 61.542,-119.455 39.263,41.699 48.624,-37.563 -1.229,-37.72 45.245,1.898 80.214,-59.2 37.769,-64.83 92.043,6.205 40.04,-39.607 14.503,16.766 23.885,-52.419 213.617,37.086 61.394,-55.381 58.54,-6.219 82.05,44.78 65.069,-44.43 75.88,0.92 15.139,-80.74 94.25,-47.23 31.268,-141.531 141.89,-35.259 49.269,-94.13 58.549,-28.66 -14.792,-181.472 22.069,-26.8 -52.58,-63.04 73.999,-2.541 36.739,-47.941 2.847,-228.732 79.719,46.909 114.888,9.168 80.8,70.289 51.069,-4.641 59.491,97.97 176.527,16.087 117.39,108.239 22.009,-10.701 38.091,81.71 6.022,159.181 123.07,147.384 207.947,32.162 88.051,-89.943 105.415,5.739 51.279,-42.491 -50.582,383.461 -69.355,201.702 -40.099,20.351 -74.667,142.851 -19.836,195.641 -48.618,35.281 12.085,292.95 -134.686,148.773 -103.488,40.993 -101.73,-48.318 -23.149,69.681 -65.209,44.751 -66.988,109.292 273.262,249.874 234.719,68.384 3.901,94.05 55.52,23.069 1.859,-52.37 80.27,12.598 53.62,56.869 51.829,-61.431 13.621,39.609 248.832,160.772 13.941,50.06 -183.571,343.142 83.35,11.038 126.425,260.615 18.63,100.519 88.171,-57.533 129.179,20.037 154.539,-49.724 74.137,-110.322 29.616,-158.319 41.939,-28.661 89.414,-222.181 88.192,80.517 240.751,-10.988 25.808,-152.51 26.86,-1.221 -14.923,-198.979 36.99,-31.892 180.854,109.514 133.371,35.835 46.251,58.05 29.389,-28.509 108.048,6.981 38.78,33.77 38.379,-28.409 -73.26,-71.891 76.808,-72.528 98.398,-22.109 -80.583,-226.24 43.909,-107.968 145.891,-11.158 181.381,-125.466 128.132,-218.216 77.23,-32.338 851.857,-794.38 473.971,22.285 1102.67,-114.749 -163.068,-354.966 -14.12,-224.723 -56.151,-111.231 9.29,-178.473 -391.127,-713.47 -63.371,-50.07 -79.821,14.15 -64.461,-48.94 -56.741,-113.21 16.58,-137.29 -94.572,-188.84 6.38,-93.811 -129.962,-189.97 -18.064,-209.518 -67.822,-78 -37.283,-127.609 -25.1,-0.699 -8.632,-99.27 -30.89,-7.89 16.2,-29.85 -30.561,1.451 -40.982,-78.26 -7.771,-98.869 -120.933,-48.599 -28.622,-63.46 -65.291,-9.3 -65.623,-116.805 -24.692,-93.302 26.94,-42.379 -18.151,-38.231 35.22,-29.499 -51.662,-107.284 10.159,-57.91 -56.662,-47.363 -4.001,-89.829 -66.103,-60.223 24.54,-34.498 -35.562,-45.492 -2.723,-181.248 -55.721,18.867 -117.972,-30.594 -95.919,76.567 -1.54,33.389 -68.81,30.988 -10.929,68.638 -165.77,30.977 -165.151,-245.376 -84.07,-46.63 -32.38,-172.776 -47.53,-6.441 -7.271,-44.699 -60.64,-25.74 -5.4,-67.378 -75.93,-57.53 -18.441,-80.962 -163.2,-85.014 -112.36,-19.632 -39.34,-41.332 -126.66,-0.011 -133.811,-176.007 -18.383,-90.612 -281.336,-15.432 -108.812,-76.627 -91.642,-14.89 -73.201,-91.796 13.79,-405.395 -115.803,1.235 -19.811,-250.786 -319.197,-8.288 -149.543,-243.336 -83.469,-23.24 -82.269,-86.37 -46.24,-80.251 24.63,-3.53 -2.34,-40.861 -42.464,-159.504 -46.583,-59.664 -172.914,-115.112 -31.011,33.98 -167.921,-121.861 -32.248,-244.86 40.642,-103.64 -50.791,-184.941 -133.191,1.458 -23.76,47.201 -133.071,-98.604 -87.78,-12.971 -26.66,41.45 -144.721,-56.463 -105.62,24.519 -67.5,-75.092 -148.501,-46.393 -24.97,20.29 -203.781,-151.632 23.299,-215.21 49.73,-43.053 0.2,-76.33 48.251,14.407 -1.131,-89.681 77.204,-94.873 -3.555,-61.085 -9.411,-47.348 -35.239,-12.237 -699.971,267.28 -197.623,-66.294 -40.299,30.84 -62.522,-10.172 -45.871,-76.464 91.211,-96.003 -144.122,-75.419 20.29,89.059 -87.66,70.512 -40.702,-134.102 -17.309,71.451 39.181,89.592 -196.357,179.943 -176.893,-74.285 10.273,60.754 -206.55,165.113 -87.051,-95.102 47.089,-71.662 -186.578,170.256 31.031,61.261 -77.774,66.59 -174.332,87.037 -276.692,53.484 -47.1,59.032 -42.21,-33.221 -8.172,98.411 -220.184,-4.601 -15.617,-107.09 37.666,-5.45 -35.126,-1.04 -4.252,-30.519 -216.635,73.7 -2.636,42.83 -100.398,40.65 22.483,79.84 -67.595,34.613 -229.774,252.829 -118.263,110.455 -276.749,165.681 -122.394,27.793 -131.152,-99.758 -92.769,-42.727 -37.549,19.432 -181.197,373.554 108.851,43.29 97.629,-32.692 -24.848,100.652 -53.659,62.052 84,369.605 41.33,-23.781 147.092,238.985 117.87,-63.592 -1.98,-71.962 355.54,-258.923 345.241,-88.067 61.38,16.63 -20.3,14.851 117.391,108.152 93.621,-0.531 0.03,44.421 36.701,-0.01 -46.42,190.587 61.241,177.135 -14.04,49.13 140.731,-46.362 148.441,6.096 -8.676,333.65 159.695,140.806 28.231,-27.761 82.513,77.478 -21.372,44.481 88.183,37.017 -36.292,76.651 124.974,83.027 -196.071,492.713 114.051,45.55 -53.296,208.984 73.151,22.35 -47.641,281.055 86.739,588.76 z "/>
<path fme:OBJECTID="2" fme:SHAPE_AREA="258161276.684471" fme:SHAPE_LEN="239344.846685099" fme:NO_CANTON="22" fme:NOM_MIN="Broye-Vully" fme:NOM_MAJ="BROYE-VULLY" fme:NO_DIS_FED="2222" fme:NO_COM_FED="0" fme:NO_COM_CAN="0" fme:NO_DIS_CAN="2" d="M 70009.7,71206.5 l 3.213,-139.994 22.837,0.062 51.919,55.085 -77.969,84.847 z M 57253.5,56802.8 l -54.199,27.401 28.118,44.529 -129.595,103.792 268.564,277.301 -284.362,2.516 -176.384,163.282 -124.847,104.273 -18.183,119.33 -63.662,65.663 -265.347,-293.75 -41.281,25.201 -86.878,-121.147 -118.823,-65.381 -427.927,232.66 16.761,75.705 -123.773,7.649 -31.854,400.836 152.715,366.171 105.595,119.769 194.266,127.858 363.093,498.047 342.95,363.51 410.882,544.562 159.936,135.917 258.512,47.197 71.949,53.758 57.9,2.919 478.863,595.272 320.557,113.033 428.797,43.749 86.129,83.047 143.859,-92.814 104.42,43.997 70.219,-7.412 198.408,-187.154 70.07,17.208 135.259,-79.583 402.015,-338.051 45.46,-72.278 31.739,7.779 162.947,-194.402 69.209,46.099 365.815,-167.855 395.065,-46.427 198.817,-61.363 156.397,-100.782 65.411,133.03 138.402,-65.485 203.911,211.819 58.495,143.417 -191.736,102.395 111.309,170.699 -100.861,90.098 77.302,130.273 -27.09,18.9 1230.75,1857.18 -150.627,225.549 -339.414,232.558 105.383,219.916 -189.346,160.099 -16.72,-17.09 -131.008,48.03 -248.287,125.509 -121.748,162.02 -32.173,-9.131 -141.64,280.405 -104.105,10.849 -76.05,107.486 -53.373,-106.94 -128.949,31.184 -23.4,-64.048 -98.707,-22.524 -14.091,-27.573 30.969,-39.201 -34.324,-8.59 -87.122,143.741 147.232,112.35 46.531,292.14 -239.31,171.474 -59.28,117.681 -0.54,176.829 -135.528,162.717 -217.632,29.325 24.675,131.786 91.816,138.741 -204.679,-174.544 -112.458,-2.048 -98.801,13.025 88.79,191.328 -88.473,-0.159 -88.307,-287.354 -65.95,-70.948 41.882,-48.669 155.653,26.178 0.919,-36.53 43.57,-7.089 -254.692,-383.084 -147.191,-121.186 142.057,-79.348 -371.663,-353.647 -306.462,-176.833 -371.039,-417.849 -192.952,-129.916 -85.767,-176.685 168.267,-74.218 -73.28,-92.338 -31.061,11.1 -40.207,-139.466 -159.496,48.81 -16.067,-109.758 74.974,-73.949 -280.198,-277.248 54.483,-77.469 -97.63,-59.377 -63.864,29.869 -92.024,-297.826 -321.364,-339.248 -135.692,-79.837 95.559,-238.803 -92.141,-51.048 10.213,-50.309 -56.83,-32.228 -218.233,49.349 -23.289,-33.499 -71.123,4.84 -92.235,-101.465 -101.009,-15.667 -21.798,-59.338 -134.587,-48.536 -146.836,164.68 -212.28,-190.437 -240.893,-117.706 -75.231,46.87 -34.749,207.618 -81.529,-1.119 -45.543,-148.438 -58.983,71.54 -54.08,13.23 -73.401,46.12 -147.146,4.446 -90.466,-11.766 -113.402,-83.383 -171.073,102.645 -97.641,-87.315 -85.962,59.922 93.12,185.985 -29.072,132.45 46.896,293.154 21.037,481.193 -57.058,3.772 79.295,49.466 40.703,116.767 41.177,30.598 -132.89,109.264 -124.096,23.695 -309.815,272.15 -18.539,-76.828 -189.08,-123.12 -234.703,220.824 -15.442,117.277 -50.771,41.189 18.529,71.428 274.814,276.347 39.847,153.505 35.08,4.959 16.247,145.126 -30.152,80.618 46.27,4.359 19.129,56.398 -36.144,183.366 142.841,-47.412 -28.782,71.56 28.586,215.955 263.946,369.233 51.821,6.589 98.14,98.784 21.798,112.497 142.711,118.863 109.139,149.523 79.481,-52.931 83.159,204.932 -76.002,78.61 109.19,87.415 102.489,177.552 -47.381,35.2 146.45,158.922 -48.501,40.5 199.564,167.384 -73.579,71.632 310.731,287.595 147.735,185.592 92.396,-81.556 195.141,141.686 49.01,-23.991 31.12,81.729 305.849,-232.881 41.06,17.339 319.346,-387.352 -44.021,-64.889 32.919,-39.911 -67.96,-43.549 46.039,-66.61 95.11,30.098 86.608,-82.421 96.639,-14.092 75.77,83.408 75.569,-41.891 -14.83,-51.189 191.487,-113.233 143.437,-130.253 189.646,-298.711 207.112,419.574 381.286,-234.905 249.457,171.068 -61.762,87.489 50.362,29 24.86,-20.78 52.722,134.749 56.871,-14.51 60.302,223.488 62.472,98.929 281.757,-250.99 69.132,15.5 167.014,138.518 70.152,122.119 101.203,-35.15 59.982,121.139 91.442,37.509 -26.771,61.98 50.442,28.939 -118.703,98.83 182.871,201.496 73.832,-67.921 292.399,141.472 207.669,158.606 258.154,-252.003 45.45,38.58 53.501,-91.421 6.141,-97.659 -153.849,-136.374 69.312,-85.45 -28.62,-21.279 103.532,-122.08 311.454,-170.893 110.19,1.628 8.611,-50.452 61.691,-56.967 117.151,-58.841 63.469,65.497 134.943,-159.509 214.654,-156.202 103.089,47.608 74.27,-2.292 -1.348,-115.368 257.278,163.443 10.041,-22.01 390.48,184.229 162.521,-17.659 300.493,-94.088 63.668,200.646 213.771,27.419 154.17,76.166 -52.663,170.929 333.772,33.66 118.902,-42.117 176.717,251.665 180.832,-31.757 20.161,-40.897 -134.06,-128.263 208.876,-257.853 127.457,231.916 214.383,146.188 119.863,156.389 17.54,86.356 -42.963,193.278 2.351,209.102 140.714,202.059 182.956,445.407 23.716,224.856 386.977,199.391 90.094,301.806 208.573,148.759 69.658,85.37 45.608,227.935 -60.219,102.063 -196.101,124.086 -54.833,168.917 -378.035,-38.037 -187.405,210.142 -210.941,-144.448 -188.178,-203.99 76.07,-84.477 -342.927,-389.324 -315.415,211.475 -175.748,67.171 27.592,36.449 -23.108,60.273 165.119,173.222 290.873,496.203 -101.129,178.556 -75.1,235.474 85.481,131.847 -155.511,23.944 134.367,142.868 -65.411,51.757 -9.985,63.472 -49.51,-6.989 -209.787,581.619 43.726,207.036 99.213,44.339 -56.483,33.647 27.056,73.511 48.82,23.896 37.193,625.188 244.25,484.541 -29.436,22.233 787.516,1029.76 783.294,569.196 -51.769,73.201 -82.478,116.553 -129.921,-43.649 -224.611,548.785 -131.911,-45.967 -70.847,192.271 -118.55,-35.987 -162.346,307.753 -73.609,22.181 -86.401,-38.148 -212.075,322.994 -1254.5,-514.37 -43.757,168.882 -116.721,-63.589 -41.237,140.983 -145.697,170.424 358.913,103.086 145.622,125.188 174.109,-75.943 214.97,121.254 131.781,120.227 167.3,29.096 156.99,73.926 168.827,-263.663 366.171,178.712 -54.139,82.611 395.591,198.827 -771.28,1038.41 -294.383,-220.636 -122.306,191.05 -128.331,-99.776 -195.204,301.811 -33.03,-24.269 -106.917,164.83 -66.021,-60.658 -79.857,122.871 -68.062,-99.428 -133.455,218.75 -170.316,148.082 104.052,167.766 54.61,7.869 283.376,339.759 307.123,228.583 -174.163,303.199 115.421,68.709 166.753,-331.088 304.582,185.168 103.489,-41.28 61.97,10.5 11.801,42.15 284.588,188.25 652.636,257.455 236.647,196.663 15.417,121.108 101.731,-124.219 133.994,-42.751 135.63,-129.07 -101.017,-178.675 -52.499,-12.979 -20.818,-42.258 -38.449,16.5 -23.598,-56.748 -40.36,17.64 7.711,-34.449 -112.275,-79.656 8.701,-30.209 -132.835,-62.447 52.774,-212.644 112.23,-84.089 182.685,14.827 73.696,57.617 163.219,-107.229 130.086,17.128 216.51,-418.891 180.47,130.004 91.174,-230.347 -38.104,-81.078 34.913,-53.94 145.063,-67.771 44.328,-126.019 -39.58,-38.259 26.991,-53.371 107.372,-71.991 183.434,-50.031 216.427,-454.373 234.859,-150.033 -35.761,-32.56 90.878,-147.112 -144.283,-24.078 41.318,-110.061 57.911,19.739 21.08,-39.09 139.964,82.409 31.308,-96.54 266.612,-417.604 177.807,72.336 350.703,-674.901 348.522,214.489 -390.781,654.975 51.363,57.12 -205.882,401.597 -79.014,-13.483 -157.233,163.157 46.326,54.441 -118.515,256.411 189.662,113.868 118.496,177.895 90.535,-143.865 199.789,101.332 32.32,-36.809 359.898,187.405 -54.425,151.774 259.754,92.876 171.264,-330.267 28.056,-31.504 45.424,28.629 57.024,-12.349 196.251,-239.298 647.136,-962.275 -226.497,-265.53 40.639,-35.438 -286.656,-318.781 -198.794,-171.705 -70.819,-59.415 -177.449,-581.515 275.906,-280.63 -213.298,-338.864 113.639,-188.358 -115.997,-154.546 -19.13,-222.589 23.885,10.79 193.904,-194.951 -89.053,-140.59 166.02,-139.353 73.053,78.674 35.153,-42.703 116.702,74.535 193.936,-241.294 -25.549,-18.58 21.407,-35.432 55.851,38.422 76.124,-93.653 -97.19,-87.788 80.483,-78.531 -189.058,-222.907 -123.985,108.781 -98.733,-134.57 239.591,-222.625 -15.315,-38.744 72.374,-34.708 -28.159,-149.606 -48.926,-73.889 10.629,-48.824 474.049,-175.315 35.207,-140.751 -68.807,-97.31 32.525,-70.21 -200.055,-249.821 -14.597,-204.215 -126.86,-109.699 -56.166,-97.029 -104.476,-71.867 -21.47,-49.271 -13.023,15.403 -11.624,-142.795 -40.646,-37.95 -190.149,35.255 -148.68,79.653 -419.759,18.933 -134.206,187.326 -76.971,-89.842 -66.186,16.765 -40.119,83.675 -65.13,-0.808 -24.608,105.706 -99.998,97.518 5.072,47.752 -197.23,67.149 -1.808,71.274 -38.16,-1.719 -239.171,-352.683 -5.434,-61.321 -75.33,-78.601 -206.881,-493.876 -24.931,-58.611 171.947,-113.203 -198.066,-186.149 -80.904,-128.38 88.515,-208.102 123.007,-93.661 -115.623,-106.21 78.637,-89.661 2.368,-71.471 288.193,-286.104 38.989,-51.85 -13.821,-36.94 125.457,-115.462 -94.283,-101.73 244.164,-204.573 -92.632,-102.19 37.198,-76.08 -283.748,-207.889 -260.11,-327.225 -55.581,-146.139 -93.799,-29.529 -71.56,-139.058 68.898,-95.601 -38.92,-110.579 35.119,-68.619 -33.64,-46.51 167.262,-25.077 -109.357,-64.176 26.25,-158.51 -50.196,-94.735 -196.931,-85.16 -214.58,-161.027 -110.453,-269.29 -68.15,34.96 -126.091,-5.969 -31.748,70.231 -109.808,98.873 -136.931,-72.439 -34.58,34.071 -126.271,-71.009 -54.65,-48.5 -135.181,-251.449 -47.421,75.911 -47.27,-29.43 -38.332,-193.742 -58.376,-89.365 20.477,-7.692 -235.927,-224.144 -36.063,37.728 -157.507,-168.635 116.294,-79.34 -141.049,-242.334 150.592,-59.156 59.127,72.088 100.105,-122.814 -335.044,-227.124 -608.183,-826.3 -226.32,-237.399 -230.699,143.615 80.111,65.07 -51.895,93.337 -70.161,-63.699 -159.113,83.386 -218.665,-186.909 -254.993,-394.566 -3.302,-27.799 182.01,-133.134 -127.568,-138.985 28.781,-63.253 33.36,11.301 29.41,-29.311 27.24,-87.471 97.628,146.853 223.361,-148.286 148.507,148.675 71.331,-39.481 -7.13,-31.822 154.062,-198.698 -5.559,-60.992 39.87,-38.832 124.334,35.177 45.43,43.67 156.774,22.075 188.806,120.286 287.864,94.451 340.02,-410.553 59.811,-6.041 166.828,-111.66 4.333,-108.53 115.07,-310.188 117.574,-64.308 -122.685,-392.267 -205.416,-281.21 -58.381,-130.573 -14.545,-135.186 -71.369,-85.367 120.312,-165.943 -20.434,-51.245 -566.942,-535.892 -512.194,-592.704 -125.747,-231.272 -53.012,-118.108 -46.649,24.62 -65.732,-87.268 -62.962,-143.898 -41.788,108.089 -53.038,40.111 -91.793,-158.308 -298.969,-75.915 -334.754,-338.814 -158.511,-108.207 -34.949,34.16 -268.555,-304.264 -227.427,-328.774 -117.214,-231.567 -36,18.56 -129.181,-105.487 -163.907,-329.315 159.465,-144.832 -220.538,-424.844 24.969,-30.58 -55.931,-80.759 33.598,-42.26 -21.89,-35.83 -134.044,-206.436 -129.308,50.071 -100.783,-149.367 -36.523,-132.269 -81.28,-6.238 -106.603,-189.508 -205.289,6.274 -440.15,-576.21 -168.541,-167.649 -183.052,174.084 -168.827,96.507 -159.558,-128.07 -100.052,-201.638 13.825,-164.377 -202.487,-34.781 97.354,-449.51 47.797,-58.219 261.079,-166.383 69.749,12.921 207.989,-199.326 -324.882,-434.489 -241.702,-505.171 300.053,-201.672 -83.473,-94.517 56.549,-150.133 -164.856,-201.644 -24.03,16.701 -64.782,-70.538 -56.141,35.163 -73.812,-41.458 -276.799,176.077 -57.322,-112.308 -140.841,-99.45 -11.912,-74.149 -242.519,-209.868 -633.21,330.308 -73.84,-78.135 -100.534,77.25 -58.687,52.52 150.831,221.758 -149.585,0.334 -52.107,47.83 25.75,37.748 -261.778,109.994 -16.542,-74.757 -52.707,26.611 -93.119,-73.185 -219.931,85.853 -154.863,-265.786 -188.991,82.613 -96.561,-65.657 -135.021,-181.541 -390.578,-722.144 -277.818,-282.253 27.366,-81.881 60.606,-7.252 4.311,-71.111 -181.513,-44.754 -119.482,10.734 -26.018,128.851 -59.597,101.042 -115.05,-35.576 -60.24,57.262 3.665,70.27 -28.547,4.271 -13.52,-27.61 -157.422,6.144 -140.4,47.114 -223.841,-90.625 -138.201,-95.217 -236.27,32.916 -30.38,-62.898 17.239,-88.518 105.485,-62.227 34.082,-76.977 232.345,-101.587 -33.287,-96.735 41.9,-32.307 -45.76,-82.689 -114.381,50.233 -215.875,-511.02 -39.811,-346.969 -21.091,-91.677 -63.769,-50.735 -36.143,-226.726 108.593,-332.66 84.77,10.215 72.577,-38.627 15.593,-164.758 81.38,10.959 -1.991,-89.906 44.791,1.764 -38.498,-177.139 11.915,-120.423 111.957,-300.957 5.73,-125.54 -27.829,5.922 -59.437,-279.726 37.851,-291.418 -26.558,-46.049 -59.438,-19.847 88.559,-310.994 23.561,-296.322 38.689,-119.111 -122.223,-844.921 -34.559,-75.549 -277.583,-95.013 -349.946,-94.044 -226.138,64.375 -284.761,158.387 65.871,117.269 15.487,363.525 -127.599,-30.77 -359.58,116.366 32.89,53.68 44.6,0.219 36.86,85.521 -47.481,41.71 131.869,171.732 -43.151,80.942 43.12,30.5 -15.471,99.832 34.969,45.99 -35.749,17.22 -9.882,147.133 -92.859,23.731 29.469,133.371 -262.279,60.693 25.729,114.441 -422.318,19.823 -549.789,377.821 -46.34,-5.029 -24.781,-115.281 -138.902,-165.029 72.609,-81.282 -28.69,-46.83 2.219,-103.521 -51.951,-58.37 -26.142,-259.311 -65.461,-77.61 -27.31,-122.681 -80.72,-33.479 -28.11,-124.17 -41.891,-14.65 12.041,-74.251 -66.591,-60.799 50.051,-55.771 -60.43,-61.24 52.941,-49.431 -141.071,-166.1 -20.52,-111.42 46.251,-10.441 23.28,-46.631 -48.559,-363.482 -37.61,-17.999 -1.05,-66.14 -195.562,-58.747 -20.06,-39.69 -75.611,-16.729 1.48,-51.63 -146.912,-82.738 -4.309,-135.711 -147.552,-70.008 -17.929,-161.46 -86.161,-59.219 -1.369,-151.441 -87.731,-11.259 -161.012,-145.688 -204.292,-82.727 -97.651,9.322 -119.692,-32.218 -42.89,-65.739 -130.631,-44.858 -45.341,-88.41 -58.26,-4.859 -16.75,-79.29 -104.851,-142.609 -159.051,-143.548 -65.041,-41.839 -101.141,-8.119 -16.46,-36.54 -200.75,83.903 -130.81,-82.939 -67.481,-158.809 -70.55,-41.47 -113.319,21.741 10.042,294.25 -372.411,83.934 -103.74,121.761 -156.271,77.073 43.375,348.218 -66.778,166.61 -119.401,135.942 66.044,199.708 -350.176,5.426 26.997,399.448 56.432,100.328 215.513,-72.953 50.422,77.899 22.3,87.08 -51.759,55.42 68.491,153.669 -60.879,113.821 -18.349,172.49 152.651,245.969 -28.399,44.731 49.88,56.26 -13.129,48.041 131.84,106.05 171.729,24.329 175.82,123.32 53.91,-9.3 210.222,366.882 228.939,-22.342 271.452,404.013 117.94,81.92 -64.719,73.912 152.47,96.04 86.681,195.491 109.931,100.171 97.861,247.862 51.954,363.882 -6.079,231.111 47.8,211.219 -104.099,152.728 146.53,113.699 102.17,223.187 -19.079,186.029 33.93,98.529 -11.7,65.509 -40.909,31.64 -0.47,90.629 68.18,-15.52 186.249,34.539 16.52,57.28 264.881,257.217 397.541,695.722 63.78,47.19 80.509,-22.67 26.6,32.979 53.77,-33.179 53.3,43.259 178.65,-12.15 73.91,117.489 57.3,-8.45 80.91,80.329 26.85,86.069 -21.83,13.64 -6.52,48.909 -74.81,32.58 -62.449,80.989 6.27,147.76 -88.559,111.62 20.171,78.33 178.919,-38.751 67.53,90.51 1.89,79.23 -149.148,158.932 70.804,188.604 52.771,12.02 5.645,270.686 -26.019,45.28 -76.151,-6.6 -134.268,84.582 -44.049,50.11 5.281,64.612 -197.339,62.131 18.093,171.493 74.7,125.061 -597.099,410.946 9.493,380.715 345.139,211.38 124.088,23.639 220.227,-52.632 193.389,44.19 279.787,-288.557 213.7,198.678 58.07,4.37 227.791,170.816 229.521,290.286 170.173,77.828 113.351,-5.841 20.761,24.069 -105.261,146.661 64.594,370.64 -79.08,111.008 143.544,226.467 97.594,266.846 230.06,-236.126 147.241,-33.491 185.002,-155.642 135.031,-39.331 244.143,20.717 -23.83,-82.979 46.008,-118.851 47.701,31.339 69.491,147.778 160.12,67.008 125.361,174.847 45.24,-13.131 24.341,99.52 52.85,23.869 46.45,100.419 30.409,0.899 83.217,104.518 134.543,230.226 196.083,115.235 28.809,57.669 z M 72988.2,78043.6 l -998.787,986.101 -532.776,595.135 -103.929,69.187 -244.958,382.376 -266.165,245.313 253.191,283.485 -204.601,179.19 439.024,507.496 -82.462,188.521 -93.759,85.349 -292.602,164.848 -179.83,57.651 -62.683,89.52 -126.462,-77.05 -171.373,-174.929 -67.352,81.771 -137.1,-73.023 -177.239,231.332 -160.448,29.567 -100.289,92.927 -65.013,4.7 -254.274,361.766 126.567,83.588 314.397,314.621 127.205,35.966 126.004,146.158 186.411,67.604 107.715,144.332 101.479,59.346 68.319,132.69 208.454,97.265 46.475,94.184 91.439,23.059 151.987,232.239 83.209,21.072 54.446,16.212 80.59,103.745 98.687,350.275 165.779,187.163 121.474,41.786 102.102,75.611 41.359,81.225 50.517,8.799 39.879,50.81 45.059,-9.029 178.805,164.581 27.249,-18.367 85.968,112.634 142.907,52.302 67.511,-47.651 141.288,31.601 231.735,141.265 85.418,104.763 84.96,31.479 134.718,135.523 86.543,0.794 42.489,48.832 83.972,7.925 77.32,62.371 -10.632,25.903 122.901,71.835 -13.786,107.369 33.844,-34.973 37.169,37.223 -32.403,31.982 20.379,20.351 43.485,-44.723 160.432,11.847 113.787,94.22 56.633,83.11 -26.12,34.061 59.062,39.129 17.52,-19.781 45.193,91.071 55.643,40.269 127.253,-8.883 181.048,173.168 53.053,124.191 64.713,50.679 36.445,213.523 197.668,144.897 50.874,148.151 134.775,89.078 88.595,142.921 32.081,-21.331 63.235,221.022 53.853,69.4 3.452,107.551 76.383,49.979 -53.198,168.165 35.661,8.829 16.332,88.641 49.242,21.299 -7.269,92.392 -106.372,102.834 8.801,40.91 1127.37,-338.384 307.169,-253.207 309.479,-181.875 209.909,-238.177 -215.031,-262.599 79.758,-219.487 -258.971,-149.525 130.619,-259.078 -159.401,-103.783 119.029,-225.297 -130.691,-61.682 64.41,-147.705 28.92,3.51 72.06,-273.389 -240.661,-64.39 51.111,-94.419 121.65,-64.72 60.101,-256.257 81.141,-275.597 -0.8,-217.348 54.591,-315.108 -6.538,-218.221 -180.841,-334.661 -81.08,-71.19 148.063,-224.072 -57.664,-67.671 -162.85,-65.57 -258.94,-183.53 -370.149,-133.008 -49.53,-153.361 -65.08,-23.13 9.139,-74.101 -69.82,-94.02 -86.669,68.591 -75.17,-77.53 59.109,-74.601 -101.62,-97.69 -30.8,8.48 -127.92,-129.72 -99.07,-44.69 -53.4,-61.68 8.32,-32.531 -97.77,-80.68 -161.49,-51.569 -330.663,-250.715 17.629,-135.02 176.844,-268.003 -55.015,-77.687 10.827,-56.767 -44.897,-23.111 12.096,-72.908 499.993,-716.009 356.826,-342.594 199.619,-111.012 86.88,-44.241 42.95,23.029 287.51,-128.213 124.93,41.308 94.71,27.879 72.991,102.189 47.42,17.249 143.64,-157.341 419.48,29.315 298.733,299.756 92.72,-12.481 64.58,58.479 148.151,34.318 50.301,73.299 39.49,-8.04 155.051,90.568 141.59,4.668 55.67,49.18 106.079,15.61 341.33,252.75 285.318,-434.423 201.528,-193.702 89.96,36.71 98.307,-192.976 -200.578,-144.829 -5.25,-87.487 -342.86,-195.588 197.508,-245.51 -154.969,-83.43 57.129,-73.337 -28.75,-14.83 23.13,-64.257 -41.7,-20.34 10.84,-34.769 -184.1,-89.559 -239.846,-28.054 -185.104,16.906 -68.288,-59.705 -110.599,-18.811 -74.03,35.589 -89.119,-68.719 -18.58,15.959 -5.411,-76.498 43.7,-74.377 107.45,52.269 11.859,-28.989 47.57,19.98 14.27,-37.858 140.8,82.068 54.569,-68.287 -297.849,-264.905 -384.855,-216.854 88.677,-115.936 -284.178,-172.359 9.629,87.219 -322.144,-92.224 40.697,-146.979 -59.401,-106.143 -158.033,-116.161 -24.192,-461.35 206.386,47.5 -15.114,46.759 237.713,50.353 29.64,-112.327 -77.964,-19.443 38.359,-113.74 2.406,-143.753 150.943,-110.993 -20.692,-23.353 64.157,-162.663 86.85,-121.2 -61.716,-184.821 14.564,-31.325 -109.259,-122.133 -80.715,-0.084 -67.976,-68.591 -56.098,-76.125 48.183,-57.029 -29.512,-63.197 -108.604,-41.369 -111.184,-93.468 -75.277,13.257 -61.459,-210.948 -119.69,-99.058 -10.292,-101.864 -88.748,-32.219 7.566,-29.138 -62.756,-66.243 12.545,-26.785 -144.826,-182.859 -33.797,-130.858 -46.29,-12.719 -30.794,-167.639 -86.421,-148.496 -46.995,-4.363 -12.627,-65.546 -78.689,23.665 -92.356,-41.949 -49.293,-98.343 -94.039,36.384 -138.44,-361.148 -173.278,-228.091 28.613,-61.59 -84.913,-70.512 7.743,-45.482 -114.105,-118.216 -253.111,158.427 -164.291,-306.627 -154.079,108.745 -168.997,248.639 -100.008,-102.799 -209.466,341.483 50.718,27.045 -4.772,174.208 178.947,99.837 -7.801,37.994 165.065,153.892 -57.131,193.699 113.676,118.132 170.156,12.921 118.999,80.665 81.983,179.872 -261.57,138.054 -480.281,484.825 90.283,96.316 45.733,175.777 136.954,260.344 179.544,223.594 -85.06,135.471 -187.341,183.882 -133.842,-62.937 -345.395,135.647 -31.069,22.9 -22.236,122.856 -297.603,-121.905 -272.158,382.873 -113.508,74.239 -30.485,-205.447 -37.081,-49.809 -3.975,-184.975 -95.738,76.888 -74.562,-103.417 -93.251,-27.329 23.678,-78.678 -23.251,-35.229 -160.16,1.361 -27.382,-82.558 -63.811,-53.628 9.597,-77.898 -126.93,-39.498 -254.997,89.598 -149.779,-2.879 -181.216,63.787 -418.93,517.862 425.059,364.377 41.93,-43.267 412.21,465.544 43.969,-38.438 280.178,364.774 z "/>
<path fme:OBJECTID="3" fme:SHAPE_AREA="282734750.685394" fme:SHAPE_LEN="132624.45203463602" fme:NO_CANTON="22" fme:NOM_MIN="Riviera-Pays d'Enhaut" fme:NOM_MAJ="RIVIERA-PAYS D'ENHAUT" fme:NO_DIS_FED="2230" fme:NO_COM_FED="0" fme:NO_COM_CAN="0" fme:NO_DIS_CAN="10" d="M 57690.7,31561 l -215.7,36.542 0.138,-33.19 -26.47,7 -130.615,-111.29 -55.879,40.411 -16.647,70.391 66.1,-4.361 27.213,59.691 -134.202,-12.459 -322.837,127.505 -180.701,-14.819 -149,81.81 16.383,283.028 33.558,75.379 -17.142,58.939 59.049,51.789 -94.964,121.989 27.977,294.438 5.21,32.96 -136.189,144.921 51.58,96.799 58.272,266.04 111.56,33.439 177.01,-142.261 78.95,91.429 305.356,19.438 70.408,29.599 17.77,39.9 -45.269,232.081 -51.119,130.39 89.558,108.67 135.417,26.339 73.479,59.889 -156.307,-2.159 -52.909,41.541 50.729,13.339 13.36,38.74 -71.358,26.341 -71.959,84.431 -17.299,504.3 94.968,268.76 201.576,6.788 34.252,148.13 105.921,142.599 54.193,177.069 29.519,-14.77 116.371,167.199 31.14,-6.08 47.25,62.139 -50.478,124.881 103.958,127.209 -42.4,88.311 4.73,94.98 135.038,140.499 122.649,36.338 198.579,-9.451 127.269,70.569 15.76,38.21 277.099,-2.702 187.679,42.17 41.97,-69.471 133.418,-754.809 388.615,-622.75 319.279,-324.567 69.952,-30.126 128.178,55.376 36.852,-32.751 34.843,14.182 121.198,-168.601 45.789,-163.726 88.827,-36.049 642.99,-40.327 78.618,20.424 342.403,64.715 156.177,517.689 124.052,252.247 242.285,161.734 228.403,225.954 293.957,401.95 139.295,164.626 122.537,91.427 160.051,255.604 1051.31,738.089 107.392,128.718 78.907,-43.9 -1.411,-63.049 -41.431,-32.24 -6.785,-170.805 0.268,-190.355 40.804,-124.547 -127.558,-206.634 -63.43,-240.783 -18.745,-168.226 54.645,-170.136 58.079,29.099 29.787,95.338 58.037,61.668 165.01,105.776 51.913,139.276 78.064,75.327 -20.303,104.687 231.483,-10.361 92.05,-72.439 92.206,32.689 110.698,-46.66 75.667,16.639 81.909,-27.26 102.203,99.267 92.469,-63.889 39.516,-174.016 79.527,10.679 32.072,-71.138 74.889,-35.6 32.758,45.679 54.308,-13.85 90.882,-99.578 68.268,-6.06 81.451,-92.509 147.686,-68.501 67.807,44.399 54.209,-65.69 137.766,-34.442 183.401,-337.039 53.828,-18.491 94.266,38.939 130.506,-32.322 -23.919,-35.319 80.26,-121.15 77.027,10.709 37.359,-27.571 -29.528,-43.809 42.061,-108.04 238.195,-79.853 292.387,31.682 104.327,89.866 98.911,-48.212 32.83,-52.57 78.119,34.177 247.279,-22.256 78.767,70.537 82.83,3.998 48.678,72.438 75.141,-66.092 201.458,-16.795 -1.728,-75.249 95.79,-50.762 53.283,-143.16 280.321,-154.386 178.672,-145.564 97.31,-64.792 2.342,-70.939 76.94,-49.112 -19.089,-61.429 104.653,-162.491 214.121,-132.974 50.03,-2.292 47.611,-79.56 46.55,-12.821 103.258,42.006 103.443,-149.021 -15,-33.049 53.322,-73.151 -83.999,-48.087 36.781,-70.891 -20.988,-52.099 37.78,-42.22 -28.608,-52.439 11.261,-76.35 -39.838,-51.708 24.552,-149.639 88.443,-150.121 -6.006,-200.408 60.721,-73.221 38.123,-161.05 53.502,-76.751 298.093,-275.365 123.13,-61.523 -78.677,-102.977 -80.399,-30.537 -103.497,-107.246 -6.438,-87.58 78.631,-229.871 -60.817,-276.277 6.37,-66.65 60.47,-62.441 -25.548,-239.199 12.503,-357.809 76.79,-233.271 22.87,-36.991 172.949,-8.674 145.37,-233.954 397.298,-422.359 47.421,-170.271 53.879,-12.511 88.812,-298.242 -603.878,-994.733 -20.493,-193.722 330.454,1.235 339.2,90.534 195.296,90.529 68.563,101.129 73.427,9.448 159.374,100.684 46.332,67.026 91.354,29.439 195.354,142.678 1060.34,461.389 36.046,-64.347 17.391,-31.006 44.909,83.847 174.982,887.656 41.788,312.742 -72.379,97.067 190.915,253.974 163.887,175.496 147.46,94.472 120.824,273.67 818.05,869.362 237.172,169.541 136.652,44.541 211.641,179.743 321.982,412.872 288.632,102.954 357.323,271.604 150.943,225.039 366.726,196.138 324.938,-228.895 182.81,-66.499 400.598,269.18 364.869,-121.637 345.359,3.851 147.571,-98.379 703.066,166.842 180.561,-165.689 202.274,94.444 187.006,164.331 59.307,104.775 42.987,216.801 128.769,61.981 145.854,223.189 179.232,56.504 422.831,243.176 358.709,129.335 289.944,451.985 -14.981,42.478 355.354,165.156 339.215,328.311 68.817,109.878 64.985,499.502 509.864,999.393 104.478,527.621 155.811,69.139 101.273,107.802 409.968,-133.187 400.221,-42.19 386.887,223.06 124.692,123.472 360.205,240.868 94.855,85.635 104.051,37.161 613.32,517.351 116.9,39.999 384.203,467.692 255.801,253.796 117.602,186.197 95.299,-47.1 565.394,-495.801 19.5,-188.099 502.299,-790.2 174.3,138.197 251.013,372.254 35.586,28.744 40.708,-16.151 303.393,498.322 153.148,199.662 123.578,98.837 42.883,177.205 35.291,26.01 -13.877,34.324 64.686,98.421 76.851,47.103 81.149,108.4 145.895,85.563 215.623,80.729 56.22,62.583 101.904,-9.023 111.619,146.778 215.37,169.697 48.21,-31.96 3.949,-827.026 133.32,-94.93 289.619,-481.22 90.77,-47.011 53.24,-73.71 11.99,-132.419 99.276,-153.202 -17.466,-252.909 -83.039,-229.568 69.976,-111.541 45.963,-21.651 43.515,-115.63 -17.097,-195.42 78.62,-230.119 19.863,-373.597 34.519,-48.75 -31.302,-114.029 94.157,-131.01 -47.374,-248.087 29.766,-184.059 -54.52,-31.759 0.108,-116.789 -38.93,-37.58 -29.703,-136.208 25.938,-118.53 77.579,-44.34 -59.823,-168.128 27.048,-90.939 -57.31,-44.62 -2.131,-51.789 -57.491,-41.759 -29.271,-84.979 -22.932,-106.889 51.498,-87.47 -16.991,-66.939 -122.05,-106.399 1.142,-156.853 -40.999,-108.281 59.99,-72.721 -52.909,-30.9 4.38,-70.341 -60.349,-40.051 -36.568,-98.311 -66.239,-43.72 -10.749,-136.792 -92.409,-48.51 11.591,-102.852 -103.479,-50.23 -31.988,-87.942 -45.541,78.903 -56.489,-53.761 -57.829,12.421 -5.56,-49.671 -72.589,-33.941 -108.799,9.152 -189.428,-73.88 136.851,-78.974 90.991,-142.365 46.81,-530.088 -378.707,-32.657 -148.629,-35.839 -12.871,-46.95 -127.328,25.741 5.438,-95.53 -27.49,-4.11 -121.548,58.971 -114.228,5.951 61.489,-1045.77 177.388,-562.687 274.784,-692.087 -155.606,-429.785 70.098,-81.299 -71.805,-298.091 -194.681,-160.641 166.316,-98.961 122.596,-171.637 168.306,-123.4 -43.89,-40.318 -155.869,-22.467 -289.231,-190.439 80.536,-241.502 -66.701,-151.493 -38.201,-280.595 -41.199,-145.599 -198.898,-251.596 -284.799,-69.793 -440.898,-206.489 -614.098,-38.285 -84.521,18.722 -4.94,102.764 -69.136,4.009 -74.643,57.044 -122.757,2.607 -135.228,-71.377 -291.514,53.181 -191.13,-491.153 34.569,-284.406 504.674,-535.013 51.445,-292.042 206.635,-387.487 49.94,-76.423 210.782,-171.285 64.519,-184.514 204.459,-296.727 -78.06,-138.064 -150.791,-743.637 52.976,-216.602 9.633,-380.175 -246.229,-281.023 -59.01,-326.289 -167.09,-268.838 -31.472,-185.553 -218.772,-304.717 8.175,-120.177 -324.493,-668.806 -47.497,-486.265 -130.946,-89.223 -35.466,-118.523 -445.813,-204.248 -86.413,45.877 -221.093,300.922 -254.077,151.334 -268.918,-30.767 -301.189,122.286 -294.963,-24.619 -228.067,133.318 -471.991,93.872 -271.803,8.909 -172.268,42.723 -173.068,-75.851 -245.301,-2.054 -293.582,-219.885 -407.605,46.35 -104.596,615.617 -93.463,293.579 -193.392,482.818 -183.278,213.377 -380.596,1065.09 105.5,-6.723 -154.038,143.286 -425.187,254.338 -95.75,343.22 -246.2,36.971 -386.712,157.255 -439.385,239.7 -576.018,178.881 -740.749,-536.682 -464.869,-696.034 -253.124,-136.251 -137.768,612.296 52.235,217.032 -67.265,430.127 29.052,70.732 -142.445,522.934 -146.154,349.529 -397.3,243.069 -1745.45,-51.142 -28.337,-76.094 -120.602,-37.752 -62.052,-118.426 -52.942,-14.094 -11.151,135.158 -783,-204.776 -393.851,-34.379 -163.126,41.35 -516.914,-24.34 -24.852,798.755 -68.807,372.073 14.658,67.839 102.935,169.647 90.148,81.108 -8.731,39.35 68.508,108.997 129.537,142.577 96.019,75.218 52.379,-4.369 123.647,116.557 80.249,3.81 -53.64,190.555 -109.209,136.256 -892.004,-563.098 -577.651,-58.141 -511.922,-115.839 -386.963,-257.774 -289.575,-12.481 -554.208,-324.075 -70.809,-14 -302.518,91.028 -185.919,-142.525 -153.651,-277.215 -118.22,-119.997 -238.778,-120.943 -267.129,-223.313 -763.915,-524.949 -333.189,-385.16 -8.601,-44.23 -437.095,-185.938 -122.741,-200.666 -196.779,-169.395 -127.64,-161.096 -288.657,-100.202 -238.936,63.037 -3.697,225.95 -38.927,147.191 -132.186,220.054 -83.13,16.86 -27.188,52.888 39.532,57.198 -21.705,389.859 -51.657,69.888 -70.468,24.658 -178.062,215.973 15.949,350.4 -72.152,104.227 0.91,79.258 -32.549,-25.02 -194.66,358.139 -78.687,66.887 -178.934,53.358 -229.083,-123.661 -96.867,3.259 -91.739,54.946 -159.408,174.392 66.107,308.378 -53.447,208.431 -93.05,145.483 -410.854,360.394 -162.062,73.271 -570.084,-149.222 -210.652,57.098 -32.091,-25.72 -290.267,216.735 -4.938,60.87 -75.34,30.099 -94.084,-61.04 -129.472,-7.221 -226.01,141.568 23.614,103.049 -36.957,123.429 -62.344,17.393 -33.777,56.778 -41.29,80.004 -153.262,61.362 -128.211,123.229 -95.792,-17.59 -165.453,37.522 -31.632,-65.089 -58.21,64.96 -74.462,11.681 -68.373,-39.549 -44.369,67.6 -78.332,6.821 -270.98,-73.075 -128.956,-95.378 -43.649,64.7 -6.437,122.369 -83.026,196.73 -49.492,8.021 -60.407,128.55 -104.631,69.221 -68.702,5.551 -175.313,493.735 -34.676,-2.78 -19.802,51.296 -480.778,93.188 -298.922,118.852 -40.99,-34.229 -406.702,202.27 -41.821,82.543 -7.409,302.519 -53.472,36.021 18.681,50.83 -126.003,187.69 34.901,64.17 -58.001,45.61 -89.942,95.111 -197.355,20.832 -60.752,-1.449 21.154,-27.128 -174.168,6.43 -223.436,-51.378 -31.338,46.561 -80.46,15.031 -99.923,156.105 -54.124,-15.223 -138.136,48.685 -112.172,-20.59 -48.719,22.521 -29.972,-29.01 -117.739,32.011 z "/>
<path fme:OBJECTID="4" fme:SHAPE_AREA="26339103.5678155" fme:SHAPE_LEN="38159.2671157324" fme:NO_CANTON="22" fme:NOM_MIN="Ouest lausannois" fme:NOM_MAJ="OUEST LAUSANNOIS" fme:NO_DIS_FED="2229" fme:NO_COM_FED="0" fme:NO_COM_CAN="0" fme:NO_DIS_CAN="9" d="M 41507.2,37786.8 l -117.391,-108.152 20.3,-14.851 -61.38,-16.63 -345.241,88.067 -355.54,258.923 1.98,71.962 -117.87,63.592 -147.092,-238.985 -41.33,23.781 -84,-369.605 53.659,-62.052 24.848,-100.652 -97.629,32.692 -108.851,-43.29 181.197,-373.554 -300.428,103.306 -282.136,-69.34 -140.187,-141.722 -63.56,-7.068 -40.5,-83.66 15.399,-30.741 -71.416,-25.591 -112.634,-140.325 -72.079,-25.558 -5.57,-37.961 -138.548,15.196 -456.89,-134.067 -246.455,-243.712 34.081,-48.301 -20.318,-44.452 -177.595,-130.882 -281.42,-34.357 -451.12,41.581 4.37,-26.081 -267.529,66.084 -44.31,-15.098 -4.94,28.781 -0.271,-58.852 -169.659,47.829 -28.79,-26.989 -271.961,-25.908 -39.84,-41.009 15.481,119.192 53.44,74.118 243.6,80.74 55.468,43.605 42.046,97.053 -25.363,59.658 -149.318,-17.071 -150.486,37.767 -10.43,78.088 112.475,135.278 6.759,10.029 55.408,81.044 144.816,57.385 -76.458,45.94 -47.317,171.746 210.804,258.146 -61.777,209.923 46.862,145.112 66.769,13.551 4.772,125.191 -18.04,35.87 -50.779,-7.061 -62.429,41.09 -11.509,40.54 85.362,125.514 100.11,66.822 8.892,55.711 60.05,29.722 -25.768,69.331 69.542,118.252 -30.289,29.06 -118.67,-21.331 7.352,70.071 141.536,100.366 127.154,34.105 55.148,136.006 90.581,-0.983 28.012,31.189 39.477,326.251 -31.821,42.86 -62.902,-35.138 -70.061,37.732 72.371,198.835 -35.911,108.701 8.729,79.653 -41.401,74.003 41.998,188.637 51.539,121.724 -66.144,216.658 -52.51,18.269 -33.98,-88.382 -53.871,1.79 -80.032,153.28 -125.252,6.21 -104.442,50.028 -6.36,86.496 38.54,75.507 -46.311,66.667 -47.66,-1.59 -27.059,74.551 -87.025,-1.706 -66.041,53.838 28.04,132.992 -45.625,181.159 -26.51,8.6 -88.801,-81.6 14.509,-51.85 -35.541,-28.69 -53.149,25.36 -23.109,120.171 -72.56,-15.019 -90.03,60.19 -82.19,-17.429 -99.12,56.101 14.973,165.131 -66.012,-86.83 -127.949,93.291 55.361,66.55 -8.409,76.13 -60.268,94.161 -51.811,-48.29 -31.61,14.921 -104.728,157.671 52.49,28.84 0.201,35.75 -148.99,64.712 -51.088,105.85 24.91,46.341 45.721,8.509 74.79,14.84 12.093,183.891 33.919,-49.571 159.97,-78.451 114.371,27.869 42.289,-57.98 239.883,122.219 131.011,37.729 50.04,-13.96 99.112,83.65 80.2,-33.111 16.349,-38.98 136.552,68.979 256.05,-67.532 55.023,176.811 111.71,-19.961 -32.059,62.941 236.81,-21.752 2.584,244.111 180.661,11.459 -20.295,315.722 -29.5,10.29 49.772,164.321 294.683,105.699 4.9,-40.6 54.449,-29.931 23.551,9.53 -22.53,33.63 216.342,151.72 340.781,-15.562 -8.149,164.352 71.401,-2.9 1.069,-27.681 201.851,-4.561 158.82,-63.435 46.431,167.082 242.521,-36.636 5.05,95.662 -34.47,0.01 -116.91,161.766 77.38,122.88 -4.389,155.373 104.18,119.45 45.311,121.241 -18.03,21.691 -13.62,92.962 97.111,255.262 76.02,-18.912 82.501,40.929 15.44,-39.101 59.29,-9.382 38.9,-106.312 -183.694,-162.735 -73.365,-144.664 -28.079,-140.669 -83.541,-168.753 48.885,-217.842 151.873,-59.629 122.98,190.777 66.559,-57.425 50.554,277.431 197.447,-272.966 -146.232,-140.133 -205.797,-25.59 123.484,-132.346 217.79,62.057 4.149,-24.04 68.64,0.219 65.781,57.149 48.63,-7.23 52.278,-69.601 363.805,-211.733 22.21,-17.081 -69.681,-90.518 -40.673,-136.399 -111.212,-153.739 28.859,-67.29 -75.661,-282.643 -131.048,-113.162 -60.999,-123.312 -4.189,-158.413 -65.979,-112.483 24.871,-129.802 -71.349,-248.605 33.77,-72.872 -46.728,-167.644 59.04,-122.482 -40.96,-32.141 11.4,-53.751 -38.62,-19.329 -40.881,-145.201 188.03,-5.784 -33.04,-92.7 82.07,-73.862 71.48,-0.242 76.385,-540.608 17.96,-21.199 167.981,99.053 153.275,-156.007 26.141,21.038 220.492,-260.895 75.101,56.775 44.998,-69.768 86.36,54.253 -16.249,25.82 440.65,238.091 -151.146,139.692 48.809,83.971 -50.978,158.063 98.058,61.021 95.149,121.852 41.869,23.56 4.461,120.492 40.129,0.42 200.51,-34.019 40.938,-133.953 211.789,-33.721 -86.739,-588.76 47.641,-281.055 -73.151,-22.35 53.296,-208.984 -114.051,-45.55 196.071,-492.713 -124.974,-83.027 36.292,-76.651 -88.183,-37.017 21.372,-44.481 -82.513,-77.478 -28.231,27.761 -159.695,-140.806 8.676,-333.65 -148.441,-6.096 -140.731,46.362 14.04,-49.13 -61.241,-177.135 46.42,-190.587 -36.701,0.01 -0.03,-44.421 -93.621,0.531 z "/>
<path fme:OBJECTID="5" fme:SHAPE_AREA="373081667.615399" fme:SHAPE_LEN="116898.005270817" fme:NO_CANTON="22" fme:NOM_MIN="Morges" fme:NOM_MAJ="MORGES" fme:NO_DIS_FED="2227" fme:NO_COM_FED="0" fme:NO_COM_CAN="0" fme:NO_DIS_CAN="7" d="M 15666.1,42048.5 l 361.002,54.327 484.3,1358.14 1025.07,917.326 346.801,-30.274 281.504,365.234 147.391,66.669 10.331,50.461 17.44,64.761 77.872,228.863 139.222,163.712 -345.219,410.093 1138.95,1062.35 653.035,445.14 1076.19,1051.07 -378.379,188.934 -252.109,76.773 332.685,536.233 491.257,746.93 626.703,323.762 64.972,146.99 89.98,56.701 204.039,-104.691 -63.648,192.971 -4.488,218.111 -56.889,61.541 -33.999,103.21 -22.919,259.643 10.43,107.363 193.9,287.416 60.07,339.117 -44.1,103.253 -57.49,455.14 -17.52,251.946 62.56,139.553 -3.01,172.084 -56.061,42.951 36.212,288.526 -45.69,198.074 176.913,607.64 574.743,289.883 562.49,-398.209 183.21,-311.917 642.308,173.803 561.998,292.084 559.413,164.592 545.813,104.992 377.102,-311.412 179.501,-78.905 77.7,104.3 49.101,-163.803 152.601,-83.502 28.3,21.1 82.401,-43.011 1879.14,-1176.56 466.301,425.05 214.511,113.949 227.27,20.68 56.9,6.69 235.67,267.929 94.7,37.77 154.961,170.81 212.16,148.69 74.13,144.51 169.93,110.729 61.59,99.92 276.861,-11.16 41.04,-16.591 338,-138.521 280.99,-104.59 186.38,-33.491 381.301,498.856 339.22,-1.312 22.09,87.539 102,-93.24 172.34,-56.02 156.24,-82.011 160.38,-151.74 57.99,-3.32 58.45,-50.85 63.49,17.83 277.812,-75.192 353.93,549.846 56.161,-119.67 189.312,-153.36 73.69,227.738 -19.711,168.11 136.038,306.155 54.335,-16.079 -59.223,-209.837 155.28,217.399 210.953,11.48 267.122,108.319 131.16,289.861 113.691,104.77 328.301,537.391 109.444,-76.668 183.381,-16.781 9.211,37.841 209.142,124.46 145.661,49.05 414.663,-61.893 35.321,329.623 816.366,-235.576 39.653,-739.39 82.984,-952.868 -36.903,-358.449 141.75,-76.219 -134.163,-483.978 -68.63,-85.89 429.109,-136.848 141.31,14.57 28.4,64.12 82.82,64.97 112.25,-31.479 67.92,-3.45 149.821,142.81 239.208,-249.068 11.75,-59.98 214.31,-60.099 102.699,-89.609 -364.642,-267.97 -78.672,-284.06 -7.072,-192.75 -79.791,-147.57 -125.251,-22.76 -143.771,-151.13 -284.931,-117.201 -28.192,-185.03 78.97,-5.31 52.169,-110.569 -89.581,-158.4 -26.361,-49.22 -272.579,20.009 -112.221,-63.051 -78.89,0.46 -317.198,-919.469 -272.789,130.218 -207.979,104.731 28.581,53.819 -137.15,29.701 -168.48,89.88 12.911,41.78 -279.069,115.981 -112.774,-327.947 -490.9,167.532 -31.261,-97.519 -107.849,64.74 15.66,55.43 -285.509,104.851 -34.202,-177.699 -69.641,5.661 -79.765,-516.946 -660.391,118.324 -62.112,-149.299 -19.44,-52.69 348.15,-73.551 -32.634,-404.608 11.3,-26.47 110.17,-18.331 -43.259,-329.74 201.36,-32.322 30.67,70.33 45.97,-21.06 -73.86,-145.34 17.28,-15.13 -135.48,-77.889 -23.99,-52.53 70.05,-39.591 -185.219,-247.67 396.121,-191.932 155.16,-109.202 -156.93,-240.54 -164.469,-424.05 112.32,-210.531 96.521,-300.731 99.22,-56.05 -43.86,-70.02 -49.12,14.2 -94.22,-118.819 117.351,-78.28 207.15,-276.59 -126.421,-46.071 20.049,-99.961 112.717,-202.334 8.479,-97.701 35.52,0.83 31.548,-195.963 158.19,7.12 4.19,30.73 68.06,5.75 72.971,53.931 33.29,-38.02 90.24,39.21 72.68,-65.501 45.92,-10.3 11.838,-138.492 -45.7,-4.02 -4.932,-133.862 -76.5,-19.261 25.198,-109.811 16.751,16.77 31.449,-31.77 -11.402,-218.403 50.399,-160.161 -204.193,-292.092 -29.839,65.261 -99.93,63.431 -56.291,-169.111 65.848,-204.762 -67.372,-183.852 119.609,-87.231 15.57,-60.321 106.699,-86.041 -17.041,-50.77 -74.339,7.63 -101.142,-145.681 60.49,-86.291 -27.3,-42.52 96.74,-110.832 29.01,-15.5 44.701,32.42 -20.581,-86.271 -69.35,-30.95 30.06,-88.951 -39.43,-16.87 34.54,-58.321 -45.12,13.861 11.9,-43.041 -80.931,-81.47 43.86,-87.641 -73.63,-109.701 32.05,-18.02 -60.231,-100.821 45.7,-21.591 -72.65,-184.261 38.21,-39.631 -120.086,-353.041 156.6,-35.811 -61.443,-186.931 95.5,-41.321 21.544,-350.912 118.881,17.93 44.579,-90.731 -12.093,-183.891 -74.79,-14.84 -45.721,-8.509 -24.91,-46.341 51.088,-105.85 148.99,-64.712 -0.201,-35.75 -52.49,-28.84 104.728,-157.671 31.61,-14.921 51.811,48.29 60.268,-94.161 8.409,-76.13 -55.361,-66.55 127.949,-93.291 66.012,86.83 -14.973,-165.131 99.12,-56.101 82.19,17.429 90.03,-60.19 72.56,15.019 23.109,-120.171 53.149,-25.36 35.541,28.69 -14.509,51.85 88.801,81.6 26.51,-8.6 45.625,-181.159 -28.04,-132.992 66.041,-53.838 87.025,1.706 27.059,-74.551 47.66,1.59 46.311,-66.667 -38.54,-75.507 6.36,-86.496 104.442,-50.028 125.252,-6.21 80.032,-153.28 53.871,-1.79 33.98,88.382 52.51,-18.269 66.144,-216.658 -51.539,-121.724 -41.998,-188.637 41.401,-74.003 -8.729,-79.653 35.911,-108.701 -72.371,-198.835 70.061,-37.732 62.902,35.138 31.821,-42.86 -39.477,-326.251 -28.012,-31.189 -90.581,0.983 -55.148,-136.006 -127.154,-34.105 -141.536,-100.366 -7.352,-70.071 118.67,21.331 30.289,-29.06 -69.542,-118.252 25.768,-69.331 -60.05,-29.722 -8.892,-55.711 -100.11,-66.822 -85.362,-125.514 11.509,-40.54 62.429,-41.09 50.779,7.061 18.04,-35.87 -4.772,-125.191 -66.769,-13.551 -46.862,-145.112 61.777,-209.923 -210.804,-258.146 47.317,-171.746 76.458,-45.94 -144.816,-57.385 -55.408,-81.044 -6.759,-10.029 -112.475,-135.278 10.43,-78.088 150.486,-37.767 149.318,17.071 25.363,-59.658 -42.046,-97.053 -55.468,-43.605 -243.6,-80.74 -53.44,-74.118 -15.481,-119.192 -25.09,-6.969 8.221,59.901 -96.481,-11.837 -156.971,54.004 -503.173,434.141 -402.173,280.384 -332.712,143.096 -261.882,61.086 -173.483,-114.642 -65.01,-10.378 -85.361,-12.607 -199.432,138.045 -156.812,-34.363 -131.961,-73.206 -236.769,-192.562 -95.614,-119.235 -27.335,-119.609 67.155,-85.044 -113.211,-221.695 -223.892,-182.471 -11.511,-80.091 51.058,-9.844 -208.664,-198.574 -113.15,-24.401 12.839,-47.94 -16.809,30.2 -56.419,-8.004 2.603,-21.772 -248.319,-84.776 -17.61,-25.428 -178.447,-6.135 -27.3,-84.141 -27.369,-8.711 -310.847,-440.661 -32.78,-115.742 -1.593,-407.162 -38.71,-90.711 -174.477,-76.946 -276.376,-71.274 -296.236,75.102 -198.863,-39.565 -205.122,-230.458 -281.792,-230.715 -129.981,-202.08 -56.046,-404.965 62.314,-274.297 -26.621,-30.63 -413.867,50.843 -102.231,-17.33 -226.212,-167.695 -55.39,-57.971 30.84,-31.371 -19.24,-17.14 -50.36,14.37 -52.931,-58.831 -49.443,-192.281 -532.307,-173.442 -156.233,-89.321 -372.795,-101.592 -508.996,-100.292 -234.582,-8.391 -390.095,-118.606 -290.735,-175.585 -287.076,-246.735 -319.656,-179.455 -34.81,-40.539 -29.053,-177.079 -451.867,-215.263 -514.064,10.405 -207.501,102.112 -140.484,-14.945 15.174,69.356 -91.4,120.601 27.76,-10.291 12.661,38.85 -100.771,-7.209 -24.541,-32.899 -153.399,201.421 -294.43,179.442 -128.751,54.501 -160.282,-72.428 -27.369,123.89 -95.51,93.481 -65.06,16.091 -142.15,146.111 -152.882,-36.098 -171.22,129.833 -29.499,192.892 37.032,141.13 -35.529,94.331 -62.871,36.732 -61.207,182.631 -71.647,31.61 -11.157,130.991 29.06,27.42 -50.496,124.45 -294.675,-122.389 -60.967,161.33 -15.882,-75.34 -150.302,-19.559 -135.953,-63.68 -81.168,140.131 -137.333,-74.24 -275.691,-297.94 -45.578,104.99 -131.98,-32.151 -94.108,357.997 -160.521,257.757 -153.502,391.452 -245.835,225.819 -70.12,120.062 -179.422,69.17 -192.274,348.937 53.815,67.687 -244.924,102.878 -293.512,64.985 58.438,35.594 -210.649,283.787 86.623,60.917 210.519,53.919 68.029,91.624 -106.622,193.986 -160.333,-148.31 -113.253,-5.506 -215.489,77.075 -584.875,93.36 -46.71,-146.091 -248.748,-213.992 -52.89,-30.891 -265.278,-11.568 -62.039,-159.201 329.715,-236.102 -110.321,-89.08 -182.452,-57.25 -190.512,-169.268 -127.291,-1.919 -153.528,-146.314 -359.366,311.346 -212.667,74.172 -28.383,-108.625 -310.347,-270.656 -63.076,15.191 -72.662,82.373 -86.342,-87.087 -151.572,-25.171 -56.988,-103.696 -123.99,-102.629 -248.801,-113.556 -237.521,513.984 211.139,-39.406 146.137,58.161 129.694,119.567 -48.851,13.273 77.997,128.102 172.971,168.97 49.317,132.928 144.77,183.772 20.993,52.236 -43.246,86.593 -355.954,139.986 -232.799,264.995 -76.597,33.13 70.188,112.6 192.2,185.071 -376.03,236.612 -228.495,194.015 14.576,30.927 111.46,12.019 32.849,-40.241 114.38,89.459 46.54,114.88 109.35,21.139 431.343,278.018 9.761,55.59 -93.84,74.631 45.043,305.771 -10.339,119.661 -100.199,94.201 -96.11,-27.86 -96.22,23.871 -197.548,121.912 -176.2,64.922 213.316,437.14 265.383,396.8 -322.02,208.864 -19.809,223.431 -212.44,211.632 -231.64,16.472 -223.011,70.851 -20.26,177.849 -187.641,247.94 -93.891,-29.51 -86.051,77.969 -184.482,8.129 -86.001,-1.7 -56.901,-37.701 -133.141,128.089 -96.132,-10.73 -67.27,37.239 34.65,21.861 -81.78,157.549 -146.242,107.579 -276.083,114.443 -220.852,194.432 -94.621,-46.909 -121.152,93.641 -138.262,-60.229 -266.323,16.833 104.012,74.089 79.891,147.758 222.944,252.267 327.255,181.057 147.213,239.007 424.465,468.149 192.731,132.768 318.521,81.228 200.041,156.218 z "/>
<path fme:OBJECTID="6" fme:SHAPE_AREA="232158440.445892" fme:SHAPE_LEN="119769.691499211" fme:NO_CANTON="22" fme:NOM_MIN="Gros-de-Vaud" fme:NOM_MAJ="GROS-DE-VAUD" fme:NO_DIS_FED="2223" fme:NO_COM_FED="0" fme:NO_COM_CAN="0" fme:NO_DIS_CAN="3" d="M 44030.6,57293.7 l -1.03,33.27 -256.178,-41.976 -71.8,43.901 -127.118,-107.877 -21.129,-76.98 -193.88,66.692 -301.122,240.942 164.78,349.958 27.429,145.009 -273.459,6.354 159.619,149.297 106.548,206.577 54.872,253.237 -68.89,33.911 29.732,130.088 59.624,81.718 207.927,-64.193 82.53,155.925 135.142,-78.704 135.109,-3.452 52.926,160.943 45.189,42.599 -15.695,88.472 64.071,60.876 0.464,65.837 79.692,117.237 43.092,-30.797 43.304,95.103 113.018,94.912 -43.156,109.044 40.216,67.507 -58.953,28.257 40.84,95.027 -47.942,50.647 71.602,27.849 -50.624,64.692 83.553,53.748 -53.359,43.094 32.356,60.159 -46.978,67.366 67.534,9.866 2.03,91.498 -65.7,42.206 -8.334,84.507 66.65,-4.714 17.775,34.721 -89.232,141.553 77.905,24.724 -14.914,51.76 -52.521,26.974 21.649,65.701 38.907,-16.02 20.246,22.643 -67.439,35.45 -18.485,55.84 122.7,66.744 -46.499,95.528 63.506,45.356 10.503,48.751 -21.193,63.454 -50.767,12.321 74.954,41.843 -21.354,54.846 38.753,108.379 -39.739,96.752 12.445,93.945 3.45,81.161 38.855,-11.097 17.355,45.834 -38.662,74.532 55.601,6.207 47.798,-73.583 18.259,73.333 86.662,70.059 23.595,97.179 73.545,35.476 8.349,101.204 128.005,-44.684 97.243,7.044 171.589,-118.879 230.187,-344.454 60.195,-342.894 420.333,-416.916 128.769,-127.714 -33.147,-299.422 244.738,-229.774 -9.657,-26.479 132.257,-174.52 321.113,-314.231 -14.589,-66.122 182.702,-38.785 -86.929,-173.612 -27.3,0.429 -123.309,-289.492 132.041,-46.26 -44.262,-340.745 218.21,-94.259 379.111,-90.738 128.821,121.888 80.27,72.73 191.008,305.894 233.74,61.703 59.119,45.101 67.55,135.052 76.929,32.001 54.499,164.43 59.23,50.99 48.229,182.3 55.159,73.47 -17.75,11.32 131.42,117.9 53.431,91.709 -18.38,55.279 120.45,29.25 34.06,51.54 104.25,5.42 -6.41,31.81 48.68,34.01 29.33,-18.71 148.62,43.68 50.13,46.35 44.14,-14.51 22.68,28.88 33.01,-45.16 32.03,49.73 16.969,-48.57 35.081,71.09 30.87,-23.69 70.93,30.26 14.339,-26.65 33.521,60.28 88.769,4.66 44.461,58.55 22.149,-133.999 -181.032,-362.317 14.281,-238.729 -27.779,-223.28 261.53,-163.099 13.87,-63.72 51.59,10.42 21.021,-124.95 275.769,-46.499 61.281,-66.2 -6.38,-62.05 44.62,-44.739 51.65,-1.99 72.079,120.4 113.06,53.03 131.379,-3.18 281.069,244.071 459.94,-63.529 32.279,66.29 188.38,-32.539 44.22,134.13 117.19,-132.309 7.481,-143.66 241.687,415.1 -134.71,159.969 -8.614,306.531 27.489,39.03 -8.721,141.41 36.369,59.65 115.1,-52.57 -15.629,-33.32 106.06,-55.089 -27.211,100.39 30.02,14.64 0.45,186.138 115.46,118.61 272.248,-24.748 23.931,175.047 66.029,-29.559 174.02,293.231 7.3,76.528 170.429,171.865 262.469,-468.84 59.034,-190.691 169.382,-209.989 314.435,-150.345 222.764,-160.262 109.871,-265.327 -131.463,-123.493 53.57,-89.52 109.813,-89.641 -20.65,-32.158 42.497,-26.906 -30.595,-41.952 86.059,-78.391 -32.901,-22.448 55.026,-40.74 25.109,-96.865 636.559,364.067 519.849,602.566 -83.651,63.43 80.681,101.16 -39.835,122.478 58.743,119.273 187.524,202.959 160.982,93.332 47.601,57.442 24.332,139.469 111.227,130.636 97.641,87.315 171.073,-102.645 113.402,83.383 90.466,11.766 147.146,-4.446 73.401,-46.12 -56.471,-213.45 -143.489,-119.921 59.649,-36.36 -94.793,-119.848 43.512,-37.607 -123.462,-129.265 -118.932,-49.035 10.432,-82.489 45.631,-24.064 -15.261,-49.613 209.973,-96.606 73.323,-82.295 -15.591,-44.241 75.486,-46.816 91.939,56.021 97.769,-23.263 26.611,47.977 246.973,-14.004 59.689,68.712 155.044,-70.319 203.634,133.232 131.125,-53.524 -159.936,-135.917 -410.882,-544.562 -342.95,-363.51 -363.093,-498.047 -194.266,-127.858 -105.595,-119.769 -152.715,-366.171 31.854,-400.836 123.773,-7.649 -16.761,-75.705 427.927,-232.66 118.823,65.381 86.878,121.147 41.281,-25.201 265.347,293.75 63.662,-65.663 18.183,-119.33 124.847,-104.273 176.384,-163.282 284.362,-2.516 -268.564,-277.301 129.595,-103.792 -28.118,-44.529 54.199,-27.401 -28.809,-57.669 -196.083,-115.235 -134.543,-230.226 -83.217,-104.518 -30.409,-0.899 -46.45,-100.419 -52.85,-23.869 -24.341,-99.52 -45.24,13.131 -125.361,-174.847 -160.12,-67.008 -69.491,-147.778 -47.701,-31.339 -46.008,118.851 23.83,82.979 -244.143,-20.717 -135.031,39.331 -185.002,155.642 -147.241,33.491 -230.06,236.126 -97.594,-266.846 -143.544,-226.467 79.08,-111.008 -64.594,-370.64 105.261,-146.661 -20.761,-24.069 -113.351,5.841 -170.173,-77.828 -229.521,-290.286 -227.791,-170.816 -58.07,-4.37 -213.7,-198.678 -279.787,288.557 -193.389,-44.19 -220.227,52.632 -124.088,-23.639 -345.139,-211.38 -9.493,-380.715 597.099,-410.946 -74.7,-125.061 -18.093,-171.493 197.339,-62.131 -5.281,-64.612 44.049,-50.11 134.268,-84.582 76.151,6.6 26.019,-45.28 -5.645,-270.686 -52.771,-12.02 -70.804,-188.604 149.148,-158.932 -1.89,-79.23 -67.53,-90.51 -178.919,38.751 -20.171,-78.33 88.559,-111.62 -6.27,-147.76 62.449,-80.989 74.81,-32.58 6.52,-48.909 21.83,-13.64 -26.85,-86.069 -80.91,-80.329 -57.3,8.45 -73.91,-117.489 -178.65,12.15 -53.3,-43.259 -53.77,33.179 -26.6,-32.979 -80.509,22.67 -63.78,-47.19 -397.541,-695.722 -264.881,-257.217 -16.52,-57.28 -186.249,-34.539 -68.18,15.52 0.47,-90.629 40.909,-31.64 11.7,-65.509 -33.93,-98.529 19.079,-186.029 -102.17,-223.187 -146.53,-113.699 104.099,-152.728 -47.8,-211.219 6.079,-231.111 -51.954,-363.882 -97.861,-247.862 -109.931,-100.171 -86.681,-195.491 -152.47,-96.04 64.719,-73.912 -117.94,-81.92 -271.452,-404.013 -228.939,22.342 -210.222,-366.882 -53.91,9.3 -175.82,-123.32 -171.729,-24.329 -131.84,-106.05 13.129,-48.041 -49.88,-56.26 28.399,-44.731 -152.651,-245.969 18.349,-172.49 60.879,-113.821 -68.491,-153.669 51.759,-55.42 -22.3,-87.08 -50.422,-77.899 -215.513,72.953 -56.432,-100.328 -26.997,-399.448 22.736,-332.039 -60.595,-276.478 -147.508,-326.436 -96.928,-480.207 -473.971,-22.285 -851.857,794.38 -77.23,32.338 -128.132,218.216 -181.381,125.466 -145.891,11.158 -43.909,107.968 80.583,226.24 -98.398,22.109 -76.808,72.528 73.26,71.891 -38.379,28.409 -38.78,-33.77 -108.048,-6.981 -29.389,28.509 -46.251,-58.05 -133.371,-35.835 -180.854,-109.514 -36.99,31.892 14.923,198.979 -26.86,1.221 -25.808,152.51 -240.751,10.988 -88.192,-80.517 -89.414,222.181 -41.939,28.661 -29.616,158.319 -74.137,110.322 -154.539,49.724 -129.179,-20.037 -88.171,57.533 -18.63,-100.519 -126.425,-260.615 -83.35,-11.038 183.571,-343.142 -13.941,-50.06 -248.832,-160.772 -13.621,-39.609 -51.829,61.431 -53.62,-56.869 -80.27,-12.598 -1.859,52.37 -55.52,-23.069 -3.901,-94.05 -234.719,-68.384 -273.262,-249.874 66.988,-109.292 65.209,-44.751 23.149,-69.681 101.73,48.318 103.488,-40.993 134.686,-148.773 -12.085,-292.95 48.618,-35.281 19.836,-195.641 74.667,-142.851 40.099,-20.351 69.355,-201.702 50.582,-383.461 -51.279,42.491 -105.415,-5.739 -88.051,89.943 -207.947,-32.162 -123.07,-147.384 -6.022,-159.181 -38.091,-81.71 -22.009,10.701 -117.39,-108.239 -176.527,-16.087 -59.491,-97.97 -51.069,4.641 -80.8,-70.289 -114.888,-9.168 -79.719,-46.909 -2.847,228.732 -36.739,47.941 -73.999,2.541 52.58,63.04 -22.069,26.8 14.792,181.472 -58.549,28.66 -49.269,94.13 -141.89,35.259 -31.268,141.531 -94.25,47.23 -15.139,80.74 -75.88,-0.92 -65.069,44.43 -82.05,-44.78 -58.54,6.219 -61.394,55.381 -213.617,-37.086 -23.885,52.419 -14.503,-16.766 -40.04,39.607 -92.043,-6.205 -37.769,64.83 -80.214,59.2 -45.245,-1.898 1.229,37.72 -48.624,37.563 -39.263,-41.699 -61.542,119.455 -41.051,-35.557 -230.198,22.837 12.089,158.149 -45.355,15.347 58.132,275.535 -156.992,28.051 37.222,220.972 -65.092,76.464 11.478,166.526 -38.371,82.707 -864.494,144.052 39.442,62.167 -302.878,131.896 22.035,136.857 -238.304,114.285 -5.523,44.736 -135.349,5.623 -150.127,-79.611 -44.355,-59.296 -21.897,-120.856 -133.228,55.747 -33.518,-192.763 -191.869,40.234 -17.45,-137.565 -129.64,35.622 -41.44,-171.529 3.034,-154.822 -78.684,-34.484 22.627,-113 -79.179,-84.15 -23.327,-220.831 -25.615,-53.505 -42.92,-11.019 -11.891,-104.907 -85.52,-59.869 -26.44,11.231 -38.9,106.312 -59.29,9.382 -15.44,39.101 -82.501,-40.929 -76.02,18.912 -97.111,-255.262 13.62,-92.962 18.03,-21.691 -45.311,-121.241 -104.18,-119.45 4.389,-155.373 -77.38,-122.88 116.91,-161.766 34.47,-0.01 -5.05,-95.662 -242.521,36.636 -46.431,-167.082 -158.82,63.435 -201.851,4.561 -1.069,27.681 -71.401,2.9 8.149,-164.352 -340.781,15.562 -216.342,-151.72 22.53,-33.63 -23.551,-9.53 -54.449,29.931 -4.9,40.6 -294.683,-105.699 -49.772,-164.321 29.5,-10.29 20.295,-315.722 -180.661,-11.459 -2.584,-244.111 -236.81,21.752 32.059,-62.941 -111.71,19.961 -55.023,-176.811 -256.05,67.532 -136.552,-68.979 -16.349,38.98 -80.2,33.111 -99.112,-83.65 -50.04,13.96 -131.011,-37.729 -239.883,-122.219 -42.289,57.98 -114.371,-27.869 -159.97,78.451 -33.919,49.571 -44.579,90.731 -118.881,-17.93 -21.544,350.912 -95.5,41.321 61.443,186.931 -156.6,35.811 120.086,353.041 -38.21,39.631 72.65,184.261 -45.7,21.591 60.231,100.821 -32.05,18.02 73.63,109.701 -43.86,87.641 80.931,81.47 -11.9,43.041 45.12,-13.861 -34.54,58.321 39.43,16.87 -30.06,88.951 69.35,30.95 20.581,86.271 -44.701,-32.42 -29.01,15.5 -96.74,110.832 27.3,42.52 -60.49,86.291 101.142,145.681 74.339,-7.63 17.041,50.77 -106.699,86.041 -15.57,60.321 -119.609,87.231 67.372,183.852 -65.848,204.762 56.291,169.111 99.93,-63.431 29.839,-65.261 204.193,292.092 -50.399,160.161 11.402,218.403 -31.449,31.77 -16.751,-16.77 -25.198,109.811 76.5,19.261 4.932,133.862 45.7,4.02 -11.838,138.492 -45.92,10.3 -72.68,65.501 -90.24,-39.21 -33.29,38.02 -72.971,-53.931 -68.06,-5.75 -4.19,-30.73 -158.19,-7.12 -31.548,195.963 -35.52,-0.83 -8.479,97.701 -112.717,202.334 -20.049,99.961 126.421,46.071 -207.15,276.59 -117.351,78.28 94.22,118.819 49.12,-14.2 43.86,70.02 -99.22,56.05 -96.521,300.731 -112.32,210.531 164.469,424.05 156.93,240.54 -155.16,109.202 -396.121,191.932 185.219,247.67 -70.05,39.591 23.99,52.53 135.48,77.889 -17.28,15.13 73.86,145.34 -45.97,21.06 -30.67,-70.33 -201.36,32.322 43.259,329.74 -110.17,18.331 -11.3,26.47 32.634,404.608 -348.15,73.551 19.44,52.69 62.112,149.299 660.391,-118.324 79.765,516.946 69.641,-5.661 34.202,177.699 285.509,-104.851 -15.66,-55.43 107.849,-64.74 31.261,97.519 490.9,-167.532 112.774,327.947 279.069,-115.981 -12.911,-41.78 168.48,-89.88 137.15,-29.701 -28.581,-53.819 207.979,-104.731 272.789,-130.218 317.198,919.469 78.89,-0.46 112.221,63.051 272.579,-20.009 26.361,49.22 89.581,158.4 -52.169,110.569 -78.97,5.31 28.192,185.03 284.931,117.201 143.771,151.13 125.251,22.76 79.791,147.57 7.072,192.75 78.672,284.06 364.642,267.97 11.249,-119.489 99.89,-25.01 122.809,-123.219 10.08,60.88 95.161,47.1 38.47,104.15 171.72,3.47 55.221,38.34 93.289,-20.629 23.011,71.259 33.04,-6.729 -12.239,156.559 202.339,-38.189 -16.427,511.817 142.042,16.839 -38.98,109.85 117.113,276.817 177.892,182.118 -23.829,148.689 23.681,130.549 -95.839,244.759 -16.019,157.85 -1.369,129.739 -75.07,80.53 219.194,294.847 75.33,20.349 -76.988,390.858 -30.41,14.29 -75.559,257.61 240.203,158.817 201.8,-266.101 231.262,67.678 85.801,-35.751 136.821,31.669 -8.379,84.94 147.2,-23.431 177.202,31.038 121.82,-73.65 125.681,-3.751 79.83,-69.011 118.111,184.669 88.501,-50.33 166.371,204.629 105.2,-80.181 98.461,63.669 47.67,-67.05 191.621,8.459 -59.23,65.95 144.111,197.439 100.161,-73.07 88.66,119.709 240.052,-58.022 26.4,144.7 92.701,-32.54 -7.23,-44.22 92.92,-32.581 -82.931,-244.759 61.48,-243.621 209.001,17.609 158.659,563.487 100.339,107.007 11.037,420.148 z "/>
</g></g></svg>